<svg width="22" height="26" viewBox="0 0 22 26" fill="none" xmlns="http://www.w3.org/2000/svg">
<path d="M14.4429 2.16334L14.725 1.7409L15.002 1.32413L15.6256 0.388984C15.702 0.27396 15.671 0.119219 15.557 0.0423648C15.441 -0.0344897 15.2862 -0.00354145 15.2094 0.111998L14.5414 1.11472L14.2603 1.53613L13.975 1.96321C13.0714 1.61298 12.064 1.41646 10.9999 1.41646C9.93683 1.41646 8.92947 1.61298 8.02578 1.96321L7.74209 1.53613L7.46098 1.11472L6.79198 0.111483C6.71564 -0.00354141 6.56039 -0.0344897 6.44485 0.0418491C6.33034 0.118188 6.29939 0.273444 6.37573 0.388468L6.99882 1.32362L7.27684 1.74039L7.55898 2.16283C5.43645 3.15111 4.00098 5.02347 4.00098 7.16663H18.0009C18.0009 5.02398 16.5654 3.15162 14.4429 2.16334ZM8.00102 5.16686C7.5858 5.16686 7.25053 4.83107 7.25053 4.41688C7.25053 4.0027 7.5858 3.66742 8.00102 3.66742C8.41521 3.66742 8.75048 4.0027 8.75048 4.41688C8.75048 4.83107 8.41521 5.16686 8.00102 5.16686ZM14.0003 5.16686C13.5861 5.16686 13.2509 4.83107 13.2509 4.41688C13.2509 4.0027 13.5861 3.66742 14.0003 3.66742C14.4155 3.66742 14.7508 4.0027 14.7508 4.41688C14.7508 4.83107 14.4155 5.16686 14.0003 5.16686Z" fill="white"/>
<path d="M4.10878 8.16736H4.00098V9.41457V10.4322V19.1679C4.00098 20.0411 4.71072 20.7514 5.58397 20.7514H6.72699C6.68882 20.8834 6.66716 21.0232 6.66716 21.1676V21.2512V21.751V24.3352C6.66716 25.163 7.33925 25.8351 8.16763 25.8351C8.99601 25.8351 9.66758 25.163 9.66758 24.3352V21.751V21.2512V21.1676C9.66758 21.0237 9.6454 20.8834 9.60826 20.7514H12.3936C12.3554 20.8834 12.3343 21.0232 12.3343 21.1676V21.2512V21.751V24.3352C12.3343 25.163 13.0064 25.8351 13.8342 25.8351C14.6621 25.8351 15.3342 25.163 15.3342 24.3352V21.751V21.2512V21.1676C15.3342 21.0237 15.313 20.8834 15.2749 20.7514H16.4174C17.2906 20.7514 18.0009 20.0411 18.0009 19.1679V10.4322V9.41457V8.16736H17.8931H4.10878Z" fill="white"/>
<path d="M1.49995 8.16736C0.671575 8.16736 0 8.83842 0 9.66783V16.0839C0 16.9118 0.671575 17.5838 1.49995 17.5838C2.32782 17.5838 2.99991 16.9118 2.99991 16.0839V9.66731C2.99991 8.83842 2.32833 8.16736 1.49995 8.16736Z" fill="white"/>
<path d="M20.5009 8.16736C19.672 8.16736 19.001 8.83842 19.001 9.66783V16.0839C19.001 16.9118 19.672 17.5838 20.5009 17.5838C21.3288 17.5838 21.9999 16.9118 21.9999 16.0839V9.66731C21.9999 8.83842 21.3288 8.16736 20.5009 8.16736Z" fill="white"/>
</svg>
