<svg width="23" height="28" viewBox="0 0 23 28" fill="none" xmlns="http://www.w3.org/2000/svg">
<path d="M18.8872 14.7563C18.8522 11.2387 21.7557 9.55154 21.8856 9.46631C20.2538 7.0804 17.7115 6.75302 16.8067 6.71577C14.6449 6.4962 12.5864 7.98916 11.4896 7.98916C10.3952 7.98916 8.70073 6.74794 6.90806 6.77955C4.54981 6.81455 2.37614 8.15115 1.16259 10.2622C-1.28653 14.5107 0.536056 20.8071 2.92252 24.2553C4.08923 25.9407 5.48058 27.8373 7.30599 27.7678C9.06536 27.6984 9.72915 26.6299 11.856 26.6299C13.9828 26.6299 14.58 27.7678 16.4409 27.7323C18.333 27.6978 19.5324 26.0147 20.6895 24.3225C22.0289 22.3644 22.5804 20.4684 22.6131 20.3725C22.5719 20.3533 18.9251 18.9563 18.8872 14.7563Z" fill="white"/>
<path d="M15.3901 4.4337C16.3582 3.25853 17.014 1.6256 16.8357 0C15.4387 0.0564444 13.7476 0.92851 12.7446 2.10255C11.846 3.14451 11.0603 4.80341 11.2708 6.39966C12.8292 6.52045 14.4187 5.60662 15.3901 4.4337Z" fill="white"/>
</svg>
