<svg width="50" height="50" viewBox="0 0 50 50" fill="none" xmlns="http://www.w3.org/2000/svg">
<path d="M46.875 40.625H6.25V6.16211C6.25 4.52441 4.85059 3.125 3.125 3.125C1.39941 3.125 0 4.52441 0 6.16211V43.75C0 45.4756 1.39941 46.875 3.125 46.875H46.875C48.6035 46.875 50 45.4785 50 43.75C50 42.0215 48.6035 40.625 46.875 40.625ZM46.875 23.0566C46.875 22.2976 46.5988 21.5645 46.0976 20.9941L39.2606 13.2129C38.3269 12.1504 36.6728 12.1504 35.7392 13.2129L31.5028 18.0342L25.2743 10.1787C24.3359 8.99512 22.5399 8.99512 21.6015 10.1787L13.1738 20.8887C12.7344 21.4355 12.5 22.1289 12.5 22.832V34.375H46.875V23.0566Z" fill="#173B59"/>
</svg>
