<svg width="38" height="38" viewBox="0 0 38 38" fill="none" xmlns="http://www.w3.org/2000/svg">
<g clip-path="url(#clip0_16_46)">
<path d="M21.3755 0C16.9679 0.00534234 12.7424 1.75862 9.62578 4.87525C6.50914 7.99189 4.75587 12.2174 4.75053 16.625C4.76226 20.2054 5.94066 23.6844 8.10719 26.5349L0.696325 33.9458C0.4748 34.1661 0.298921 34.4279 0.178763 34.7163C0.0586053 35.0047 -0.00346929 35.314 -0.00390395 35.6264C-0.00433861 35.9388 0.0568752 36.2482 0.17623 36.5369C0.295585 36.8256 0.470735 37.088 0.691646 37.3089C0.912556 37.5298 1.17488 37.7049 1.4636 37.8243C1.75232 37.9437 2.06175 38.0049 2.37416 38.0044C2.68657 38.004 2.99583 37.9419 3.28421 37.8218C3.5726 37.7016 3.83444 37.5257 4.05473 37.3042L11.4656 29.8933C14.3161 32.0599 17.7951 33.2383 21.3755 33.25C25.7848 33.25 30.0134 31.4984 33.1312 28.3807C36.249 25.2629 38.0005 21.0342 38.0005 16.625C38.0005 12.2158 36.249 7.98714 33.1312 4.86935C30.0134 1.75156 25.7848 0 21.3755 0ZM21.3755 28.5C19.0269 28.5 16.731 27.8035 14.7781 26.4987C12.8253 25.1939 11.3032 23.3392 10.4045 21.1694C9.50567 18.9995 9.2705 16.6118 9.7287 14.3083C10.1869 12.0048 11.3179 9.88886 12.9786 8.22811C14.6394 6.56736 16.7553 5.43637 19.0588 4.97818C21.3624 4.51998 23.75 4.75514 25.9199 5.65393C28.0898 6.55272 29.9444 8.07477 31.2492 10.0276C32.5541 11.9804 33.2505 14.2763 33.2505 16.625C33.2468 19.7733 31.9945 22.7916 29.7683 25.0178C27.5421 27.244 24.5238 28.4963 21.3755 28.5Z" fill="#3D3838"/>
</g>
<defs>
<clipPath id="clip0_16_46">
<rect width="38" height="38" fill="white"/>
</clipPath>
</defs>
</svg>
