<svg width="50" height="50" viewBox="0 0 50 50" fill="none" xmlns="http://www.w3.org/2000/svg">
<path d="M46.875 31.25H29.6875V34.375H46.875V31.25Z" fill="#173B59"/>
<path d="M46.875 37.5H29.6875V40.625H46.875V37.5Z" fill="#173B59"/>
<path d="M29.6875 43.75V46.875H45.3125C46.25 46.875 46.875 46.25 46.875 45.3125V43.75H29.6875Z" fill="#173B59"/>
<path d="M26.5625 29.6875C26.5625 28.75 27.1875 28.125 28.125 28.125H46.875V25H31.25C30.3125 25 29.6875 24.375 29.6875 23.4375C29.6875 22.5 30.3125 21.875 31.25 21.875H46.875V4.6875C46.875 3.75 46.25 3.125 45.3125 3.125H23.4375V23.4375C23.4375 24.375 22.8125 25 21.875 25H3.125V45.3125C3.125 46.25 3.75 46.875 4.6875 46.875H15.625V32.8125H10.9375C10 32.8125 9.375 32.1875 9.375 31.25C9.375 30.3125 10 29.6875 10.9375 29.6875H17.1875C18.125 29.6875 18.75 30.3125 18.75 31.25V46.875H26.5625V29.6875Z" fill="#173B59"/>
<path d="M20.3125 21.875V3.125H4.6875C3.75 3.125 3.125 3.75 3.125 4.6875V21.875H20.3125Z" fill="#173B59"/>
</svg>
