<svg width="20" height="20" viewBox="0 0 20 20" fill="none" xmlns="http://www.w3.org/2000/svg">
<path d="M19.9024 9.93922C19.6817 10.5419 19.1351 10.9313 18.5091 10.9313H17.9998V18.4472C17.9998 18.8243 17.7011 19.1304 17.3331 19.1304H13.3333V14.3476C13.3333 12.4639 11.8381 10.9313 10.0001 10.9313C8.16222 10.9313 6.66696 12.4639 6.66696 14.3476V19.1304H2.66713C2.29915 19.1304 2.0005 18.8243 2.0005 18.4472V10.9313H1.49052C0.864549 10.9313 0.317906 10.5425 0.0972496 9.9399C-0.123407 9.33726 0.0385855 8.6745 0.510564 8.25225L8.29622 0.695388C9.25217 -0.231796 10.7488 -0.231796 11.7041 0.695388L19.5084 8.27001C19.9604 8.67382 20.123 9.33658 19.9024 9.93922Z" fill="#5F5151"/>
</svg>
