<svg width="32" height="32" viewBox="0 0 32 32" fill="none" xmlns="http://www.w3.org/2000/svg">
<path d="M16.0008 2C11.3758 2 7.61328 5.66875 7.61328 10.2937C7.61328 11.3187 7.83203 12.4375 8.22578 13.4438H8.21953L8.25703 13.5188C8.28828 13.5875 8.31953 13.6563 8.35078 13.725L16.0008 30L23.6133 13.8062L23.6508 13.7312C23.682 13.6625 23.7195 13.5938 23.7508 13.5188L23.7758 13.45C24.182 12.4437 24.3883 11.3812 24.3883 10.3062C24.3883 5.66875 20.6258 2 16.0008 2ZM16.0008 12.9312C14.382 12.9312 13.0695 11.6187 13.0695 10C13.0695 8.38125 14.382 7.06875 16.0008 7.06875C17.6195 7.06875 18.932 8.38125 18.932 10C18.932 11.6187 17.6195 12.9312 16.0008 12.9312Z" fill="#5F5151"/>
</svg>
