<svg width="50" height="50" viewBox="0 0 50 50" fill="none" xmlns="http://www.w3.org/2000/svg">
<g clip-path="url(#clip0_205_9)">
<mask id="mask0_205_9" style="mask-type:luminance" maskUnits="userSpaceOnUse" x="0" y="0" width="50" height="50">
<path d="M50 0H0V50H50V0Z" fill="white"/>
</mask>
<g mask="url(#mask0_205_9)">
<path d="M39 14C40.6569 14 42 12.6569 42 11C42 9.34315 40.6569 8 39 8C37.3431 8 36 9.34315 36 11C36 12.6569 37.3431 14 39 14Z" stroke="black" stroke-width="2" stroke-miterlimit="10" stroke-linecap="round"/>
<path d="M47.0003 5.5C47.0003 4.119 45.8813 3 44.5003 3C44.3443 3 29.6243 3.002 29.6243 3.002C28.2943 3.002 27.0213 2.932 26.2833 3.67L3.55425 26.398C2.81525 27.136 2.81525 28.334 3.55425 29.072L20.9282 46.446C21.6662 47.184 22.8642 47.184 23.6022 46.446L46.3303 23.717C47.0683 22.98 46.9983 21.737 46.9983 20.377C46.9983 20.377 47.0003 5.656 47.0003 5.5Z" fill="#173B59"/>
<path d="M19.109 27.4439C19.115 28.3039 19.392 29.1189 19.939 29.8849L24.296 25.5279C23.858 24.8049 23.513 24.1479 23.261 23.5559C23.007 22.9619 22.861 22.4099 22.816 21.8939C22.773 21.3789 22.855 20.8859 23.064 20.4149C23.272 19.9429 23.617 19.4659 24.099 18.9829C24.592 18.4899 25.132 18.1259 25.718 17.8899C26.304 17.6539 26.899 17.5359 27.502 17.5359C28.105 17.5359 28.699 17.6529 29.286 17.8899C29.872 18.1249 30.417 18.4629 30.922 18.9009L32.007 17.8159L32.911 18.7209L31.809 19.8229C32.587 20.8199 32.965 21.8549 32.944 22.9289C32.922 24.0029 32.538 25.1329 31.793 26.3159L30.396 24.9189C31.261 23.6139 31.284 22.3649 30.462 21.1709L26.417 25.2159L27.14 26.4639C27.305 26.7389 27.466 27.0929 27.626 27.5259C27.784 27.9579 27.88 28.4319 27.913 28.9479C27.946 29.4619 27.878 29.9969 27.708 30.5509C27.538 31.1049 27.2 31.6329 26.696 32.1369C26.159 32.6739 25.592 33.0609 24.994 33.2959C24.397 33.5319 23.788 33.6419 23.17 33.6249C22.55 33.6079 21.934 33.4689 21.319 33.2059C20.706 32.9419 20.114 32.5699 19.544 32.0889L18.196 33.4369L17.291 32.5329L18.639 31.1839C17.653 29.9779 17.162 28.7259 17.168 27.4269C17.173 26.1279 17.708 24.8589 18.771 23.6199L20.168 25.0169C19.458 25.7749 19.104 26.5839 19.109 27.4439ZM21.855 31.4729C22.201 31.6429 22.552 31.7389 22.916 31.7599C23.277 31.7819 23.639 31.7159 24.001 31.5629C24.362 31.4099 24.719 31.1579 25.07 30.8069C25.386 30.4889 25.598 30.1679 25.703 29.8439C25.807 29.5209 25.842 29.1899 25.809 28.8499C25.776 28.5099 25.679 28.1569 25.521 27.7889C25.363 27.4209 25.178 27.0469 24.97 26.6639L20.844 30.7899C21.172 31.0739 21.51 31.3029 21.855 31.4729ZM27.7 19.4449C27.01 19.4009 26.351 19.6909 25.727 20.3159C25.442 20.6009 25.245 20.8919 25.135 21.1879C25.025 21.4829 24.987 21.7849 25.019 22.0909C25.052 22.3989 25.134 22.7159 25.266 23.0449C25.398 23.3739 25.562 23.7139 25.759 24.0639L29.607 20.2169C29.025 19.7459 28.391 19.4879 27.7 19.4449Z" fill="white"/>
</g>
</g>
<defs>
<clipPath id="clip0_205_9">
<rect width="50" height="50" fill="white"/>
</clipPath>
</defs>
</svg>
