<svg width="28" height="29" viewBox="0 0 28 29" fill="none" xmlns="http://www.w3.org/2000/svg">
<g clip-path="url(#clip0_16_60)">
<path d="M13.9998 16.9842C17.829 16.9842 20.9332 13.2532 20.9332 8.65085C20.9332 4.04847 17.829 0.317505 13.9998 0.317505C10.1706 0.317505 7.06641 4.04847 7.06641 8.65085C7.06641 13.2532 10.1706 16.9842 13.9998 16.9842Z" fill="white"/>
<path d="M27.5895 24.0676C26.3415 21.5676 23.9842 19.4842 20.9335 18.2342C20.1015 17.9565 19.1308 17.9565 18.4374 18.3731C17.0508 19.2065 15.6641 19.6231 14.0001 19.6231C12.3361 19.6231 10.9494 19.2065 9.56271 18.3731C8.86937 18.0954 7.89869 17.9565 7.06669 18.3731C4.01599 19.6231 1.65864 21.7065 0.410631 24.2065C-0.560043 26.012 0.965302 28.0954 3.04532 28.0954H24.9548C27.0348 28.0954 28.5602 26.012 27.5895 24.0676Z" fill="white"/>
</g>
<defs>
<clipPath id="clip0_16_60">
<rect width="27.7778" height="27.7778" fill="white" transform="translate(0.111328 0.317505)"/>
</clipPath>
</defs>
</svg>
