<svg width="23" height="19" viewBox="0 0 23 19" fill="none" xmlns="http://www.w3.org/2000/svg">
<path d="M15.9805 9.27343C18.5413 9.27343 20.6172 7.1975 20.6172 4.63672C20.6172 2.07593 18.5413 0 15.9805 0C13.4197 0 11.3438 2.07593 11.3438 4.63672C11.3438 7.1975 13.4197 9.27343 15.9805 9.27343Z" fill="white"/>
<path d="M12.0185 5.60274C11.7769 5.60274 11.3423 6.10388 11.3423 6.37556C11.3423 8.98874 10.3042 11.4949 8.45644 13.3427C6.60864 15.1905 4.10249 16.2286 1.4893 16.2286C0.990439 16.2248 0.492581 16.1832 0 16.1042C1.99164 17.4424 4.30963 18.2141 6.70599 18.3365C9.10235 18.4589 11.4869 17.9275 13.6046 16.7992C15.7222 15.6709 17.4933 13.9881 18.7282 11.9308C19.9632 9.87354 20.6157 7.51922 20.6158 5.11974C20.6158 4.26701 15.188 5.60274 12.0185 5.60274Z" fill="white"/>
<path d="M12.0175 5.60277C10.0992 5.60376 8.20372 5.18653 6.46311 4.38014C4.72251 3.57375 3.17863 2.39759 1.93901 0.933594C1.53449 1.62508 1.31909 2.41086 1.31445 3.21196C1.31446 4.43529 1.80042 5.60851 2.66544 6.47354C3.53046 7.33857 4.70368 7.82454 5.92701 7.82456C8.39006 7.82456 12.7644 7.8508 13.0524 5.55049C12.7098 5.57709 12.3669 5.60277 12.0175 5.60277Z" fill="white"/>
<path d="M3.51211 7.0033C2.74501 6.99827 1.99157 6.79982 1.32152 6.42633C1.32116 6.45017 1.31445 6.47224 1.31445 6.49616C1.31446 7.71949 1.80043 8.89272 2.66545 9.75775C3.53048 10.6228 4.70371 11.1087 5.92705 11.1088C8.47449 11.1088 12.0417 9.26102 12.0417 6.71355C12.0417 4.96357 6.03564 7.0033 3.51211 7.0033Z" fill="white"/>
<path d="M6.39016 10.4287C5.8762 10.7617 5.30008 10.9871 4.69659 11.0913C4.09311 11.1954 3.47476 11.1762 2.87891 11.0348C3.15697 11.988 3.73616 12.8256 4.52986 13.4223C5.32356 14.019 6.2891 14.3427 7.28207 14.345C8.66669 14.1974 9.95904 13.5801 10.9441 12.596C11.9292 11.6118 12.5476 10.32 12.6964 8.93548C12.6964 6.74052 7.66745 9.60844 6.39016 10.4287Z" fill="white"/>
<path d="M17.8472 1.59864C16.3146 1.59864 15.9512 3.52334 17.9341 3.52334C18.8974 3.5212 19.8356 3.21657 20.6164 2.65246C21.3972 2.08834 21.9811 1.29324 22.2857 0.379395C20.9426 1.17725 19.4094 1.59843 17.8472 1.59864Z" fill="white"/>
<path d="M19.2591 2.9392C18.0896 2.94072 16.9318 2.70695 15.8545 2.25181C12.715 0.923957 10.8059 6.12694 15.6367 6.12694C17.1043 6.12691 18.5482 5.75705 19.835 5.05151C21.1219 4.34597 22.2102 3.32751 22.9994 2.09022C21.8314 2.64802 20.5535 2.93807 19.2591 2.9392Z" fill="white"/>
</svg>
