<svg width="28" height="28" viewBox="0 0 28 28" fill="none" xmlns="http://www.w3.org/2000/svg">
<g clip-path="url(#clip0_208_48)">
<path d="M13.2975 0.00228038C11.0516 0.0326137 6.21931 0.401281 3.51614 2.87811C1.50947 4.87311 0.808306 7.81428 0.726639 11.4566C0.656639 15.0849 0.574973 21.8983 7.14331 23.7544V26.5778C7.14331 26.5778 7.09897 27.7094 7.84564 27.9428C8.76731 28.2344 9.29231 27.3606 10.1673 26.4273L11.8006 24.5839C16.2923 24.9573 19.734 24.0951 20.1306 23.9668C21.0406 23.6751 26.1751 23.0206 27.0151 16.2061C27.8785 9.16995 26.5951 4.73661 24.2851 2.72995L24.2735 2.72761C23.5735 2.08595 20.7735 0.0442804 14.5085 0.020947C14.5085 0.020947 14.0465 -0.00821962 13.2975 0.00228038ZM13.3756 1.98211C14.0115 1.97861 14.4023 2.00545 14.4023 2.00545C19.699 2.01711 22.2318 3.61545 22.8268 4.15211C24.7751 5.81928 25.7761 9.81745 25.0435 15.6928C24.3435 21.3861 20.1785 21.7478 19.4085 21.9928C19.0818 22.0978 16.0485 22.8444 12.2311 22.5994C12.2311 22.5994 9.38564 26.0306 8.49897 26.9173C8.35897 27.0689 8.19564 27.1156 8.09064 27.0923C7.93897 27.0573 7.89231 26.8706 7.90397 26.6139L7.92731 21.9251C2.36114 20.3851 2.68781 14.5728 2.74614 11.5394C2.81614 8.50611 3.38781 6.01878 5.07947 4.33878C7.36264 2.27378 11.467 1.99378 13.3745 1.98211H13.3756ZM13.7956 5.01545C13.7497 5.01529 13.7042 5.0242 13.6618 5.04166C13.6193 5.05913 13.5807 5.0848 13.5482 5.1172C13.5157 5.14961 13.4899 5.18812 13.4723 5.23052C13.4547 5.27292 13.4456 5.31837 13.4456 5.36428C13.4456 5.45711 13.4825 5.54613 13.5482 5.61177C13.6138 5.67741 13.7028 5.71428 13.7956 5.71428C14.663 5.69773 15.525 5.85314 16.332 6.17152C17.139 6.48991 17.8749 6.96497 18.4973 7.56928C19.769 8.80595 20.3885 10.4626 20.4118 12.6326C20.4118 12.6786 20.4209 12.7241 20.4384 12.7666C20.456 12.809 20.4818 12.8476 20.5143 12.8801C20.5468 12.9126 20.5854 12.9384 20.6279 12.956C20.6703 12.9736 20.7158 12.9826 20.7618 12.9826V12.9721C20.8546 12.9721 20.9437 12.9352 21.0093 12.8696C21.0749 12.804 21.1118 12.7149 21.1118 12.6221C21.1551 11.6016 20.9902 10.583 20.6271 9.62826C20.2641 8.67353 19.7105 7.8027 19.0001 7.06878C17.6118 5.71545 15.8606 5.01545 13.7956 5.01545ZM9.18264 5.82045C8.93453 5.78509 8.68175 5.83441 8.46514 5.96045H8.45114C7.97281 6.24045 7.53181 6.59045 7.11181 7.05711C6.79681 7.43045 6.62064 7.80261 6.57397 8.16428C6.54652 8.37639 6.56644 8.59196 6.63231 8.79545L6.65564 8.80711C7.01524 9.86428 7.48446 10.8809 8.05564 11.8404C8.79602 13.1842 9.70566 14.4275 10.7623 15.5399L10.7973 15.5866L10.844 15.6216L10.879 15.6566L10.914 15.6916C12.0307 16.7509 13.2774 17.6643 14.624 18.4099C16.164 19.2499 17.0996 19.6466 17.6596 19.8099V19.8216C17.823 19.8683 17.9723 19.8916 18.124 19.8916C18.602 19.8567 19.0546 19.6629 19.4096 19.3409C19.8646 18.9326 20.2263 18.4799 20.4946 18.0016V17.9899C20.763 17.4883 20.6696 17.0088 20.2846 16.6821C19.5087 16.0033 18.6687 15.4016 17.7763 14.8854C17.1813 14.5588 16.5746 14.7571 16.3296 15.0838L15.8046 15.7476C15.5363 16.0743 15.0463 16.0276 15.0463 16.0276L15.0323 16.0393C11.3923 15.1059 10.424 11.4204 10.424 11.4204C10.424 11.4204 10.3773 10.9188 10.7156 10.6621L11.369 10.1371C11.684 9.88045 11.9056 9.27378 11.5673 8.67878C11.0518 7.78597 10.45 6.94584 9.77064 6.17045C9.62285 5.98716 9.41421 5.86297 9.18264 5.82045ZM14.4011 6.85878C14.3083 6.85909 14.2194 6.89626 14.154 6.96212C14.0886 7.02797 14.052 7.11712 14.0523 7.20995C14.0526 7.30277 14.0898 7.39167 14.1556 7.45709C14.2215 7.52251 14.3106 7.55909 14.4035 7.55878C15.571 7.57905 16.6829 8.06154 17.4951 8.90045C17.8616 9.30471 18.1433 9.77833 18.3237 10.2933C18.504 10.8083 18.5793 11.3542 18.5451 11.8988C18.5454 11.9914 18.5825 12.0801 18.6481 12.1455C18.7137 12.2109 18.8025 12.2476 18.8951 12.2476L18.9068 12.2616C18.9529 12.2616 18.9985 12.2525 19.041 12.2349C19.0836 12.2172 19.1222 12.1913 19.1547 12.1587C19.1872 12.1261 19.213 12.0873 19.2305 12.0447C19.248 12.0021 19.257 11.9565 19.2568 11.9104C19.2918 10.5221 18.8601 9.35545 18.0085 8.42211C17.1568 7.48878 15.9668 6.96378 14.4501 6.85878C14.4338 6.85764 14.4175 6.85764 14.4011 6.85878ZM14.9728 8.74761C14.926 8.74623 14.8794 8.75409 14.8356 8.77073C14.7918 8.78736 14.7518 8.81246 14.7177 8.84458C14.6836 8.8767 14.6562 8.91522 14.637 8.95793C14.6179 9.00065 14.6073 9.04672 14.6059 9.09353C14.6045 9.14034 14.6124 9.18695 14.629 9.23072C14.6456 9.27449 14.6707 9.31456 14.7029 9.34863C14.735 9.3827 14.7735 9.41011 14.8162 9.4293C14.8589 9.44848 14.905 9.45907 14.9518 9.46045C16.1068 9.51878 16.6668 10.1021 16.7368 11.3038C16.7398 11.3946 16.778 11.4806 16.8434 11.5438C16.9087 11.6069 16.996 11.6422 17.0868 11.6421H17.0985C17.1455 11.6407 17.1917 11.6297 17.2344 11.61C17.2771 11.5903 17.3154 11.5622 17.3469 11.5273C17.3785 11.4925 17.4028 11.4516 17.4182 11.4072C17.4336 11.3628 17.44 11.3157 17.4368 11.2688C17.3551 9.70545 16.5035 8.82928 14.9868 8.74761C14.9821 8.74752 14.9775 8.74752 14.9728 8.74761Z" fill="white"/>
</g>
<defs>
<clipPath id="clip0_208_48">
<rect width="28" height="28" fill="white"/>
</clipPath>
</defs>
</svg>
