<svg width="28" height="28" viewBox="0 0 28 28" fill="none" xmlns="http://www.w3.org/2000/svg">
<g clip-path="url(#clip0_140_8)">
<path d="M13.4164 1.98327C16.3331 2.09994 18.4331 2.91661 20.5331 4.54994C23.0997 6.41661 24.6164 9.09994 25.1997 12.3666C25.3164 13.2999 25.4331 13.9999 25.4331 15.0499C25.4331 15.8666 25.5497 16.0999 25.6664 16.3333C25.7831 16.5666 26.0164 16.6833 26.1331 16.6833C26.2497 16.6833 26.3664 16.6833 26.3664 16.5666C26.5997 16.4499 26.7164 16.0999 26.5997 15.7499C26.5997 15.6333 26.4831 15.5166 26.4831 14.9333C26.4831 13.7666 26.3664 13.0666 26.1331 12.1333C25.4331 8.51661 23.7997 5.59994 20.9997 3.61661C18.6664 1.86661 16.3331 1.04994 13.1831 0.816607C12.2497 0.816607 12.1331 0.69994 12.1331 0.69994C11.8997 0.466607 11.5497 0.583274 11.3164 0.816607C11.4331 1.04994 11.4331 1.39994 11.6664 1.63327C12.1331 1.86661 12.4831 1.98327 13.4164 1.98327Z" fill="white"/>
<path d="M20.8837 9.91667C21.4671 10.9667 21.8171 12.25 21.8171 13.5333C21.8171 14.35 21.9337 15.05 22.6337 15.5167C22.7504 15.5167 22.7504 15.6333 22.8671 15.6333C23.1004 15.6333 23.3337 15.5167 23.3337 15.2833C23.4504 15.05 23.3337 14.7 23.1004 14.4667C22.9837 14.4667 22.8671 14.35 22.8671 13.5333C22.8671 12.0167 22.5171 10.5 21.8171 9.33333C21.1171 7.93333 19.9504 6.76667 18.6671 6.06667C17.5004 5.36667 15.8671 4.9 14.3504 4.78333C13.8837 4.78333 13.7671 4.66667 13.7671 4.55C13.5337 4.31667 13.1837 4.31667 12.9504 4.55C12.7171 4.78333 12.7171 5.13333 12.9504 5.36667C13.1837 5.71667 13.7671 5.83333 14.2337 5.83333C15.6337 5.95 17.0337 6.41667 18.0837 7C19.2504 7.7 20.1837 8.63333 20.8837 9.91667Z" fill="white"/>
<path d="M19.1333 12.5999C19.0166 11.7832 18.8999 11.1999 18.6666 10.7332C18.0833 9.56656 17.1499 8.86656 15.5166 8.74989C14.9333 8.63322 14.9333 8.63323 14.8166 8.51656C14.5833 8.28323 14.2333 8.16656 13.9999 8.39989C13.7666 8.63322 13.7666 8.98323 13.8833 9.21656C14.2333 9.56656 14.5833 9.68322 15.2833 9.79989C16.4499 9.91656 17.1499 10.3832 17.4999 11.1999C17.7333 11.6666 17.8499 12.1332 17.8499 12.7166C17.9666 13.2999 18.0833 13.7666 18.4333 13.9999C18.5499 14.1166 18.6666 14.1166 18.7833 14.1166C19.0166 14.1166 19.1333 13.9999 19.2499 13.8832C19.4833 13.6499 19.3666 13.2999 19.1333 13.0666C19.2499 13.0666 19.1333 13.0666 19.1333 12.5999Z" fill="white"/>
<path d="M26.6006 20.7667C26.2506 20.4167 24.3839 18.9 23.5672 18.3167C22.8672 17.85 21.9339 17.2667 21.3506 17.0334C20.6506 16.6834 19.8339 16.5667 19.1339 16.8C18.5506 17.0334 18.3172 17.2667 17.6172 18.0834C17.2672 18.4334 17.0339 18.7834 17.0339 18.9C17.0339 18.9 16.9172 19.0167 16.8006 19.0167C16.4506 19.1334 15.8672 19.0167 14.8172 18.55C13.8839 18.0834 13.1839 17.5 12.2506 16.6834C11.4339 15.9834 10.7339 15.05 10.2672 14.35C9.6839 13.4167 9.3339 12.25 9.3339 11.7834C9.3339 11.55 9.3339 11.2 9.45057 11.0834L9.56724 10.9667C9.6839 10.85 9.91724 10.7334 10.1506 10.5C11.2006 9.68338 11.5506 9.33338 11.6672 8.75005C11.7839 8.16672 11.6672 7.46672 11.2006 6.53338C10.5006 5.13338 8.2839 2.10005 7.35057 1.51672C7.2339 1.40005 6.8839 1.28338 6.76724 1.16672C6.30057 1.05005 5.71724 1.05005 5.36724 1.05005C4.90057 1.16672 4.31724 1.51672 3.15057 2.33338C2.56724 2.80005 1.6339 3.73338 1.2839 4.20005C0.70057 5.36672 0.817237 6.30005 1.40057 7.81671C2.21724 9.91671 3.26724 12.0167 4.55057 14.1167C4.7839 14.4667 4.90057 14.7 5.1339 15.05C5.36724 15.4 5.60057 15.6334 5.8339 15.9834C7.9339 18.9 10.5006 21.35 13.4172 23.3334L13.5339 23.45C13.6506 23.5667 13.8839 23.6834 14.0006 23.8L14.3506 24.0334C14.5839 24.15 14.7006 24.2667 14.9339 24.3834L18.2006 26.25C18.4339 26.3667 18.6672 26.4834 18.9006 26.6L19.2506 26.7167C19.6006 26.8334 19.9506 27.0667 20.3006 27.1834C21.0006 27.4167 21.3506 27.5334 21.8172 27.5334C21.9339 27.5334 21.9339 27.5334 22.0506 27.5334C22.8672 27.5334 23.5672 27.1834 24.3839 26.6C25.3172 25.9 26.6006 24.3834 26.9506 23.45C27.3006 22.4 27.1839 21.4667 26.6006 20.7667Z" fill="white"/>
</g>
<defs>
<clipPath id="clip0_140_8">
<rect width="28" height="28" fill="white"/>
</clipPath>
</defs>
</svg>
