<svg width="100" height="100" viewBox="0 0 100 100" fill="none" xmlns="http://www.w3.org/2000/svg">
<rect width="100" height="100" rx="27.5" fill="#2E72AB" fill-opacity="0.4"/>
<path d="M75.0657 50.9248C74.5071 52.4132 73.1233 53.375 71.5388 53.375H70.2495V71.9375C70.2495 72.869 69.4935 73.625 68.562 73.625H58.437V61.8125C58.437 57.1601 54.652 53.375 49.9995 53.375C45.3471 53.375 41.562 57.1601 41.562 61.8125V73.625H31.437C30.5055 73.625 29.7495 72.869 29.7495 71.9375V53.375H28.4586C26.874 53.375 25.4903 52.4148 24.9317 50.9265C24.3732 49.4381 24.7832 47.8012 25.978 46.7583L45.6863 28.0946C48.1062 25.8047 51.8946 25.8047 54.3128 28.0946L74.0683 46.8022C75.2125 47.7995 75.6242 49.4364 75.0657 50.9248Z" fill="#173B59"/>
</svg>
