<svg width="100" height="100" viewBox="0 0 100 100" fill="none" xmlns="http://www.w3.org/2000/svg">
<rect width="100" height="100" rx="27.5" fill="#2E72AB" fill-opacity="0.4"/>
<g clip-path="url(#clip0_55_421)">
<path d="M55.037 54.7632L49.5 60.3002H44.6V65.2002H39.7V70.1002L34.8 75.0002H25V65.2002L45.237 44.9632C44.2857 41.8271 44.4096 38.4631 45.5891 35.4056C46.7686 32.348 48.9359 29.7723 51.7468 28.0875C54.5577 26.4027 57.851 25.7055 61.1035 26.1067C64.356 26.5078 67.3812 27.9843 69.6985 30.3016C72.0158 32.6189 73.4923 35.6441 73.8935 38.8966C74.2947 42.1492 73.5975 45.4425 71.9127 48.2534C70.2279 51.0643 67.6522 53.2316 64.5946 54.4111C61.5371 55.5905 58.1731 55.7145 55.037 54.7632ZM66.944 43.4442C67.9706 42.4163 68.6696 41.1072 68.9527 39.6823C69.2357 38.2574 69.0902 36.7806 68.5344 35.4383C67.9786 34.0961 67.0376 32.9486 65.8301 32.1409C64.6225 31.3332 63.2028 30.9015 61.75 30.9002C59.8013 30.9019 57.9331 31.6774 56.556 33.0562L66.944 43.4442Z" fill="#173B59"/>
</g>
<defs>
<clipPath id="clip0_55_421">
<rect width="49" height="49" fill="white" transform="translate(25 26)"/>
</clipPath>
</defs>
</svg>
