<svg width="100" height="100" viewBox="0 0 100 100" fill="none" xmlns="http://www.w3.org/2000/svg">
<rect width="100" height="100" rx="27.5" fill="#2E72AB" fill-opacity="0.4"/>
<path d="M66.8946 25.8333H42.7739C40.089 25.8333 37.9164 28.0059 37.9164 30.6908V44.3136L26.5532 55.5317C26.2128 55.8685 25.98 56.2988 25.8845 56.768C25.789 57.2372 25.835 57.7243 26.0168 58.1673C26.1986 58.6103 26.5079 58.9894 26.9054 59.2563C27.303 59.5233 27.7709 59.6661 28.2497 59.6666V71.75C28.2497 72.3909 28.5043 73.0056 28.9576 73.4588C29.4108 73.912 30.0255 74.1666 30.6664 74.1666H69.3331C69.974 74.1666 70.5887 73.912 71.0419 73.4588C71.4951 73.0056 71.7497 72.3909 71.7497 71.75V30.6884C71.7497 28.0059 69.5796 25.8333 66.8946 25.8333ZM47.3946 57.5182V69.3333H33.0831V55.8773L40.3016 48.7506L47.3946 56.0078V57.5182ZM52.4164 42.75H47.5831V37.9166H52.4164V42.75ZM62.0831 62.0833H57.2497V57.25H62.0831V62.0833ZM62.0831 52.4166H57.2497V47.5833H62.0831V52.4166ZM62.0831 42.75H57.2497V37.9166H62.0831V42.75Z" fill="#173B59"/>
<path d="M37.917 57.25H42.7503V62.0833H37.917V57.25Z" fill="#173B59"/>
</svg>
