<svg width="100" height="100" viewBox="0 0 100 100" fill="none" xmlns="http://www.w3.org/2000/svg">
<rect width="100" height="100" rx="27.5" fill="#2E72AB" fill-opacity="0.4"/>
<g clip-path="url(#clip0_55_423)">
<path d="M57.6558 35.3462V35.7172C57.6558 36.81 58.5418 37.696 59.6346 37.696C60.7269 37.696 61.6129 36.81 61.6129 35.7172V35.0165C61.6129 34.8604 61.5931 34.709 61.5587 34.5633C61.5592 34.5633 61.5597 34.5633 61.5602 34.5633C61.5602 34.5633 61.5602 34.5626 61.5602 34.5621C61.5563 34.5453 61.5501 34.5292 61.5456 34.5126C61.535 34.4721 61.5239 34.4315 61.5108 34.3919C61.5021 34.3667 61.4929 34.3425 61.4833 34.3177C61.4702 34.2824 61.4568 34.2475 61.4412 34.2131C61.4286 34.1844 61.4148 34.1567 61.4007 34.129C61.3866 34.1008 61.3722 34.0724 61.3567 34.0449C61.3388 34.0137 61.3205 33.9838 61.301 33.9539C61.2864 33.9309 61.2716 33.9079 61.256 33.8854C61.2342 33.8545 61.2115 33.8248 61.1885 33.7953C61.1726 33.7748 61.1566 33.7545 61.1397 33.735C61.1155 33.7065 61.0905 33.6791 61.0648 33.6524C61.046 33.6328 61.0277 33.6138 61.0081 33.5952C60.9832 33.5707 60.9569 33.5472 60.93 33.5242C60.9077 33.5049 60.8855 33.4859 60.863 33.4676C60.8372 33.4476 60.8118 33.4285 60.7855 33.41C60.7591 33.3909 60.7324 33.3724 60.7049 33.3546C60.6802 33.3387 60.6557 33.3239 60.6304 33.309C60.6 33.2912 60.5691 33.2739 60.5377 33.2578C60.5132 33.2452 60.4885 33.2336 60.4632 33.222C60.4303 33.2069 60.3977 33.1921 60.3643 33.1789C60.3378 33.1683 60.3109 33.1589 60.2839 33.1495C60.2513 33.1381 60.2184 33.1272 60.1852 33.1176C60.1548 33.1087 60.1239 33.1013 60.093 33.0939C60.0625 33.0867 60.0321 33.0793 60.0009 33.0736C59.9648 33.0669 59.9287 33.0617 59.8921 33.057C59.8652 33.0535 59.8379 33.0498 59.8105 33.0474C59.7704 33.0436 59.7303 33.0422 59.6898 33.0412C59.6715 33.0407 59.6537 33.0385 59.6346 33.0385C59.6265 33.0385 59.6188 33.0394 59.6104 33.0397C59.5738 33.0402 59.5369 33.0427 59.5003 33.0451C59.4679 33.0474 59.4355 33.0493 59.4038 33.0528C59.3766 33.0563 59.3489 33.061 59.3215 33.0654C59.2804 33.0718 59.2399 33.0788 59.1998 33.0877C59.1934 33.0892 59.1867 33.0897 59.18 33.0914C57.1597 33.5688 55.0518 33.7483 53.0688 33.7478C52.9567 33.7478 52.8457 33.7466 52.7344 33.7456V35.3467H57.6558V35.3462Z" fill="#173B59"/>
<path d="M38.119 31.1306C41.1927 31.1306 43.6843 28.639 43.6843 25.5653C43.6843 22.4917 41.1927 20 38.119 20C35.0454 20 32.5537 22.4917 32.5537 25.5653C32.5537 28.639 35.0454 31.1306 38.119 31.1306Z" fill="#173B59"/>
<path d="M72.3187 40.6381H58.1373V39.3042H56.4885V40.6381H53.9668V57.4014H77.9113V40.6381H73.9678V39.3042H72.319L72.3187 40.6381ZM76.9216 56.412H54.9559V41.6278H76.9216V56.412Z" fill="#173B59"/>
<path d="M62.3657 46.3338H63.4909V45.7476H62.3657V45.2406H63.6828V44.6168H61.4648V47.5204H62.3657V46.3338Z" fill="#173B59"/>
<path d="M64.7747 47.4132C64.9892 47.5176 65.2603 47.5698 65.5878 47.5698C65.9101 47.5698 66.1792 47.5095 66.3951 47.3888C66.611 47.268 66.7758 47.0986 66.8903 46.8814C67.0043 46.6643 67.0617 46.386 67.0617 46.0466C67.0617 45.5792 66.9309 45.2158 66.6694 44.9563C66.4075 44.6971 66.0355 44.5673 65.5524 44.5673C65.081 44.5673 64.7132 44.6993 64.449 44.9635C64.1851 45.2277 64.0527 45.5967 64.0527 46.0706C64.0527 46.41 64.1195 46.6925 64.2528 46.9183C64.3862 47.1439 64.56 47.3089 64.7747 47.4132ZM65.1148 45.4387C65.2239 45.3105 65.3694 45.2465 65.5502 45.2465C65.7391 45.2465 65.8888 45.3096 65.9989 45.4357C66.1089 45.5618 66.1641 45.7615 66.1641 46.0348C66.1641 46.3595 66.1114 46.5846 66.0055 46.71C65.9002 46.8354 65.751 46.8983 65.5581 46.8983C65.3706 46.8983 65.2224 46.834 65.1136 46.7063C65.0043 46.5782 64.9499 46.3677 64.9499 46.0743C64.9501 45.7788 65.005 45.5665 65.1148 45.4387Z" fill="#173B59"/>
<path d="M68.4582 46.3418H68.5374C68.619 46.3418 68.6925 46.3643 68.7573 46.409C68.8045 46.4434 68.8587 46.5179 68.9195 46.6329L69.3991 47.5201H70.4128L69.9784 46.6789C69.9571 46.6366 69.9151 46.5765 69.8523 46.4986C69.7899 46.4207 69.7422 46.3697 69.7088 46.346C69.6601 46.3101 69.5822 46.2747 69.4756 46.2389C69.6089 46.2084 69.7143 46.1703 69.7904 46.1241C69.9106 46.0514 70.0054 45.9566 70.0741 45.8401C70.1427 45.7231 70.177 45.5841 70.177 45.4231C70.177 45.2383 70.132 45.0815 70.0422 44.9529C69.9529 44.824 69.8345 44.736 69.688 44.6885C69.5411 44.641 69.3291 44.6172 69.0519 44.6172H67.5566V47.5206H68.458V46.3418H68.4582ZM68.4582 45.203H68.852C69.0157 45.203 69.1273 45.2282 69.1869 45.2782C69.2463 45.3284 69.2762 45.4003 69.2762 45.4941C69.2762 45.5574 69.2574 45.6133 69.2196 45.6623C69.182 45.7113 69.1335 45.7417 69.0741 45.7536C68.9561 45.78 68.877 45.7931 68.8364 45.7931H68.4582V45.203Z" fill="#173B59"/>
<path d="M80.0001 38.8091V35.8409H62.1022C62.0369 37.1471 60.9568 38.1904 59.6345 38.1904C58.3131 38.1904 57.233 37.1469 57.1677 35.8409H52.2395V33.3684H49.2713V35.8409H46.5518V38.8091H49.2716V39.304V77.89H52.2398V39.3043V38.8093L80.0001 38.8091Z" fill="#173B59"/>
<path d="M27.271 60.354L31.4294 57.5372V75.6084C31.4294 77.2977 32.7989 78.6663 34.4873 78.6663C36.1762 78.6663 37.5458 77.2977 37.5458 75.6084V53.2801H38.6922V75.6084C38.6922 77.2977 40.0613 78.6663 41.7497 78.6663C43.4386 78.6663 44.8082 77.2977 44.8082 75.6084V36.8678C45.1807 36.9425 45.5984 37.0207 46.0565 37.0981V35.8411V35.3464H46.5517H48.7763V33.4896C47.9482 33.3928 47.1923 33.2791 46.5369 33.165C45.6993 33.0196 45.0236 32.8739 44.5635 32.7671C44.334 32.7131 44.1579 32.6694 44.0431 32.6394C43.9852 32.6246 43.9429 32.6135 43.9162 32.6063C43.8898 32.5991 43.8858 32.5981 43.8858 32.5981C43.6055 32.5195 43.3231 32.5068 43.053 32.5482C43.0013 32.5437 42.9496 32.5402 42.8964 32.5402H33.6597C33.6582 32.54 33.6567 32.5397 33.6553 32.5395C33.5811 32.5303 33.4631 32.52 33.306 32.52C32.6025 32.5002 30.9846 32.793 29.5463 34.2974C28.2873 35.6019 27.1928 37.6601 26.5035 40.9493C26.4035 41.4274 26.3118 41.931 26.2291 42.4626C26.2291 42.4638 26.2287 42.4651 26.2287 42.4663V42.4658C25.9261 44.4245 25.7498 46.7679 25.7498 49.5929C25.7498 51.0408 25.7963 52.6164 25.8967 54.3318C25.9585 55.383 26.8304 56.1946 27.8705 56.1946C27.9096 56.1946 27.9487 56.1936 27.988 56.1911C29.0788 56.1273 29.9112 55.1906 29.8476 54.0998C29.7504 52.4547 29.7071 50.9562 29.7076 49.5926C29.7071 46.9366 29.8738 44.7921 30.1385 43.077C30.139 43.0745 30.1397 43.072 30.14 43.0693C30.2176 42.564 30.3044 42.1005 30.397 41.6688C30.698 40.2647 31.0658 39.2364 31.4299 38.4904V46.1852L30.2614 46.9767C30.2471 47.2777 30.2357 47.5849 30.2265 47.8966L31.3248 47.1525L35.7629 53.7058L27.4696 59.3233L23.0309 52.7698L25.2769 51.2486C25.2702 50.9498 25.2647 50.6545 25.262 50.3624L22 52.5719L27.271 60.354ZM38.1191 50.5182L35.7693 47.55L37.1231 37.5767C37.4439 37.6969 37.7813 37.7598 38.1186 37.7595H38.1191C38.1191 37.7595 38.1201 37.7595 38.1206 37.7595C38.4578 37.7595 38.7951 37.6967 39.1152 37.5765L40.4684 47.55L38.1191 50.5182ZM37.179 34.5643H38.1191H39.0588L39.5288 36.4194L39.4573 36.5322C39.0702 36.8552 38.5958 37.017 38.1186 37.0175C37.6418 37.017 37.1683 36.8555 36.7812 36.5334L36.709 36.4194L37.179 34.5643Z" fill="#173B59"/>
<path d="M30.7734 49.5313L30.3682 49.8147L33.0914 53.7088L33.4966 53.4254L30.7734 49.5313Z" fill="#173B59"/>
<path d="M31.7636 54.6009L30.2627 52.4517C30.2748 52.7567 30.2887 53.0649 30.3047 53.3763L31.3579 54.8841L31.7636 54.6009Z" fill="#173B59"/>
<path d="M58.4184 51.3963H58.5354C58.6566 51.3963 58.7649 51.4294 58.8607 51.4957C58.9311 51.5467 59.0108 51.6567 59.1008 51.8267L59.81 53.1386H61.3091L60.6665 51.8947C60.6356 51.8324 60.5733 51.7436 60.4805 51.6283C60.3878 51.5128 60.3173 51.4378 60.2686 51.4025C60.1961 51.3498 60.0811 51.2969 59.9235 51.2439C60.1206 51.1989 60.2757 51.1425 60.3888 51.0742C60.5666 50.9666 60.7066 50.8266 60.808 50.654C60.9094 50.4811 60.9601 50.2758 60.9601 50.0376C60.9601 49.7643 60.8939 49.5323 60.761 49.3418C60.6282 49.1514 60.4538 49.0213 60.2369 48.951C60.0205 48.8808 59.7068 48.8456 59.2967 48.8456H57.0859V53.1386H58.4184V51.3963ZM58.4184 49.7123H59.0009C59.2431 49.7123 59.408 49.7494 59.4961 49.8234C59.5837 49.8979 59.6274 50.004 59.6274 50.1427C59.6274 50.2365 59.6 50.3196 59.5443 50.3916C59.4882 50.464 59.4167 50.5091 59.3289 50.5264C59.155 50.5654 59.038 50.585 58.9776 50.585H58.4182L58.4184 49.7123Z" fill="#173B59"/>
<path d="M63.06 51.3201H65.1243V50.4445H63.06V49.7621H65.2851V48.8456H61.7305V53.1386H65.3499V52.1665H63.06V51.3201Z" fill="#173B59"/>
<path d="M66.0732 53.1386H67.3206V50.7814L68.9284 53.1386H70.179V48.8456H68.9284V51.2207L67.3117 48.8456H66.0732V53.1386Z" fill="#173B59"/>
<path d="M72.1115 53.1386H73.4381V49.9055H74.7913V48.8456H70.7588V49.9055H72.1115V53.1386Z" fill="#173B59"/>
</g>
<defs>
<clipPath id="clip0_55_423">
<rect width="58" height="58.6666" fill="white" transform="translate(22 20)"/>
</clipPath>
</defs>
</svg>
