<svg width="100" height="100" viewBox="0 0 100 100" fill="none" xmlns="http://www.w3.org/2000/svg">
<rect width="100" height="100" rx="27.5" fill="#2E72AB" fill-opacity="0.4"/>
<g clip-path="url(#clip0_55_424)">
<path d="M64.4806 30.0781C63.8891 30.0781 63.4917 30.1354 63.2842 30.1928V33.9787C63.5297 34.0344 63.8343 34.0555 64.2528 34.0555C65.7918 34.0555 66.7444 33.275 66.7444 31.963C66.7452 30.7818 65.926 30.0781 64.4806 30.0781Z" fill="#173B59"/>
<path d="M74.2825 22.6809H55.1749C53.7118 22.6809 52.5264 23.8006 52.5264 25.1818V43.2228C52.5264 44.6041 53.711 45.7237 55.1749 45.7237H74.2825C75.7421 45.7237 76.931 44.6041 76.931 43.2228V25.1818C76.931 23.8006 75.743 22.6809 74.2825 22.6809ZM68.4378 34.9288C67.4489 35.8603 65.9842 36.2796 64.2705 36.2796C63.89 36.2796 63.55 36.2619 63.285 36.2248V40.808H60.4112V28.1568C61.3047 28.005 62.5602 27.8919 64.3287 27.8919C66.1166 27.8919 67.3924 28.2345 68.2488 28.9188C69.0681 29.5651 69.6182 30.6307 69.6182 31.8871C69.6174 33.1409 69.1972 34.2065 68.4378 34.9288Z" fill="#173B59"/>
<path d="M69.2088 48.287H28.1739L36.6882 33.5788C36.6882 33.5788 36.9961 32.9747 38.4322 32.9747H47.2418C47.2418 32.9747 49.3318 33.1164 49.255 31.6677C49.1774 30.899 48.7546 30.3725 47.8442 30.3725C46.9465 30.3725 36.1237 30.3725 36.1237 30.3725C36.1237 30.3725 35.5719 30.3978 34.9686 31.4373C34.4303 32.3604 26.9024 45.4022 25.2233 48.3258C24.0049 48.5444 23.0684 49.7366 23.0684 51.1853V64.5343C23.0684 66.1501 24.2108 67.4326 25.6207 67.4326H28.1722V73.8316C28.1722 74.6272 28.686 75.2685 29.3273 75.2685H33.4431C34.0709 75.2685 34.5965 74.6272 34.5965 73.8316V67.4326H60.2946V73.8839C60.2946 74.6787 60.8068 75.3199 61.437 75.3199H65.5005C66.1283 75.3199 66.643 74.6787 66.643 73.8839V67.4326H69.2071C70.6179 67.4326 71.7595 66.1501 71.7595 64.5343V51.1853C71.7612 49.5822 70.6196 48.287 69.2088 48.287ZM32.6635 62.2713C30.2293 62.2713 28.2549 60.297 28.2549 57.8627C28.2549 55.4277 30.2284 53.4542 32.6635 53.4542C35.0985 53.4542 37.0712 55.4277 37.0712 57.8627C37.0712 60.297 35.0977 62.2713 32.6635 62.2713ZM62.2968 62.2713C59.8626 62.2713 57.8882 60.297 57.8882 57.8627C57.8882 55.4277 59.8626 53.4542 62.2968 53.4542C64.731 53.4542 66.7037 55.4277 66.7037 57.8627C66.7037 60.297 64.731 62.2713 62.2968 62.2713Z" fill="#173B59"/>
</g>
<defs>
<clipPath id="clip0_55_424">
<rect width="54" height="54" fill="white" transform="translate(23 22)"/>
</clipPath>
</defs>
</svg>
