<svg width="100" height="100" viewBox="0 0 100 100" fill="none" xmlns="http://www.w3.org/2000/svg">
<rect width="100" height="100" rx="27.5" fill="#2E72AB" fill-opacity="0.4"/>
<path d="M71.9643 23L65.9609 29.0033L74.9624 38.0048L80.9657 32.0015L71.9643 23Z" fill="#173B59"/>
<path d="M57.0761 55.8869L59.9561 53.0069L50.9561 44.0069L40.9561 54.0069V56.5369C41.5464 56.0097 42.2352 55.6044 42.9828 55.3446C43.7305 55.0847 44.5221 54.9753 45.3122 55.0227C46.1023 55.0701 46.8752 55.2734 47.5864 55.6208C48.2976 55.9682 48.933 56.4529 49.4561 57.0469C50.3877 55.9894 51.6619 55.2936 53.0552 55.0815C54.4484 54.8694 55.8719 55.1546 57.0761 55.8869Z" fill="#173B59"/>
<path d="M68.9528 32.0173L53.9551 47.015L56.9532 50.0131L71.9509 35.0154L68.9528 32.0173Z" fill="#173B59"/>
<path d="M73.9563 71.0069C75.8128 71.0069 77.5933 70.2694 78.9061 68.9567C80.2188 67.6439 80.9563 65.8634 80.9563 64.0069C80.9563 62.1504 80.2188 60.3699 78.9061 59.0572C77.5933 57.7444 75.8128 57.0069 73.9563 57.0069C73.6418 57.01 73.3278 57.0334 73.0163 57.0769C72.1434 56.3903 71.0668 56.0139 69.9563 56.0069C69.7012 56.0133 69.4471 56.04 69.1963 56.0869C68.6377 55.087 67.8046 54.2679 66.7954 53.7263C65.7862 53.1847 64.643 52.9433 63.501 53.0306C62.359 53.1178 61.2658 53.5302 60.3506 54.2188C59.4354 54.9075 58.7365 55.8437 58.3363 56.9169C57.7677 56.3039 57.0772 55.8164 56.3092 55.4859C55.5412 55.1553 54.7125 54.9889 53.8764 54.9974C53.0403 55.0059 52.2152 55.189 51.454 55.5351C50.6928 55.8811 50.0124 56.3825 49.4563 57.0069C48.8105 56.2754 47.996 55.7125 47.0834 55.3669C46.1709 55.0213 45.1878 54.9035 44.2195 55.0237C43.2511 55.1438 42.3266 55.4984 41.5263 56.0566C40.7259 56.6148 40.0737 57.3597 39.6263 58.2269C38.93 57.6893 38.124 57.3114 37.2654 57.1199C36.4068 56.9284 35.5166 56.9281 34.6579 57.1189C33.7991 57.3098 32.9928 57.6871 32.2961 58.2242C31.5994 58.7613 31.0294 59.445 30.6263 60.2269C29.8692 59.6526 28.9866 59.2663 28.051 59.0999C27.1155 58.9334 26.1537 58.9915 25.245 59.2695C24.3363 59.5474 23.5067 60.0372 22.8243 60.6986C22.1419 61.3599 21.6264 62.1738 21.3201 63.0734C21.0139 63.973 20.9257 64.9324 21.0628 65.8727C21.1999 66.813 21.5583 67.7073 22.1087 68.482C22.659 69.2567 23.3855 69.8895 24.2283 70.3285C25.0711 70.7675 26.0061 71 26.9563 71.0069H73.9563Z" fill="#173B59"/>
<path d="M73.9563 71.0069C75.8128 71.0069 77.5933 70.2694 78.9061 68.9567C80.2188 67.6439 80.9563 65.8634 80.9563 64.0069C80.9563 62.1504 80.2188 60.3699 78.9061 59.0572C77.5933 57.7444 75.8128 57.0069 73.9563 57.0069C73.6418 57.01 73.3278 57.0334 73.0163 57.0769C72.1434 56.3903 71.0668 56.0139 69.9563 56.0069C69.7012 56.0133 69.4471 56.04 69.1963 56.0869C68.6377 55.087 67.8046 54.2679 66.7954 53.7263C65.7862 53.1847 64.643 52.9433 63.501 53.0306C62.359 53.1178 61.2658 53.5302 60.3506 54.2188C59.4354 54.9075 58.7365 55.8437 58.3363 56.9169C57.7677 56.3039 57.0772 55.8164 56.3092 55.4859C55.5412 55.1553 54.7125 54.9889 53.8764 54.9974C53.0403 55.0059 52.2152 55.189 51.454 55.5351C50.6928 55.8811 50.0124 56.3825 49.4563 57.0069C48.8105 56.2754 47.996 55.7125 47.0834 55.3669C46.1709 55.0213 45.1878 54.9035 44.2195 55.0237C43.2511 55.1438 42.3266 55.4984 41.5263 56.0566C40.7259 56.6148 40.0737 57.3597 39.6263 58.2269C38.93 57.6893 38.124 57.3114 37.2654 57.1199C36.4068 56.9284 35.5166 56.9281 34.6579 57.1189C33.7991 57.3098 32.9928 57.6871 32.2961 58.2242C31.5994 58.7613 31.0294 59.445 30.6263 60.2269C29.8692 59.6526 28.9866 59.2663 28.051 59.0999C27.1155 58.9334 26.1537 58.9915 25.245 59.2695C24.3363 59.5474 23.5067 60.0372 22.8243 60.6986C22.1419 61.3599 21.6264 62.1738 21.3201 63.0734C21.0139 63.973 20.9257 64.9324 21.0628 65.8727C21.1999 66.813 21.5583 67.7073 22.1087 68.482C22.659 69.2567 23.3855 69.8895 24.2283 70.3285C25.0711 70.7675 26.0061 71 26.9563 71.0069H73.9563Z" fill="#173B59"/>
<path d="M73.9561 61.0069C74.7517 61.0069 75.5148 61.323 76.0774 61.8856C76.64 62.4482 76.9561 63.2113 76.9561 64.0069C76.9561 64.8026 76.64 65.5656 76.0774 66.1282C75.5148 66.6909 74.7517 67.0069 73.9561 67.0069" fill="#173B59"/>
<path d="M71.9643 23L65.9609 29.0033L74.9624 38.0048L80.9657 32.0015L71.9643 23Z" fill="#173B59"/>
<path d="M68.9561 32.0069L53.9561 47.0069L56.9561 50.0069L71.9561 35.0069" fill="#173B59"/>
<path d="M56.9561 56.0069L59.9561 53.0069L56.9561 50.0069" fill="#173B59"/>
<path d="M53.9561 47.0069L50.9561 44.0069L40.9561 54.0069V57.0069" fill="#173B59"/>
</svg>
