<svg width="614" height="613" viewBox="0 0 614 613" fill="none" xmlns="http://www.w3.org/2000/svg">
<g filter="url(#filter0_d_1_24)">
<circle cx="307" cy="84.5" r="82.5" fill="#6A94C6"/>
</g>
<g filter="url(#filter1_d_1_24)">
<circle cx="307" cy="524.5" r="82.5" fill="#6A94C6"/>
</g>
<g filter="url(#filter2_d_1_24)">
<circle cx="527" cy="304.5" r="82.5" fill="#6A94C6"/>
</g>
<g filter="url(#filter3_d_1_24)">
<circle cx="87" cy="304.5" r="82.5" fill="#6A94C6"/>
</g>
<g filter="url(#filter4_d_1_24)">
<circle cx="307" cy="304.5" r="61.5" fill="#6A94C6"/>
</g>
<g filter="url(#filter5_d_1_24)">
<path d="M280.9 201.255V225.236H300.421V201.255H307C299.563 193.818 290.686 184.764 290.686 184.764L274.277 201.255H280.9Z" fill="#CCE8F4"/>
</g>
<g filter="url(#filter6_d_1_24)">
<path d="M203.755 330.6L227.736 330.6L227.736 311.079L203.755 311.079L203.755 304.5C196.318 311.937 187.264 320.814 187.264 320.814L203.755 337.223L203.755 330.6Z" fill="#CCE8F4"/>
</g>
<g filter="url(#filter7_d_1_24)">
<path d="M402.755 330.6L426.736 330.6L426.736 311.079L402.755 311.079L402.755 304.5C395.318 311.937 386.264 320.814 386.264 320.814L402.755 337.223L402.755 330.6Z" fill="#CCE8F4"/>
</g>
<g filter="url(#filter8_d_1_24)">
<path d="M280.9 400.255V424.236H300.421V400.255H307C299.563 392.818 290.686 383.764 290.686 383.764L274.277 400.255H280.9Z" fill="#CCE8F4"/>
</g>
<g filter="url(#filter9_d_1_24)">
<path d="M313.623 208.745V184.764H333.144V208.745H339.723C332.286 216.182 323.409 225.236 323.409 225.236L307 208.745H313.623Z" fill="#CCE8F4"/>
</g>
<g filter="url(#filter10_d_1_24)">
<path d="M211.245 297.877L187.264 297.877L187.264 278.356L211.245 278.356L211.245 271.777C218.682 279.214 227.736 288.091 227.736 288.091L211.245 304.5L211.245 297.877Z" fill="#CCE8F4"/>
</g>
<g filter="url(#filter11_d_1_24)">
<path d="M410.245 297.877L386.264 297.877L386.264 278.356L410.245 278.356L410.245 271.777C417.682 279.214 426.736 288.091 426.736 288.091L410.245 304.5L410.245 297.877Z" fill="#CCE8F4"/>
</g>
<g filter="url(#filter12_d_1_24)">
<path d="M313.623 407.745V383.764H333.144V407.745H339.723C332.286 415.182 323.409 424.236 323.409 424.236L307 407.745H313.623Z" fill="#CCE8F4"/>
</g>
<path d="M270.619 94V90.7869L271.154 90.7408C271.844 90.6854 272.401 90.4238 272.825 89.956C273.25 89.482 273.567 88.728 273.776 87.6939C273.992 86.6536 274.13 85.2564 274.192 83.5021L274.506 75.0909H287.339V94H283.452V78.2947H278.217L277.922 84.8778C277.823 86.9953 277.571 88.7249 277.165 90.0668C276.765 91.4086 276.125 92.3996 275.244 93.0398C274.37 93.6799 273.173 94 271.653 94H270.619ZM298.401 85.4226V88.5433H290.71V85.4226H298.401ZM293.747 79.8182V94H289.823V79.8182H293.747ZM302.648 94.277C301.244 94.277 300.032 93.9631 299.01 93.3352C297.988 92.7074 297.2 91.8395 296.646 90.7315C296.098 89.6236 295.825 88.3525 295.825 86.9183C295.825 85.4841 296.098 84.2192 296.646 83.1236C297.2 82.0279 297.988 81.1723 299.01 80.5568C300.032 79.9413 301.244 79.6335 302.648 79.6335C304.057 79.6335 305.27 79.9413 306.286 80.5568C307.307 81.1723 308.092 82.0279 308.64 83.1236C309.194 84.2192 309.471 85.4841 309.471 86.9183C309.471 88.3525 309.194 89.6236 308.64 90.7315C308.092 91.8395 307.307 92.7074 306.286 93.3352C305.27 93.9631 304.057 94.277 302.648 94.277ZM302.648 91.1009C303.38 91.1009 303.971 90.9223 304.42 90.5653C304.87 90.2022 305.199 89.7067 305.408 89.0788C305.618 88.4448 305.722 87.7247 305.722 86.9183C305.722 86.112 305.618 85.398 305.408 84.7763C305.199 84.1484 304.87 83.656 304.42 83.299C303.971 82.942 303.38 82.7635 302.648 82.7635C301.921 82.7635 301.33 82.942 300.875 83.299C300.42 83.6499 300.084 84.1361 299.869 84.7578C299.659 85.3795 299.555 86.0997 299.555 86.9183C299.555 87.7308 299.659 88.451 299.869 89.0788C300.084 89.7067 300.42 90.2022 300.875 90.5653C301.33 90.9223 301.921 91.1009 302.648 91.1009ZM311.036 98.1548V90.8793H312.125C312.439 90.6823 312.692 90.3684 312.882 89.9375C313.079 89.5066 313.239 88.9988 313.363 88.4141C313.492 87.8293 313.59 87.1984 313.658 86.5213C313.732 85.8381 313.797 85.1487 313.852 84.4531L314.221 79.8182H325.098V90.8793H327.295V98.1548H323.547V94H314.877V98.1548H311.036ZM316.04 90.8793H321.386V82.8466H317.564L317.416 84.4531C317.311 85.9673 317.16 87.2538 316.963 88.3125C316.766 89.3651 316.459 90.2206 316.04 90.8793ZM333.345 88.8111L338.451 79.8182H342.329V94H338.58V84.9794L333.493 94H329.587V79.8182H333.345V88.8111Z" fill="white"/>
<path d="M486.643 314V295.091H499.191V298.387H490.641V302.08H493.716C495.212 302.08 496.501 302.323 497.585 302.81C498.674 303.29 499.514 303.97 500.105 304.85C500.696 305.73 500.991 306.768 500.991 307.962C500.991 309.15 500.696 310.199 500.105 311.11C499.514 312.015 498.674 312.723 497.585 313.234C496.501 313.745 495.212 314 493.716 314H486.643ZM490.641 310.787H493.716C494.43 310.787 495.033 310.658 495.526 310.399C496.018 310.134 496.39 309.787 496.643 309.356C496.901 308.919 497.031 308.442 497.031 307.925C497.031 307.174 496.744 306.54 496.172 306.023C495.606 305.5 494.787 305.238 493.716 305.238H490.641V310.787ZM503.505 314V299.818H507.438V314H503.505ZM505.481 297.99C504.896 297.99 504.395 297.796 503.976 297.408C503.564 297.014 503.357 296.544 503.357 295.996C503.357 295.454 503.564 294.989 503.976 294.602C504.395 294.208 504.896 294.011 505.481 294.011C506.066 294.011 506.564 294.208 506.977 294.602C507.395 294.989 507.605 295.454 507.605 295.996C507.605 296.544 507.395 297.014 506.977 297.408C506.564 297.796 506.066 297.99 505.481 297.99ZM509.86 309.984H513.673C513.691 310.451 513.901 310.821 514.301 311.092C514.701 311.362 515.218 311.498 515.852 311.498C516.492 311.498 517.031 311.35 517.468 311.055C517.905 310.753 518.123 310.322 518.123 309.762C518.123 309.417 518.037 309.119 517.865 308.866C517.692 308.608 517.452 308.405 517.145 308.257C516.837 308.109 516.48 308.036 516.074 308.036H514.033V305.46H516.074C516.683 305.46 517.151 305.318 517.477 305.035C517.809 304.752 517.975 304.398 517.975 303.973C517.975 303.493 517.803 303.108 517.458 302.819C517.12 302.523 516.661 302.376 516.083 302.376C515.498 302.376 515.012 302.508 514.624 302.773C514.242 303.031 514.045 303.37 514.033 303.788H510.238C510.251 302.939 510.506 302.203 511.005 301.582C511.509 300.96 512.186 300.48 513.036 300.141C513.891 299.803 514.849 299.634 515.907 299.634C517.065 299.634 518.062 299.797 518.899 300.123C519.742 300.443 520.388 300.902 520.838 301.499C521.293 302.096 521.521 302.807 521.521 303.631C521.521 304.382 521.275 305.01 520.782 305.515C520.29 306.02 519.6 306.38 518.714 306.595V306.743C519.299 306.78 519.828 306.937 520.302 307.214C520.776 307.491 521.155 307.872 521.438 308.359C521.721 308.839 521.863 309.408 521.863 310.067C521.863 310.947 521.604 311.701 521.087 312.329C520.576 312.957 519.868 313.44 518.963 313.778C518.065 314.111 517.034 314.277 515.87 314.277C514.738 314.277 513.722 314.114 512.824 313.788C511.931 313.455 511.22 312.969 510.691 312.329C510.167 311.689 509.891 310.907 509.86 309.984ZM534.145 305.339V308.433H526.74V305.339H534.145ZM528.032 299.818V314H524.275V299.818H528.032ZM536.61 299.818V314H532.88V299.818H536.61ZM546.124 314.277C544.666 314.277 543.41 313.982 542.357 313.391C541.311 312.794 540.505 311.95 539.938 310.861C539.372 309.765 539.089 308.469 539.089 306.974C539.089 305.515 539.372 304.235 539.938 303.133C540.505 302.031 541.302 301.172 542.33 300.557C543.364 299.941 544.576 299.634 545.968 299.634C546.903 299.634 547.774 299.784 548.58 300.086C549.393 300.381 550.101 300.828 550.704 301.425C551.313 302.022 551.787 302.773 552.126 303.678C552.464 304.576 552.634 305.629 552.634 306.835V307.915H540.659V305.478H548.931C548.931 304.912 548.808 304.41 548.562 303.973C548.316 303.536 547.974 303.194 547.537 302.948C547.106 302.696 546.605 302.57 546.032 302.57C545.435 302.57 544.906 302.708 544.444 302.985C543.989 303.256 543.632 303.622 543.373 304.084C543.115 304.539 542.982 305.047 542.976 305.607V307.925C542.976 308.626 543.105 309.233 543.364 309.744C543.628 310.254 544.001 310.648 544.481 310.925C544.961 311.202 545.53 311.341 546.189 311.341C546.626 311.341 547.026 311.279 547.389 311.156C547.753 311.033 548.063 310.848 548.322 310.602C548.58 310.356 548.777 310.054 548.913 309.697L552.551 309.938C552.366 310.812 551.987 311.575 551.415 312.227C550.849 312.874 550.116 313.378 549.218 313.741C548.325 314.098 547.294 314.277 546.124 314.277ZM561.608 314.277C560.155 314.277 558.906 313.969 557.86 313.354C556.819 312.732 556.019 311.87 555.459 310.768C554.905 309.667 554.628 308.399 554.628 306.964C554.628 305.512 554.908 304.238 555.468 303.142C556.035 302.04 556.838 301.182 557.878 300.566C558.918 299.944 560.155 299.634 561.59 299.634C562.827 299.634 563.91 299.858 564.84 300.308C565.769 300.757 566.505 301.388 567.046 302.2C567.588 303.013 567.887 303.967 567.942 305.062H564.23C564.126 304.355 563.849 303.785 563.399 303.354C562.956 302.917 562.374 302.699 561.654 302.699C561.045 302.699 560.512 302.865 560.057 303.197C559.608 303.524 559.257 304.001 559.004 304.629C558.752 305.256 558.626 306.017 558.626 306.909C558.626 307.814 558.749 308.583 558.995 309.217C559.248 309.851 559.602 310.335 560.057 310.667C560.512 310.999 561.045 311.165 561.654 311.165C562.104 311.165 562.507 311.073 562.864 310.888C563.227 310.704 563.526 310.436 563.759 310.085C563.999 309.728 564.156 309.3 564.23 308.802H567.942C567.88 309.885 567.585 310.839 567.056 311.664C566.532 312.483 565.809 313.123 564.886 313.585C563.963 314.046 562.87 314.277 561.608 314.277Z" fill="white"/>
<path d="M268.587 298.409V311.5H266.197L260.501 303.261H260.406V311.5H257.638V298.409H260.067L265.717 306.642H265.832V298.409H268.587ZM275.297 311.692C274.287 311.692 273.418 311.487 272.689 311.078C271.965 310.665 271.407 310.081 271.015 309.327C270.623 308.568 270.427 307.671 270.427 306.636C270.427 305.626 270.623 304.739 271.015 303.977C271.407 303.214 271.959 302.619 272.67 302.193C273.386 301.767 274.226 301.554 275.189 301.554C275.836 301.554 276.439 301.658 276.998 301.867C277.56 302.072 278.05 302.381 278.468 302.794C278.89 303.207 279.218 303.727 279.452 304.354C279.687 304.976 279.804 305.705 279.804 306.54V307.288H271.513V305.6H277.241C277.241 305.208 277.155 304.861 276.985 304.558C276.814 304.256 276.578 304.019 276.275 303.849C275.977 303.674 275.63 303.587 275.233 303.587C274.82 303.587 274.454 303.683 274.134 303.874C273.819 304.062 273.572 304.315 273.393 304.635C273.214 304.95 273.122 305.302 273.118 305.69V307.294C273.118 307.78 273.207 308.2 273.386 308.553C273.569 308.907 273.827 309.18 274.16 309.371C274.492 309.563 274.886 309.659 275.342 309.659C275.645 309.659 275.922 309.617 276.173 309.531C276.425 309.446 276.64 309.318 276.819 309.148C276.998 308.977 277.134 308.768 277.228 308.521L279.746 308.688C279.618 309.293 279.356 309.821 278.96 310.273C278.568 310.72 278.061 311.07 277.439 311.321C276.821 311.568 276.107 311.692 275.297 311.692ZM281.581 311.5V301.682H284.221V303.395H284.323C284.502 302.786 284.802 302.325 285.224 302.014C285.646 301.699 286.132 301.541 286.682 301.541C286.818 301.541 286.965 301.55 287.123 301.567C287.28 301.584 287.419 301.607 287.538 301.637V304.053C287.41 304.015 287.233 303.981 287.008 303.951C286.782 303.921 286.575 303.906 286.388 303.906C285.987 303.906 285.629 303.994 285.314 304.168C285.003 304.339 284.756 304.577 284.572 304.884C284.393 305.191 284.304 305.545 284.304 305.945V311.5H281.581ZM290.926 315.182C290.581 315.182 290.257 315.154 289.954 315.099C289.656 315.048 289.409 314.982 289.213 314.901L289.827 312.868C290.146 312.966 290.434 313.019 290.689 313.028C290.949 313.036 291.173 312.977 291.361 312.849C291.552 312.721 291.708 312.504 291.827 312.197L291.987 311.781L288.465 301.682H291.329L293.361 308.892H293.464L295.515 301.682H298.398L294.582 312.561C294.399 313.09 294.15 313.55 293.834 313.942C293.523 314.338 293.129 314.643 292.652 314.856C292.175 315.073 291.599 315.182 290.926 315.182ZM302.067 301.682L303.87 305.114L305.717 301.682H308.51L305.666 306.591L308.587 311.5H305.807L303.87 308.106L301.965 311.5H299.153L302.067 306.591L299.255 301.682H302.067ZM314.212 311.692C313.219 311.692 312.361 311.481 311.636 311.059C310.916 310.633 310.36 310.041 309.968 309.282C309.576 308.519 309.38 307.635 309.38 306.629C309.38 305.615 309.576 304.729 309.968 303.97C310.36 303.207 310.916 302.615 311.636 302.193C312.361 301.767 313.219 301.554 314.212 301.554C315.205 301.554 316.062 301.767 316.782 302.193C317.506 302.615 318.064 303.207 318.456 303.97C318.849 304.729 319.045 305.615 319.045 306.629C319.045 307.635 318.849 308.519 318.456 309.282C318.064 310.041 317.506 310.633 316.782 311.059C316.062 311.481 315.205 311.692 314.212 311.692ZM314.225 309.582C314.677 309.582 315.054 309.455 315.356 309.199C315.659 308.939 315.887 308.585 316.04 308.138C316.198 307.69 316.277 307.181 316.277 306.61C316.277 306.039 316.198 305.53 316.04 305.082C315.887 304.635 315.659 304.281 315.356 304.021C315.054 303.761 314.677 303.631 314.225 303.631C313.769 303.631 313.385 303.761 313.074 304.021C312.768 304.281 312.535 304.635 312.378 305.082C312.224 305.53 312.148 306.039 312.148 306.61C312.148 307.181 312.224 307.69 312.378 308.138C312.535 308.585 312.768 308.939 313.074 309.199C313.385 309.455 313.769 309.582 314.225 309.582ZM320.815 311.5V301.682H323.41V303.414H323.525C323.73 302.839 324.071 302.385 324.548 302.053C325.025 301.72 325.596 301.554 326.261 301.554C326.934 301.554 327.508 301.722 327.981 302.059C328.454 302.391 328.769 302.843 328.927 303.414H329.029C329.229 302.852 329.591 302.402 330.116 302.065C330.644 301.724 331.268 301.554 331.988 301.554C332.905 301.554 333.648 301.846 334.219 302.43C334.795 303.009 335.082 303.832 335.082 304.897V311.5H332.366V305.434C332.366 304.889 332.221 304.479 331.931 304.207C331.641 303.934 331.279 303.798 330.844 303.798C330.35 303.798 329.964 303.955 329.687 304.271C329.41 304.582 329.272 304.993 329.272 305.504V311.5H326.632V305.376C326.632 304.895 326.493 304.511 326.216 304.226C325.944 303.94 325.584 303.798 325.136 303.798C324.834 303.798 324.561 303.874 324.318 304.028C324.079 304.177 323.89 304.388 323.749 304.661C323.608 304.929 323.538 305.244 323.538 305.607V311.5H320.815ZM339.7 308.675L339.707 305.408H340.103L343.248 301.682H346.374L342.149 306.617H341.503L339.7 308.675ZM337.233 311.5V298.409H339.956V311.5H337.233ZM343.369 311.5L340.48 307.224L342.296 305.3L346.559 311.5H343.369ZM350.509 311.685C349.883 311.685 349.325 311.577 348.835 311.359C348.345 311.138 347.957 310.812 347.671 310.381C347.39 309.947 347.249 309.406 347.249 308.758C347.249 308.212 347.35 307.754 347.55 307.384C347.75 307.013 348.023 306.715 348.368 306.489C348.713 306.263 349.105 306.092 349.544 305.977C349.987 305.862 350.452 305.781 350.938 305.734C351.509 305.675 351.969 305.619 352.318 305.568C352.668 305.513 352.921 305.432 353.079 305.325C353.237 305.219 353.316 305.061 353.316 304.852V304.814C353.316 304.409 353.188 304.096 352.932 303.874C352.681 303.653 352.323 303.542 351.858 303.542C351.368 303.542 350.978 303.651 350.688 303.868C350.399 304.081 350.207 304.349 350.113 304.673L347.595 304.469C347.722 303.872 347.974 303.357 348.349 302.922C348.724 302.483 349.208 302.146 349.8 301.912C350.396 301.673 351.087 301.554 351.871 301.554C352.416 301.554 352.938 301.618 353.437 301.746C353.94 301.874 354.385 302.072 354.773 302.34C355.165 302.609 355.474 302.954 355.7 303.376C355.926 303.793 356.039 304.294 356.039 304.878V311.5H353.456V310.139H353.379C353.222 310.445 353.011 310.716 352.747 310.95C352.482 311.18 352.165 311.362 351.794 311.494C351.423 311.621 350.995 311.685 350.509 311.685ZM351.289 309.806C351.69 309.806 352.044 309.727 352.35 309.57C352.657 309.408 352.898 309.19 353.073 308.918C353.247 308.645 353.335 308.336 353.335 307.991V306.949C353.249 307.004 353.132 307.055 352.983 307.102C352.838 307.145 352.674 307.185 352.491 307.224C352.308 307.258 352.124 307.29 351.941 307.32C351.758 307.345 351.592 307.369 351.443 307.39C351.123 307.437 350.844 307.511 350.605 307.614C350.367 307.716 350.181 307.854 350.049 308.029C349.917 308.2 349.851 308.413 349.851 308.668C349.851 309.039 349.985 309.322 350.254 309.518C350.526 309.71 350.872 309.806 351.289 309.806Z" fill="white"/>
<path d="M72.1165 286.211H68.0724C67.9986 285.688 67.8478 285.223 67.62 284.817C67.3923 284.404 67.0999 284.054 66.7429 283.764C66.3859 283.475 65.9735 283.253 65.5057 283.099C65.044 282.946 64.5424 282.869 64.0007 282.869C63.022 282.869 62.1695 283.112 61.4432 283.598C60.7169 284.078 60.1536 284.78 59.7536 285.703C59.3535 286.62 59.1534 287.734 59.1534 289.045C59.1534 290.393 59.3535 291.526 59.7536 292.443C60.1598 293.36 60.7261 294.053 61.4524 294.521C62.1787 294.988 63.0189 295.222 63.973 295.222C64.5085 295.222 65.004 295.152 65.4595 295.01C65.9212 294.868 66.3305 294.662 66.6875 294.391C67.0445 294.114 67.34 293.779 67.5739 293.385C67.8139 292.991 67.9801 292.542 68.0724 292.037L72.1165 292.055C72.0118 292.923 71.7502 293.76 71.3317 294.567C70.9193 295.367 70.3622 296.084 69.6605 296.718C68.965 297.346 68.134 297.844 67.1676 298.214C66.2074 298.577 65.121 298.759 63.9084 298.759C62.2218 298.759 60.7138 298.377 59.3842 297.614C58.0608 296.85 57.0144 295.746 56.245 294.299C55.4818 292.853 55.1001 291.101 55.1001 289.045C55.1001 286.983 55.4879 285.229 56.2635 283.783C57.0391 282.336 58.0916 281.234 59.4212 280.477C60.7507 279.714 62.2464 279.332 63.9084 279.332C65.004 279.332 66.0196 279.486 66.9553 279.794C67.897 280.102 68.7311 280.551 69.4574 281.142C70.1837 281.727 70.7746 282.444 71.2301 283.293C71.6918 284.143 71.9872 285.115 72.1165 286.211ZM74.9833 298.5V279.591H82.4435C83.8716 279.591 85.0903 279.846 86.0998 280.357C87.1154 280.862 87.8879 281.579 88.4173 282.509C88.9528 283.432 89.2205 284.518 89.2205 285.768C89.2205 287.023 88.9497 288.104 88.408 289.009C87.8664 289.907 87.0816 290.597 86.0536 291.077C85.0318 291.557 83.7946 291.797 82.342 291.797H77.3469V288.584H81.6957C82.4589 288.584 83.0929 288.479 83.5977 288.27C84.1024 288.061 84.4779 287.747 84.7241 287.328C84.9764 286.91 85.1026 286.389 85.1026 285.768C85.1026 285.14 84.9764 284.611 84.7241 284.18C84.4779 283.749 84.0993 283.423 83.5884 283.201C83.0837 282.973 82.4466 282.859 81.6772 282.859H78.9812V298.5H74.9833ZM85.195 289.895L89.8945 298.5H85.4812L80.8832 289.895H85.195ZM92.0458 279.591H96.9762L102.184 292.295H102.405L107.613 279.591H112.543V298.5H108.665V286.192H108.508L103.615 298.408H100.974L96.0806 286.146H95.9237V298.5H92.0458V279.591ZM17.0511 325.484H20.8643C20.8828 325.951 21.0921 326.321 21.4922 326.592C21.8923 326.862 22.4093 326.998 23.0433 326.998C23.6835 326.998 24.2221 326.85 24.6591 326.555C25.0961 326.253 25.3146 325.822 25.3146 325.262C25.3146 324.917 25.2285 324.619 25.0561 324.366C24.8838 324.108 24.6437 323.905 24.3359 323.757C24.0282 323.609 23.6712 323.536 23.2649 323.536H21.2244V320.96H23.2649C23.8743 320.96 24.3421 320.818 24.6683 320.535C25.0007 320.252 25.1669 319.898 25.1669 319.473C25.1669 318.993 24.9946 318.608 24.6499 318.319C24.3113 318.023 23.8527 317.876 23.2741 317.876C22.6894 317.876 22.2031 318.008 21.8153 318.273C21.4337 318.531 21.2367 318.87 21.2244 319.288H17.4297C17.442 318.439 17.6974 317.703 18.196 317.082C18.7008 316.46 19.3778 315.98 20.2273 315.641C21.0829 315.303 22.04 315.134 23.0987 315.134C24.2559 315.134 25.2531 315.297 26.0902 315.623C26.9335 315.943 27.5798 316.402 28.0291 316.999C28.4846 317.596 28.7124 318.307 28.7124 319.131C28.7124 319.882 28.4661 320.51 27.9737 321.015C27.4813 321.52 26.7919 321.88 25.9055 322.095V322.243C26.4903 322.28 27.0196 322.437 27.4936 322.714C27.9676 322.991 28.3461 323.372 28.6293 323.859C28.9124 324.339 29.054 324.908 29.054 325.567C29.054 326.447 28.7955 327.201 28.2784 327.829C27.7675 328.457 27.0597 328.94 26.1548 329.278C25.2562 329.611 24.2251 329.777 23.0618 329.777C21.9292 329.777 20.9136 329.614 20.0149 329.288C19.1224 328.955 18.4115 328.469 17.8821 327.829C17.3589 327.189 17.0819 326.407 17.0511 325.484ZM35.5101 329.768C34.6053 329.768 33.7989 329.611 33.0911 329.297C32.3832 328.977 31.8231 328.506 31.4107 327.884C31.0044 327.256 30.8013 326.475 30.8013 325.539C30.8013 324.751 30.946 324.089 31.2353 323.554C31.5246 323.018 31.9185 322.588 32.4171 322.261C32.9157 321.935 33.4819 321.689 34.1159 321.523C34.7561 321.357 35.427 321.24 36.1287 321.172C36.9535 321.086 37.6183 321.006 38.123 320.932C38.6278 320.852 38.994 320.735 39.2218 320.581C39.4495 320.427 39.5634 320.199 39.5634 319.898V319.842C39.5634 319.258 39.3787 318.805 39.0094 318.485C38.6462 318.165 38.1292 318.005 37.4583 318.005C36.7504 318.005 36.1872 318.162 35.7686 318.476C35.3501 318.784 35.0731 319.171 34.9377 319.639L31.2999 319.344C31.4846 318.482 31.8477 317.737 32.3894 317.109C32.931 316.475 33.6297 315.989 34.4853 315.651C35.347 315.306 36.3442 315.134 37.4767 315.134C38.2646 315.134 39.0186 315.226 39.7388 315.411C40.4651 315.595 41.1084 315.881 41.6685 316.269C42.2348 316.657 42.681 317.156 43.0073 317.765C43.3335 318.368 43.4966 319.091 43.4966 319.935V329.5H39.7665V327.533H39.6557C39.428 327.977 39.1233 328.367 38.7417 328.706C38.36 329.038 37.9015 329.3 37.3659 329.491C36.8304 329.675 36.2118 329.768 35.5101 329.768ZM36.6365 327.053C37.2151 327.053 37.726 326.939 38.1692 326.712C38.6124 326.478 38.9602 326.164 39.2125 325.77C39.4649 325.376 39.5911 324.93 39.5911 324.431V322.926C39.468 323.006 39.2987 323.08 39.0833 323.148C38.874 323.209 38.637 323.268 38.3723 323.323C38.1077 323.372 37.843 323.419 37.5783 323.462C37.3136 323.499 37.0736 323.532 36.8581 323.563C36.3965 323.631 35.9933 323.739 35.6486 323.886C35.3039 324.034 35.0362 324.234 34.8453 324.487C34.6545 324.733 34.5591 325.04 34.5591 325.41C34.5591 325.945 34.753 326.355 35.1408 326.638C35.5347 326.915 36.0333 327.053 36.6365 327.053ZM54.9316 325.151L58.7726 315.318H61.764L56.2335 329.5H53.6206L48.2193 315.318H51.2015L54.9316 325.151ZM50.3059 315.318V329.5H46.5481V315.318H50.3059ZM59.7512 329.5V315.318H63.4629V329.5H59.7512ZM72.9128 329.777C71.4786 329.777 70.2383 329.472 69.1919 328.863C68.1517 328.247 67.3484 327.392 66.7821 326.296C66.2158 325.194 65.9327 323.917 65.9327 322.464C65.9327 321 66.2158 319.719 66.7821 318.624C67.3484 317.522 68.1517 316.666 69.1919 316.057C70.2383 315.441 71.4786 315.134 72.9128 315.134C74.347 315.134 75.5842 315.441 76.6245 316.057C77.6709 316.666 78.4772 317.522 79.0435 318.624C79.6098 319.719 79.8929 321 79.8929 322.464C79.8929 323.917 79.6098 325.194 79.0435 326.296C78.4772 327.392 77.6709 328.247 76.6245 328.863C75.5842 329.472 74.347 329.777 72.9128 329.777ZM72.9313 326.73C73.5837 326.73 74.1285 326.545 74.5655 326.176C75.0025 325.801 75.3319 325.29 75.5534 324.643C75.7812 323.997 75.8951 323.262 75.8951 322.437C75.8951 321.612 75.7812 320.876 75.5534 320.23C75.3319 319.584 75.0025 319.073 74.5655 318.697C74.1285 318.322 73.5837 318.134 72.9313 318.134C72.2727 318.134 71.7187 318.322 71.2694 318.697C70.8262 319.073 70.4907 319.584 70.263 320.23C70.0414 320.876 69.9306 321.612 69.9306 322.437C69.9306 323.262 70.0414 323.997 70.263 324.643C70.4907 325.29 70.8262 325.801 71.2694 326.176C71.7187 326.545 72.2727 326.73 72.9313 326.73ZM82.4505 329.5V315.318H88.498C90.2462 315.318 91.628 315.651 92.6436 316.315C93.6593 316.98 94.1671 317.925 94.1671 319.15C94.1671 319.919 93.8809 320.559 93.3084 321.07C92.736 321.581 91.9419 321.926 90.9263 322.104C91.7757 322.166 92.499 322.36 93.0961 322.686C93.6993 323.006 94.1578 323.422 94.4718 323.933C94.7918 324.443 94.9519 325.01 94.9519 325.631C94.9519 326.438 94.7364 327.13 94.3056 327.709C93.8809 328.287 93.2561 328.731 92.4313 329.038C91.6126 329.346 90.6124 329.5 89.4306 329.5H82.4505ZM86.1159 326.555H89.4306C89.9784 326.555 90.4062 326.425 90.714 326.167C91.0279 325.902 91.1848 325.542 91.1848 325.087C91.1848 324.582 91.0279 324.185 90.714 323.896C90.4062 323.606 89.9784 323.462 89.4306 323.462H86.1159V326.555ZM86.1159 321.153H88.5811C88.9751 321.153 89.3105 321.098 89.5875 320.987C89.8707 320.87 90.0861 320.704 90.2338 320.489C90.3877 320.273 90.4647 320.018 90.4647 319.722C90.4647 319.285 90.2892 318.944 89.9384 318.697C89.5875 318.451 89.1074 318.328 88.498 318.328H86.1159V321.153ZM96.6 329.5L96.5815 326.379H97.0524C97.3848 326.379 97.671 326.299 97.911 326.139C98.1573 325.973 98.3604 325.705 98.5204 325.336C98.6805 324.967 98.8066 324.477 98.899 323.868C98.9913 323.252 99.0529 322.495 99.0836 321.597L99.3145 315.318H110.099V329.5H106.35V318.411H102.851L102.629 322.741C102.574 323.929 102.429 324.951 102.195 325.807C101.967 326.662 101.65 327.364 101.244 327.912C100.838 328.454 100.349 328.854 99.7761 329.112C99.2037 329.371 98.5389 329.5 97.7818 329.5H96.6ZM119.611 329.777C118.152 329.777 116.896 329.482 115.844 328.891C114.797 328.294 113.991 327.45 113.425 326.361C112.858 325.265 112.575 323.969 112.575 322.474C112.575 321.015 112.858 319.735 113.425 318.633C113.991 317.531 114.788 316.672 115.816 316.057C116.85 315.441 118.063 315.134 119.454 315.134C120.389 315.134 121.26 315.284 122.067 315.586C122.879 315.881 123.587 316.328 124.19 316.925C124.8 317.522 125.274 318.273 125.612 319.178C125.951 320.076 126.12 321.129 126.12 322.335V323.415H114.145V320.978H122.418C122.418 320.412 122.295 319.91 122.048 319.473C121.802 319.036 121.46 318.694 121.023 318.448C120.593 318.196 120.091 318.07 119.518 318.07C118.921 318.07 118.392 318.208 117.93 318.485C117.475 318.756 117.118 319.122 116.859 319.584C116.601 320.039 116.469 320.547 116.462 321.107V323.425C116.462 324.126 116.592 324.733 116.85 325.244C117.115 325.754 117.487 326.148 117.967 326.425C118.447 326.702 119.017 326.841 119.675 326.841C120.112 326.841 120.513 326.779 120.876 326.656C121.239 326.533 121.55 326.348 121.808 326.102C122.067 325.856 122.264 325.554 122.399 325.197L126.037 325.438C125.852 326.312 125.474 327.075 124.901 327.727C124.335 328.374 123.603 328.878 122.704 329.241C121.811 329.598 120.78 329.777 119.611 329.777ZM138.557 320.839V323.933H131.152V320.839H138.557ZM132.445 315.318V329.5H128.687V315.318H132.445ZM141.022 315.318V329.5H137.292V315.318H141.022ZM146.539 319.676H150.777C152.654 319.676 154.119 320.125 155.172 321.024C156.224 321.917 156.75 323.111 156.75 324.607C156.75 325.579 156.513 326.435 156.039 327.173C155.565 327.906 154.882 328.478 153.99 328.891C153.097 329.297 152.026 329.5 150.777 329.5H144.074V315.318H147.831V326.407H150.777C151.435 326.407 151.977 326.241 152.402 325.908C152.826 325.576 153.042 325.151 153.048 324.634C153.042 324.086 152.826 323.64 152.402 323.295C151.977 322.945 151.435 322.769 150.777 322.769H146.539V319.676Z" fill="white"/>
<path d="M274.109 509.045C274.109 511.107 273.718 512.862 272.936 514.308C272.161 515.755 271.102 516.86 269.76 517.623C268.424 518.38 266.922 518.759 265.254 518.759C263.574 518.759 262.066 518.377 260.73 517.614C259.395 516.85 258.339 515.746 257.563 514.299C256.788 512.853 256.4 511.101 256.4 509.045C256.4 506.983 256.788 505.229 257.563 503.783C258.339 502.336 259.395 501.234 260.73 500.477C262.066 499.714 263.574 499.332 265.254 499.332C266.922 499.332 268.424 499.714 269.76 500.477C271.102 501.234 272.161 502.336 272.936 503.783C273.718 505.229 274.109 506.983 274.109 509.045ZM270.055 509.045C270.055 507.71 269.855 506.583 269.455 505.666C269.061 504.749 268.504 504.054 267.784 503.58C267.064 503.106 266.221 502.869 265.254 502.869C264.288 502.869 263.445 503.106 262.725 503.58C262.004 504.054 261.444 504.749 261.044 505.666C260.65 506.583 260.453 507.71 260.453 509.045C260.453 510.381 260.65 511.508 261.044 512.425C261.444 513.342 262.004 514.037 262.725 514.511C263.445 514.985 264.288 515.222 265.254 515.222C266.221 515.222 267.064 514.985 267.784 514.511C268.504 514.037 269.061 513.342 269.455 512.425C269.855 511.508 270.055 510.381 270.055 509.045ZM286.866 509.839V512.933H279.462V509.839H286.866ZM280.754 504.318V518.5H276.996V504.318H280.754ZM289.332 504.318V518.5H285.601V504.318H289.332ZM291.552 518.5L291.534 515.379H292.005C292.337 515.379 292.623 515.299 292.863 515.139C293.109 514.973 293.313 514.705 293.473 514.336C293.633 513.967 293.759 513.477 293.851 512.868C293.943 512.252 294.005 511.495 294.036 510.597L294.267 504.318H305.051V518.5H301.302V507.411H297.803L297.581 511.741C297.526 512.929 297.381 513.951 297.147 514.807C296.92 515.662 296.603 516.364 296.196 516.912C295.79 517.454 295.301 517.854 294.728 518.112C294.156 518.371 293.491 518.5 292.734 518.5H291.552ZM312.144 518.768C311.239 518.768 310.433 518.611 309.725 518.297C309.017 517.977 308.457 517.506 308.044 516.884C307.638 516.256 307.435 515.475 307.435 514.539C307.435 513.751 307.58 513.089 307.869 512.554C308.158 512.018 308.552 511.588 309.051 511.261C309.549 510.935 310.116 510.689 310.75 510.523C311.39 510.357 312.061 510.24 312.763 510.172C313.587 510.086 314.252 510.006 314.757 509.932C315.262 509.852 315.628 509.735 315.856 509.581C316.083 509.427 316.197 509.199 316.197 508.898V508.842C316.197 508.258 316.013 507.805 315.643 507.485C315.28 507.165 314.763 507.005 314.092 507.005C313.384 507.005 312.821 507.162 312.402 507.476C311.984 507.784 311.707 508.171 311.571 508.639L307.934 508.344C308.118 507.482 308.482 506.737 309.023 506.109C309.565 505.475 310.263 504.989 311.119 504.651C311.981 504.306 312.978 504.134 314.111 504.134C314.898 504.134 315.652 504.226 316.373 504.411C317.099 504.595 317.742 504.881 318.302 505.269C318.869 505.657 319.315 506.156 319.641 506.765C319.967 507.368 320.13 508.091 320.13 508.935V518.5H316.4V516.533H316.29C316.062 516.977 315.757 517.367 315.375 517.706C314.994 518.038 314.535 518.3 314 518.491C313.464 518.675 312.846 518.768 312.144 518.768ZM313.27 516.053C313.849 516.053 314.36 515.939 314.803 515.712C315.246 515.478 315.594 515.164 315.846 514.77C316.099 514.376 316.225 513.93 316.225 513.431V511.926C316.102 512.006 315.932 512.08 315.717 512.148C315.508 512.209 315.271 512.268 315.006 512.323C314.741 512.372 314.477 512.419 314.212 512.462C313.947 512.499 313.707 512.532 313.492 512.563C313.03 512.631 312.627 512.739 312.282 512.886C311.938 513.034 311.67 513.234 311.479 513.487C311.288 513.733 311.193 514.04 311.193 514.41C311.193 514.945 311.387 515.355 311.775 515.638C312.169 515.915 312.667 516.053 313.27 516.053ZM326.94 513.311L332.046 504.318H335.923V518.5H332.175V509.479L327.087 518.5H323.182V504.318H326.94V513.311ZM331.372 499.369H334.114C334.108 500.49 333.692 501.391 332.867 502.075C332.049 502.758 330.941 503.099 329.543 503.099C328.14 503.099 327.029 502.758 326.21 502.075C325.392 501.391 324.982 500.49 324.982 499.369H327.706C327.7 499.794 327.835 500.176 328.112 500.514C328.395 500.853 328.872 501.022 329.543 501.022C330.196 501.022 330.664 500.856 330.947 500.523C331.23 500.191 331.372 499.806 331.372 499.369ZM348.946 509.839V512.933H341.542V509.839H348.946ZM342.834 504.318V518.5H339.076V504.318H342.834ZM351.412 504.318V518.5H347.682V504.318H351.412ZM247.865 545.151L251.706 535.318H254.698L249.167 549.5H246.554L241.153 535.318H244.135L247.865 545.151ZM243.24 535.318V549.5H239.482V535.318H243.24ZM252.685 549.5V535.318H256.396V549.5H252.685ZM265.902 549.777C264.443 549.777 263.187 549.482 262.135 548.891C261.088 548.294 260.282 547.45 259.716 546.361C259.149 545.265 258.866 543.969 258.866 542.474C258.866 541.015 259.149 539.735 259.716 538.633C260.282 537.531 261.079 536.672 262.107 536.057C263.141 535.441 264.354 535.134 265.745 535.134C266.68 535.134 267.551 535.284 268.358 535.586C269.17 535.881 269.878 536.328 270.481 536.925C271.091 537.522 271.565 538.273 271.903 539.178C272.242 540.076 272.411 541.129 272.411 542.335V543.415H260.436V540.978H268.709C268.709 540.412 268.586 539.91 268.339 539.473C268.093 539.036 267.751 538.694 267.314 538.448C266.884 538.196 266.382 538.07 265.809 538.07C265.212 538.07 264.683 538.208 264.221 538.485C263.766 538.756 263.409 539.122 263.15 539.584C262.892 540.039 262.76 540.547 262.753 541.107V543.425C262.753 544.126 262.883 544.733 263.141 545.244C263.406 545.754 263.778 546.148 264.258 546.425C264.738 546.702 265.308 546.841 265.966 546.841C266.403 546.841 266.804 546.779 267.167 546.656C267.53 546.533 267.841 546.348 268.099 546.102C268.358 545.856 268.555 545.554 268.69 545.197L272.328 545.438C272.143 546.312 271.765 547.075 271.192 547.727C270.626 548.374 269.894 548.878 268.995 549.241C268.102 549.598 267.071 549.777 265.902 549.777ZM284.848 540.839V543.933H277.443V540.839H284.848ZM278.736 535.318V549.5H274.978V535.318H278.736ZM287.313 535.318V549.5H283.583V535.318H287.313ZM296.828 549.777C295.369 549.777 294.113 549.482 293.061 548.891C292.014 548.294 291.208 547.45 290.642 546.361C290.075 545.265 289.792 543.969 289.792 542.474C289.792 541.015 290.075 539.735 290.642 538.633C291.208 537.531 292.005 536.672 293.033 536.057C294.067 535.441 295.28 535.134 296.671 535.134C297.606 535.134 298.477 535.284 299.284 535.586C300.096 535.881 300.804 536.328 301.407 536.925C302.017 537.522 302.49 538.273 302.829 539.178C303.168 540.076 303.337 541.129 303.337 542.335V543.415H291.362V540.978H299.634C299.634 540.412 299.511 539.91 299.265 539.473C299.019 539.036 298.677 538.694 298.24 538.448C297.809 538.196 297.308 538.07 296.735 538.07C296.138 538.07 295.609 538.208 295.147 538.485C294.692 538.756 294.335 539.122 294.076 539.584C293.818 540.039 293.685 540.547 293.679 541.107V543.425C293.679 544.126 293.808 544.733 294.067 545.244C294.332 545.754 294.704 546.148 295.184 546.425C295.664 546.702 296.234 546.841 296.892 546.841C297.329 546.841 297.729 546.779 298.093 546.656C298.456 546.533 298.767 546.348 299.025 546.102C299.284 545.856 299.481 545.554 299.616 545.197L303.254 545.438C303.069 546.312 302.691 547.075 302.118 547.727C301.552 548.374 300.819 548.878 299.921 549.241C299.028 549.598 297.997 549.777 296.828 549.777ZM304.796 553.655V546.379H305.885C306.199 546.182 306.451 545.868 306.642 545.438C306.839 545.007 306.999 544.499 307.122 543.914C307.252 543.329 307.35 542.698 307.418 542.021C307.492 541.338 307.556 540.649 307.612 539.953L307.981 535.318H318.857V546.379H321.055V553.655H317.306V549.5H308.637V553.655H304.796ZM309.8 546.379H315.146V538.347H311.323L311.176 539.953C311.071 541.467 310.92 542.754 310.723 543.812C310.526 544.865 310.218 545.721 309.8 546.379ZM322.424 549.5L327.382 542.123L322.451 535.318H326.939L330.623 540.867H331.232V535.318H335.165V540.867H335.756L339.44 535.318H343.927L339.006 542.123L343.955 549.5H339.366L335.719 543.96H335.165V549.5H331.232V543.96H330.678L327.012 549.5H322.424ZM352.128 549.777C350.67 549.777 349.414 549.482 348.361 548.891C347.315 548.294 346.509 547.45 345.942 546.361C345.376 545.265 345.093 543.969 345.093 542.474C345.093 541.015 345.376 539.735 345.942 538.633C346.509 537.531 347.306 536.672 348.334 536.057C349.368 535.441 350.58 535.134 351.971 535.134C352.907 535.134 353.778 535.284 354.584 535.586C355.397 535.881 356.105 536.328 356.708 536.925C357.317 537.522 357.791 538.273 358.13 539.178C358.468 540.076 358.638 541.129 358.638 542.335V543.415H346.662V540.978H354.935C354.935 540.412 354.812 539.91 354.566 539.473C354.32 539.036 353.978 538.694 353.541 538.448C353.11 538.196 352.608 538.07 352.036 538.07C351.439 538.07 350.91 538.208 350.448 538.485C349.992 538.756 349.635 539.122 349.377 539.584C349.118 540.039 348.986 540.547 348.98 541.107V543.425C348.98 544.126 349.109 544.733 349.368 545.244C349.632 545.754 350.005 546.148 350.485 546.425C350.965 546.702 351.534 546.841 352.193 546.841C352.63 546.841 353.03 546.779 353.393 546.656C353.756 546.533 354.067 546.348 354.326 546.102C354.584 545.856 354.781 545.554 354.917 545.197L358.555 545.438C358.37 546.312 357.991 547.075 357.419 547.727C356.853 548.374 356.12 548.878 355.221 549.241C354.329 549.598 353.298 549.777 352.128 549.777ZM361.204 554.818V535.318H365.082V537.7H365.258C365.43 537.319 365.679 536.931 366.006 536.537C366.338 536.137 366.769 535.804 367.298 535.54C367.834 535.269 368.498 535.134 369.292 535.134C370.327 535.134 371.281 535.404 372.155 535.946C373.029 536.482 373.727 537.291 374.251 538.374C374.774 539.451 375.035 540.803 375.035 542.428C375.035 544.009 374.78 545.345 374.269 546.435C373.764 547.518 373.075 548.34 372.201 548.9C371.333 549.454 370.36 549.731 369.283 549.731C368.52 549.731 367.871 549.605 367.335 549.352C366.806 549.1 366.372 548.783 366.033 548.401C365.695 548.013 365.436 547.623 365.258 547.229H365.138V554.818H361.204ZM365.055 542.409C365.055 543.252 365.171 543.988 365.405 544.616C365.639 545.244 365.978 545.733 366.421 546.084C366.864 546.429 367.403 546.601 368.037 546.601C368.677 546.601 369.219 546.425 369.662 546.075C370.105 545.718 370.44 545.225 370.668 544.597C370.902 543.963 371.019 543.234 371.019 542.409C371.019 541.59 370.905 540.87 370.677 540.249C370.45 539.627 370.114 539.141 369.671 538.79C369.228 538.439 368.683 538.263 368.037 538.263C367.397 538.263 366.855 538.433 366.412 538.771C365.975 539.11 365.639 539.59 365.405 540.212C365.171 540.833 365.055 541.566 365.055 542.409Z" fill="white"/>
<defs>
<filter id="filter0_d_1_24" x="220.5" y="0" width="173" height="173" filterUnits="userSpaceOnUse" color-interpolation-filters="sRGB">
<feFlood flood-opacity="0" result="BackgroundImageFix"/>
<feColorMatrix in="SourceAlpha" type="matrix" values="0 0 0 0 0 0 0 0 0 0 0 0 0 0 0 0 0 0 127 0" result="hardAlpha"/>
<feOffset dy="2"/>
<feGaussianBlur stdDeviation="2"/>
<feComposite in2="hardAlpha" operator="out"/>
<feColorMatrix type="matrix" values="0 0 0 0 0 0 0 0 0 0 0 0 0 0 0 0 0 0 0.25 0"/>
<feBlend mode="normal" in2="BackgroundImageFix" result="effect1_dropShadow_1_24"/>
<feBlend mode="normal" in="SourceGraphic" in2="effect1_dropShadow_1_24" result="shape"/>
</filter>
<filter id="filter1_d_1_24" x="220.5" y="440" width="173" height="173" filterUnits="userSpaceOnUse" color-interpolation-filters="sRGB">
<feFlood flood-opacity="0" result="BackgroundImageFix"/>
<feColorMatrix in="SourceAlpha" type="matrix" values="0 0 0 0 0 0 0 0 0 0 0 0 0 0 0 0 0 0 127 0" result="hardAlpha"/>
<feOffset dy="2"/>
<feGaussianBlur stdDeviation="2"/>
<feComposite in2="hardAlpha" operator="out"/>
<feColorMatrix type="matrix" values="0 0 0 0 0 0 0 0 0 0 0 0 0 0 0 0 0 0 0.25 0"/>
<feBlend mode="normal" in2="BackgroundImageFix" result="effect1_dropShadow_1_24"/>
<feBlend mode="normal" in="SourceGraphic" in2="effect1_dropShadow_1_24" result="shape"/>
</filter>
<filter id="filter2_d_1_24" x="440.5" y="220" width="173" height="173" filterUnits="userSpaceOnUse" color-interpolation-filters="sRGB">
<feFlood flood-opacity="0" result="BackgroundImageFix"/>
<feColorMatrix in="SourceAlpha" type="matrix" values="0 0 0 0 0 0 0 0 0 0 0 0 0 0 0 0 0 0 127 0" result="hardAlpha"/>
<feOffset dy="2"/>
<feGaussianBlur stdDeviation="2"/>
<feComposite in2="hardAlpha" operator="out"/>
<feColorMatrix type="matrix" values="0 0 0 0 0 0 0 0 0 0 0 0 0 0 0 0 0 0 0.25 0"/>
<feBlend mode="normal" in2="BackgroundImageFix" result="effect1_dropShadow_1_24"/>
<feBlend mode="normal" in="SourceGraphic" in2="effect1_dropShadow_1_24" result="shape"/>
</filter>
<filter id="filter3_d_1_24" x="0.5" y="220" width="173" height="173" filterUnits="userSpaceOnUse" color-interpolation-filters="sRGB">
<feFlood flood-opacity="0" result="BackgroundImageFix"/>
<feColorMatrix in="SourceAlpha" type="matrix" values="0 0 0 0 0 0 0 0 0 0 0 0 0 0 0 0 0 0 127 0" result="hardAlpha"/>
<feOffset dy="2"/>
<feGaussianBlur stdDeviation="2"/>
<feComposite in2="hardAlpha" operator="out"/>
<feColorMatrix type="matrix" values="0 0 0 0 0 0 0 0 0 0 0 0 0 0 0 0 0 0 0.25 0"/>
<feBlend mode="normal" in2="BackgroundImageFix" result="effect1_dropShadow_1_24"/>
<feBlend mode="normal" in="SourceGraphic" in2="effect1_dropShadow_1_24" result="shape"/>
</filter>
<filter id="filter4_d_1_24" x="241.5" y="241" width="131" height="131" filterUnits="userSpaceOnUse" color-interpolation-filters="sRGB">
<feFlood flood-opacity="0" result="BackgroundImageFix"/>
<feColorMatrix in="SourceAlpha" type="matrix" values="0 0 0 0 0 0 0 0 0 0 0 0 0 0 0 0 0 0 127 0" result="hardAlpha"/>
<feOffset dy="2"/>
<feGaussianBlur stdDeviation="2"/>
<feComposite in2="hardAlpha" operator="out"/>
<feColorMatrix type="matrix" values="0 0 0 0 0 0 0 0 0 0 0 0 0 0 0 0 0 0 0.25 0"/>
<feBlend mode="normal" in2="BackgroundImageFix" result="effect1_dropShadow_1_24"/>
<feBlend mode="normal" in="SourceGraphic" in2="effect1_dropShadow_1_24" result="shape"/>
</filter>
<filter id="filter5_d_1_24" x="272.277" y="184.764" width="36.723" height="44.4716" filterUnits="userSpaceOnUse" color-interpolation-filters="sRGB">
<feFlood flood-opacity="0" result="BackgroundImageFix"/>
<feColorMatrix in="SourceAlpha" type="matrix" values="0 0 0 0 0 0 0 0 0 0 0 0 0 0 0 0 0 0 127 0" result="hardAlpha"/>
<feOffset dy="2"/>
<feGaussianBlur stdDeviation="1"/>
<feComposite in2="hardAlpha" operator="out"/>
<feColorMatrix type="matrix" values="0 0 0 0 0 0 0 0 0 0 0 0 0 0 0 0 0 0 0.25 0"/>
<feBlend mode="normal" in2="BackgroundImageFix" result="effect1_dropShadow_1_24"/>
<feBlend mode="normal" in="SourceGraphic" in2="effect1_dropShadow_1_24" result="shape"/>
</filter>
<filter id="filter6_d_1_24" x="185.264" y="304.5" width="44.4716" height="36.723" filterUnits="userSpaceOnUse" color-interpolation-filters="sRGB">
<feFlood flood-opacity="0" result="BackgroundImageFix"/>
<feColorMatrix in="SourceAlpha" type="matrix" values="0 0 0 0 0 0 0 0 0 0 0 0 0 0 0 0 0 0 127 0" result="hardAlpha"/>
<feOffset dy="2"/>
<feGaussianBlur stdDeviation="1"/>
<feComposite in2="hardAlpha" operator="out"/>
<feColorMatrix type="matrix" values="0 0 0 0 0 0 0 0 0 0 0 0 0 0 0 0 0 0 0.25 0"/>
<feBlend mode="normal" in2="BackgroundImageFix" result="effect1_dropShadow_1_24"/>
<feBlend mode="normal" in="SourceGraphic" in2="effect1_dropShadow_1_24" result="shape"/>
</filter>
<filter id="filter7_d_1_24" x="384.264" y="304.5" width="44.4716" height="36.723" filterUnits="userSpaceOnUse" color-interpolation-filters="sRGB">
<feFlood flood-opacity="0" result="BackgroundImageFix"/>
<feColorMatrix in="SourceAlpha" type="matrix" values="0 0 0 0 0 0 0 0 0 0 0 0 0 0 0 0 0 0 127 0" result="hardAlpha"/>
<feOffset dy="2"/>
<feGaussianBlur stdDeviation="1"/>
<feComposite in2="hardAlpha" operator="out"/>
<feColorMatrix type="matrix" values="0 0 0 0 0 0 0 0 0 0 0 0 0 0 0 0 0 0 0.25 0"/>
<feBlend mode="normal" in2="BackgroundImageFix" result="effect1_dropShadow_1_24"/>
<feBlend mode="normal" in="SourceGraphic" in2="effect1_dropShadow_1_24" result="shape"/>
</filter>
<filter id="filter8_d_1_24" x="272.277" y="383.764" width="36.723" height="44.4716" filterUnits="userSpaceOnUse" color-interpolation-filters="sRGB">
<feFlood flood-opacity="0" result="BackgroundImageFix"/>
<feColorMatrix in="SourceAlpha" type="matrix" values="0 0 0 0 0 0 0 0 0 0 0 0 0 0 0 0 0 0 127 0" result="hardAlpha"/>
<feOffset dy="2"/>
<feGaussianBlur stdDeviation="1"/>
<feComposite in2="hardAlpha" operator="out"/>
<feColorMatrix type="matrix" values="0 0 0 0 0 0 0 0 0 0 0 0 0 0 0 0 0 0 0.25 0"/>
<feBlend mode="normal" in2="BackgroundImageFix" result="effect1_dropShadow_1_24"/>
<feBlend mode="normal" in="SourceGraphic" in2="effect1_dropShadow_1_24" result="shape"/>
</filter>
<filter id="filter9_d_1_24" x="305" y="184.764" width="36.723" height="44.4716" filterUnits="userSpaceOnUse" color-interpolation-filters="sRGB">
<feFlood flood-opacity="0" result="BackgroundImageFix"/>
<feColorMatrix in="SourceAlpha" type="matrix" values="0 0 0 0 0 0 0 0 0 0 0 0 0 0 0 0 0 0 127 0" result="hardAlpha"/>
<feOffset dy="2"/>
<feGaussianBlur stdDeviation="1"/>
<feComposite in2="hardAlpha" operator="out"/>
<feColorMatrix type="matrix" values="0 0 0 0 0 0 0 0 0 0 0 0 0 0 0 0 0 0 0.25 0"/>
<feBlend mode="normal" in2="BackgroundImageFix" result="effect1_dropShadow_1_24"/>
<feBlend mode="normal" in="SourceGraphic" in2="effect1_dropShadow_1_24" result="shape"/>
</filter>
<filter id="filter10_d_1_24" x="185.264" y="271.777" width="44.4716" height="36.723" filterUnits="userSpaceOnUse" color-interpolation-filters="sRGB">
<feFlood flood-opacity="0" result="BackgroundImageFix"/>
<feColorMatrix in="SourceAlpha" type="matrix" values="0 0 0 0 0 0 0 0 0 0 0 0 0 0 0 0 0 0 127 0" result="hardAlpha"/>
<feOffset dy="2"/>
<feGaussianBlur stdDeviation="1"/>
<feComposite in2="hardAlpha" operator="out"/>
<feColorMatrix type="matrix" values="0 0 0 0 0 0 0 0 0 0 0 0 0 0 0 0 0 0 0.25 0"/>
<feBlend mode="normal" in2="BackgroundImageFix" result="effect1_dropShadow_1_24"/>
<feBlend mode="normal" in="SourceGraphic" in2="effect1_dropShadow_1_24" result="shape"/>
</filter>
<filter id="filter11_d_1_24" x="384.264" y="271.777" width="44.4716" height="36.723" filterUnits="userSpaceOnUse" color-interpolation-filters="sRGB">
<feFlood flood-opacity="0" result="BackgroundImageFix"/>
<feColorMatrix in="SourceAlpha" type="matrix" values="0 0 0 0 0 0 0 0 0 0 0 0 0 0 0 0 0 0 127 0" result="hardAlpha"/>
<feOffset dy="2"/>
<feGaussianBlur stdDeviation="1"/>
<feComposite in2="hardAlpha" operator="out"/>
<feColorMatrix type="matrix" values="0 0 0 0 0 0 0 0 0 0 0 0 0 0 0 0 0 0 0.25 0"/>
<feBlend mode="normal" in2="BackgroundImageFix" result="effect1_dropShadow_1_24"/>
<feBlend mode="normal" in="SourceGraphic" in2="effect1_dropShadow_1_24" result="shape"/>
</filter>
<filter id="filter12_d_1_24" x="305" y="383.764" width="36.723" height="44.4716" filterUnits="userSpaceOnUse" color-interpolation-filters="sRGB">
<feFlood flood-opacity="0" result="BackgroundImageFix"/>
<feColorMatrix in="SourceAlpha" type="matrix" values="0 0 0 0 0 0 0 0 0 0 0 0 0 0 0 0 0 0 127 0" result="hardAlpha"/>
<feOffset dy="2"/>
<feGaussianBlur stdDeviation="1"/>
<feComposite in2="hardAlpha" operator="out"/>
<feColorMatrix type="matrix" values="0 0 0 0 0 0 0 0 0 0 0 0 0 0 0 0 0 0 0.25 0"/>
<feBlend mode="normal" in2="BackgroundImageFix" result="effect1_dropShadow_1_24"/>
<feBlend mode="normal" in="SourceGraphic" in2="effect1_dropShadow_1_24" result="shape"/>
</filter>
</defs>
</svg>
