<svg width="957" height="674" viewBox="0 0 727 374" fill="none" xmlns="http://www.w3.org/2000/svg">
<rect x="287.552" y="0.713989" width="152" height="41" rx="3" fill="#BDE3FF" fill-opacity="0.7" stroke="#97BDF6" stroke-miterlimit="0" stroke-linecap="round"/>
<path d="M319.837 17.0322V18.3546H315.024V27.214H313.488V17.0322H319.837ZM323.478 27.3681C322.726 27.3681 322.078 27.2074 321.535 26.8859C320.994 26.5611 320.577 26.1053 320.282 25.5187C319.99 24.9287 319.844 24.2377 319.844 23.4455C319.844 22.6633 319.99 21.9739 320.282 21.3773C320.577 20.7808 320.988 20.3151 321.515 19.9803C322.045 19.6456 322.665 19.4782 323.374 19.4782C323.805 19.4782 324.222 19.5495 324.627 19.692C325.031 19.8345 325.394 20.0582 325.716 20.3631C326.037 20.6681 326.291 21.0641 326.476 21.5513C326.662 22.0352 326.755 22.6236 326.755 23.3163V23.8433H320.684V22.7296H325.298C325.298 22.3385 325.218 21.9922 325.059 21.6906C324.9 21.3856 324.677 21.1453 324.388 20.9697C324.103 20.794 323.768 20.7062 323.384 20.7062C322.966 20.7062 322.602 20.8089 322.29 21.0144C321.982 21.2166 321.743 21.4817 321.574 21.8099C321.409 22.1347 321.326 22.4877 321.326 22.8688V23.7388C321.326 24.2493 321.415 24.6834 321.594 25.0414C321.776 25.3994 322.03 25.6728 322.355 25.8617C322.68 26.0473 323.059 26.1401 323.493 26.1401C323.775 26.1401 324.032 26.1004 324.264 26.0208C324.496 25.9379 324.696 25.8153 324.865 25.6529C325.035 25.4905 325.164 25.29 325.253 25.0513L326.66 25.3049C326.548 25.7192 326.345 26.0821 326.054 26.3937C325.765 26.7019 325.402 26.9422 324.965 27.1146C324.531 27.2836 324.035 27.3681 323.478 27.3681ZM333.425 22.7545V24.0421H329.289V22.7545H333.425ZM329.707 19.5776V27.214H328.25V19.5776H329.707ZM334.464 19.5776V27.214H333.013V19.5776H334.464ZM339.59 27.3681C338.838 27.3681 338.19 27.2074 337.646 26.8859C337.106 26.5611 336.689 26.1053 336.394 25.5187C336.102 24.9287 335.956 24.2377 335.956 23.4455C335.956 22.6633 336.102 21.9739 336.394 21.3773C336.689 20.7808 337.1 20.3151 337.627 19.9803C338.157 19.6456 338.777 19.4782 339.486 19.4782C339.917 19.4782 340.334 19.5495 340.739 19.692C341.143 19.8345 341.506 20.0582 341.828 20.3631C342.149 20.6681 342.403 21.0641 342.588 21.5513C342.774 22.0352 342.867 22.6236 342.867 23.3163V23.8433H336.796V22.7296H341.41C341.41 22.3385 341.33 21.9922 341.171 21.6906C341.012 21.3856 340.788 21.1453 340.5 20.9697C340.215 20.794 339.88 20.7062 339.496 20.7062C339.078 20.7062 338.714 20.8089 338.402 21.0144C338.094 21.2166 337.855 21.4817 337.686 21.8099C337.52 22.1347 337.438 22.4877 337.438 22.8688V23.7388C337.438 24.2493 337.527 24.6834 337.706 25.0414C337.888 25.3994 338.142 25.6728 338.467 25.8617C338.792 26.0473 339.171 26.1401 339.605 26.1401C339.887 26.1401 340.144 26.1004 340.376 26.0208C340.608 25.9379 340.808 25.8153 340.977 25.6529C341.146 25.4905 341.276 25.29 341.365 25.0513L342.772 25.3049C342.659 25.7192 342.457 26.0821 342.166 26.3937C341.877 26.7019 341.514 26.9422 341.077 27.1146C340.643 27.2836 340.147 27.3681 339.59 27.3681ZM344.362 30.0776V19.5776H345.814V20.8156H345.938C346.024 20.6565 346.148 20.4725 346.311 20.2637C346.473 20.0549 346.699 19.8726 346.987 19.7168C347.275 19.5577 347.656 19.4782 348.13 19.4782C348.747 19.4782 349.297 19.634 349.781 19.9455C350.265 20.2571 350.644 20.7062 350.919 21.2928C351.198 21.8795 351.337 22.5854 351.337 23.4107C351.337 24.236 351.2 24.9436 350.924 25.5336C350.649 26.1202 350.271 26.5727 349.791 26.8908C349.31 27.2057 348.762 27.3631 348.145 27.3631C347.681 27.3631 347.302 27.2852 347.007 27.1295C346.715 26.9737 346.486 26.7914 346.321 26.5826C346.155 26.3738 346.027 26.1882 345.938 26.0258H345.848V30.0776H344.362ZM345.819 23.3958C345.819 23.9327 345.896 24.4034 346.052 24.8077C346.208 25.2121 346.433 25.5286 346.728 25.7573C347.023 25.9827 347.385 26.0954 347.812 26.0954C348.256 26.0954 348.628 25.9777 348.926 25.7424C349.224 25.5038 349.45 25.1806 349.602 24.7729C349.758 24.3653 349.836 23.9062 349.836 23.3958C349.836 22.892 349.759 22.4396 349.607 22.0386C349.458 21.6375 349.232 21.321 348.931 21.089C348.633 20.857 348.26 20.741 347.812 20.741C347.381 20.741 347.017 20.852 346.718 21.0741C346.423 21.2961 346.2 21.606 346.047 22.0038C345.895 22.4015 345.819 22.8655 345.819 23.3958ZM355.071 27.383C354.587 27.383 354.149 27.2935 353.758 27.1146C353.367 26.9323 353.057 26.6688 352.829 26.3241C352.603 25.9794 352.491 25.5568 352.491 25.0563C352.491 24.6254 352.573 24.2708 352.739 23.9924C352.905 23.714 353.129 23.4936 353.41 23.3312C353.692 23.1688 354.007 23.0461 354.355 22.9633C354.703 22.8804 355.058 22.8174 355.419 22.7744C355.876 22.7213 356.247 22.6782 356.532 22.6451C356.818 22.6086 357.025 22.5506 357.154 22.4711C357.283 22.3915 357.348 22.2623 357.348 22.0833V22.0485C357.348 21.6143 357.225 21.2779 356.98 21.0393C356.738 20.8006 356.377 20.6813 355.896 20.6813C355.396 20.6813 355.001 20.7924 354.713 21.0144C354.428 21.2332 354.231 21.4768 354.121 21.7452L352.724 21.4271C352.89 20.963 353.132 20.5885 353.45 20.3035C353.772 20.0151 354.141 19.8063 354.559 19.6771C354.976 19.5445 355.416 19.4782 355.876 19.4782C356.181 19.4782 356.504 19.5147 356.846 19.5876C357.19 19.6572 357.512 19.7864 357.81 19.9754C358.112 20.1643 358.359 20.4344 358.551 20.7857C358.743 21.1337 358.839 21.5861 358.839 22.143V27.214H357.388V26.17H357.328C357.232 26.3622 357.088 26.5511 356.895 26.7367C356.703 26.9223 356.456 27.0764 356.155 27.1991C355.853 27.3217 355.492 27.383 355.071 27.383ZM355.394 26.1898C355.805 26.1898 356.156 26.1086 356.448 25.9462C356.743 25.7838 356.967 25.5717 357.119 25.3099C357.275 25.0447 357.353 24.7613 357.353 24.4597V23.4754C357.3 23.5284 357.197 23.5781 357.045 23.6245C356.895 23.6676 356.725 23.7057 356.532 23.7388C356.34 23.7687 356.153 23.7968 355.971 23.8234C355.788 23.8466 355.636 23.8665 355.513 23.883C355.225 23.9195 354.961 23.9808 354.723 24.067C354.488 24.1531 354.299 24.2774 354.156 24.4398C354.017 24.5989 353.947 24.8111 353.947 25.0762C353.947 25.4441 354.083 25.7225 354.355 25.9114C354.627 26.097 354.973 26.1898 355.394 26.1898ZM366.895 19.5776V25.9959H368.013V29.6749H366.547V27.214H360.665V19.5776H362.122V25.9313H365.443V19.5776H366.895ZM369.507 27.214V19.5776H370.994V27.214H369.507ZM370.258 18.3994C370 18.3994 369.777 18.3132 369.592 18.1408C369.41 17.9652 369.318 17.7564 369.318 17.5144C369.318 17.2691 369.41 17.0603 369.592 16.888C369.777 16.7123 370 16.6245 370.258 16.6245C370.517 16.6245 370.737 16.7123 370.919 16.888C371.105 17.0603 371.198 17.2691 371.198 17.5144C371.198 17.7564 371.105 17.9652 370.919 18.1408C370.737 18.3132 370.517 18.3994 370.258 18.3994ZM377.394 27.214V20.8454H375.564C375.13 20.8454 374.792 20.9465 374.55 21.1486C374.308 21.3508 374.187 21.616 374.187 21.9441C374.187 22.2689 374.298 22.5308 374.52 22.7296C374.745 22.9252 375.06 23.0229 375.465 23.0229H377.826V24.2261H375.465C374.901 24.2261 374.414 24.1333 374.003 23.9477C373.595 23.7587 373.28 23.4919 373.058 23.1472C372.84 22.8025 372.73 22.3949 372.73 21.9242C372.73 21.4436 372.843 21.0293 373.068 20.6813C373.297 20.33 373.624 20.0582 374.048 19.866C374.475 19.6737 374.981 19.5776 375.564 19.5776H378.791V27.214H377.394ZM372.382 27.214L374.535 23.356H376.056L373.904 27.214H372.382ZM383.565 27.214L383.56 25.9263H383.833C384.045 25.9263 384.223 25.8816 384.365 25.7921C384.511 25.6993 384.63 25.5435 384.723 25.3248C384.816 25.106 384.887 24.8044 384.937 24.42C384.987 24.0322 385.023 23.545 385.046 22.9583L385.181 19.5776H390.51V27.214H389.054V20.8603H386.558L386.438 23.4555C386.409 24.0852 386.344 24.6354 386.245 25.106C386.148 25.5767 386.008 25.9694 385.822 26.2843C385.636 26.5959 385.398 26.8295 385.106 26.9853C384.814 27.1378 384.46 27.214 384.042 27.214H383.565ZM392.339 27.214V19.5776H393.825V27.214H392.339ZM393.089 18.3994C392.831 18.3994 392.609 18.3132 392.423 18.1408C392.241 17.9652 392.15 17.7564 392.15 17.5144C392.15 17.2691 392.241 17.0603 392.423 16.888C392.609 16.7123 392.831 16.6245 393.089 16.6245C393.348 16.6245 393.568 16.7123 393.751 16.888C393.936 17.0603 394.029 17.2691 394.029 17.5144C394.029 17.7564 393.936 17.9652 393.751 18.1408C393.568 18.3132 393.348 18.3994 393.089 18.3994ZM394.925 29.4164V25.9263H395.547C395.706 25.7805 395.84 25.6065 395.949 25.4043C396.062 25.2022 396.156 24.9619 396.233 24.6834C396.312 24.405 396.379 24.0802 396.432 23.709C396.485 23.3345 396.531 22.9069 396.571 22.4263L396.809 19.5776H402V25.9263H403.173V29.4164H401.721V27.214H396.397V29.4164H394.925ZM397.138 25.9263H400.548V20.8504H398.142L397.983 22.4263C397.906 23.2284 397.81 23.9245 397.694 24.5144C397.578 25.1011 397.393 25.5717 397.138 25.9263ZM404.472 27.214V19.5776H405.959V27.214H404.472ZM405.223 18.3994C404.964 18.3994 404.742 18.3132 404.557 18.1408C404.374 17.9652 404.283 17.7564 404.283 17.5144C404.283 17.2691 404.374 17.0603 404.557 16.888C404.742 16.7123 404.964 16.6245 405.223 16.6245C405.481 16.6245 405.702 16.7123 405.884 16.888C406.07 17.0603 406.162 17.2691 406.162 17.5144C406.162 17.7564 406.07 17.9652 405.884 18.1408C405.702 18.3132 405.481 18.3994 405.223 18.3994ZM407.804 27.214V19.5776H410.971C411.833 19.5776 412.516 19.7616 413.02 20.1295C413.523 20.4941 413.775 20.9896 413.775 21.616C413.775 22.0634 413.633 22.4181 413.348 22.6799C413.063 22.9417 412.685 23.1174 412.214 23.2069C412.556 23.2467 412.869 23.3494 413.154 23.5151C413.439 23.6775 413.668 23.8963 413.84 24.1714C414.016 24.4465 414.103 24.7746 414.103 25.1558C414.103 25.5601 413.999 25.9181 413.79 26.2296C413.581 26.5379 413.278 26.7798 412.88 26.9555C412.486 27.1278 412.01 27.214 411.453 27.214H407.804ZM409.201 25.9711H411.453C411.821 25.9711 412.11 25.8833 412.319 25.7076C412.527 25.5319 412.632 25.2933 412.632 24.9917C412.632 24.637 412.527 24.3586 412.319 24.1565C412.11 23.951 411.821 23.8482 411.453 23.8482H409.201V25.9711ZM409.201 22.7594H410.986C411.265 22.7594 411.503 22.7197 411.702 22.6401C411.904 22.5606 412.058 22.4479 412.164 22.3021C412.274 22.1529 412.328 21.9772 412.328 21.7751C412.328 21.4801 412.208 21.2497 411.966 21.084C411.724 20.9183 411.392 20.8354 410.971 20.8354H409.201V22.7594Z" fill="black" fill-opacity="0.8"/>
<rect x="287.552" y="66.714" width="152" height="41" rx="3" fill="#BDE3FF" fill-opacity="0.7" stroke="#97BDF6" stroke-miterlimit="0" stroke-linecap="round"/>
<path d="M298.864 83.0322V93.214H297.328V83.0322H298.864ZM304.045 93.3681C303.306 93.3681 302.669 93.2007 302.136 92.866C301.605 92.5279 301.198 92.0622 300.913 91.469C300.628 90.8757 300.485 90.1962 300.485 89.4306C300.485 88.655 300.631 87.9706 300.923 87.3773C301.214 86.7808 301.625 86.3151 302.156 85.9803C302.686 85.6456 303.311 85.4782 304.03 85.4782C304.61 85.4782 305.127 85.5859 305.581 85.8013C306.035 86.0135 306.401 86.3118 306.68 86.6962C306.962 87.0807 307.129 87.5298 307.182 88.0435H305.735C305.656 87.6856 305.473 87.3773 305.188 87.1188C304.907 86.8603 304.529 86.731 304.055 86.731C303.64 86.731 303.278 86.8404 302.966 87.0592C302.658 87.2746 302.417 87.5828 302.245 87.9839C302.073 88.3816 301.987 88.8522 301.987 89.3958C301.987 89.9526 302.071 90.4332 302.24 90.8376C302.409 91.2419 302.648 91.5551 302.956 91.7772C303.268 91.9993 303.634 92.1103 304.055 92.1103C304.337 92.1103 304.592 92.0589 304.82 91.9562C305.052 91.8501 305.246 91.6993 305.402 91.5038C305.561 91.3082 305.672 91.0729 305.735 90.7978H307.182C307.129 91.2916 306.968 91.7325 306.7 92.1202C306.431 92.508 306.072 92.8129 305.621 93.035C305.173 93.2571 304.648 93.3681 304.045 93.3681ZM308.04 86.8603V85.5776H314.483V86.8603H311.992V93.214H310.54V86.8603H308.04ZM318.762 93.3681C318.046 93.3681 317.422 93.204 316.888 92.8759C316.354 92.5478 315.94 92.0888 315.645 91.4988C315.35 90.9088 315.203 90.2194 315.203 89.4306C315.203 88.6385 315.35 87.9458 315.645 87.3525C315.94 86.7592 316.354 86.2985 316.888 85.9704C317.422 85.6423 318.046 85.4782 318.762 85.4782C319.478 85.4782 320.103 85.6423 320.637 85.9704C321.17 86.2985 321.584 86.7592 321.879 87.3525C322.174 87.9458 322.322 88.6385 322.322 89.4306C322.322 90.2194 322.174 90.9088 321.879 91.4988C321.584 92.0888 321.17 92.5478 320.637 92.8759C320.103 93.204 319.478 93.3681 318.762 93.3681ZM318.767 92.1202C319.231 92.1202 319.616 91.9976 319.921 91.7523C320.226 91.5071 320.451 91.1806 320.597 90.7729C320.746 90.3653 320.82 89.9162 320.82 89.4256C320.82 88.9384 320.746 88.491 320.597 88.0833C320.451 87.6723 320.226 87.3425 319.921 87.094C319.616 86.8454 319.231 86.7211 318.767 86.7211C318.3 86.7211 317.912 86.8454 317.604 87.094C317.299 87.3425 317.072 87.6723 316.923 88.0833C316.777 88.491 316.704 88.9384 316.704 89.4256C316.704 89.9162 316.777 90.3653 316.923 90.7729C317.072 91.1806 317.299 91.5071 317.604 91.7523C317.912 91.9976 318.3 92.1202 318.767 92.1202ZM323.827 96.0776V85.5776H325.279V86.8156H325.403C325.489 86.6565 325.614 86.4725 325.776 86.2637C325.938 86.0549 326.164 85.8726 326.452 85.7168C326.741 85.5577 327.122 85.4782 327.596 85.4782C328.212 85.4782 328.762 85.634 329.246 85.9455C329.73 86.2571 330.11 86.7062 330.385 87.2928C330.663 87.8795 330.802 88.5854 330.802 89.4107C330.802 90.236 330.665 90.9436 330.39 91.5336C330.115 92.1202 329.737 92.5727 329.256 92.8908C328.776 93.2057 328.227 93.3631 327.611 93.3631C327.147 93.3631 326.767 93.2852 326.472 93.1295C326.18 92.9737 325.952 92.7914 325.786 92.5826C325.62 92.3738 325.493 92.1882 325.403 92.0258H325.314V96.0776H323.827ZM325.284 89.3958C325.284 89.9327 325.362 90.4034 325.517 90.8077C325.673 91.2121 325.899 91.5286 326.194 91.7573C326.489 91.9827 326.85 92.0954 327.277 92.0954C327.722 92.0954 328.093 91.9777 328.391 91.7424C328.689 91.5038 328.915 91.1806 329.067 90.7729C329.223 90.3653 329.301 89.9062 329.301 89.3958C329.301 88.892 329.225 88.4396 329.072 88.0386C328.923 87.6375 328.698 87.321 328.396 87.089C328.098 86.857 327.725 86.741 327.277 86.741C326.847 86.741 326.482 86.852 326.184 87.0741C325.889 87.2961 325.665 87.606 325.513 88.0038C325.36 88.4015 325.284 88.8655 325.284 89.3958ZM332.314 93.214V85.5776H333.8V93.214H332.314ZM333.064 84.3994C332.806 84.3994 332.584 84.3132 332.398 84.1408C332.216 83.9652 332.125 83.7564 332.125 83.5144C332.125 83.2691 332.216 83.0603 332.398 82.888C332.584 82.7123 332.806 82.6245 333.064 82.6245C333.323 82.6245 333.543 82.7123 333.726 82.888C333.911 83.0603 334.004 83.2691 334.004 83.5144C334.004 83.7564 333.911 83.9652 333.726 84.1408C333.543 84.3132 333.323 84.3994 333.064 84.3994ZM340.2 93.214V86.8454H338.371C337.936 86.8454 337.598 86.9465 337.356 87.1486C337.114 87.3508 336.993 87.616 336.993 87.9441C336.993 88.2689 337.104 88.5308 337.327 88.7296C337.552 88.9252 337.867 89.0229 338.271 89.0229H340.633V90.2261H338.271C337.708 90.2261 337.22 90.1333 336.809 89.9477C336.402 89.7587 336.087 89.4919 335.865 89.1472C335.646 88.8025 335.537 88.3949 335.537 87.9242C335.537 87.4436 335.649 87.0293 335.875 86.6813C336.103 86.33 336.43 86.0582 336.854 85.866C337.282 85.6737 337.787 85.5776 338.371 85.5776H341.597V93.214H340.2ZM335.189 93.214L337.341 89.356H338.863L336.71 93.214H335.189ZM352.148 88.7545V90.0421H348.012V88.7545H352.148ZM348.43 85.5776V93.214H346.973V85.5776H348.43ZM353.187 85.5776V93.214H351.736V85.5776H353.187ZM358.313 93.3681C357.561 93.3681 356.913 93.2074 356.369 92.8859C355.829 92.5611 355.411 92.1053 355.116 91.5187C354.825 90.9287 354.679 90.2377 354.679 89.4455C354.679 88.6633 354.825 87.9739 355.116 87.3773C355.411 86.7808 355.822 86.3151 356.349 85.9803C356.88 85.6456 357.5 85.4782 358.209 85.4782C358.64 85.4782 359.057 85.5495 359.462 85.692C359.866 85.8345 360.229 86.0582 360.55 86.3631C360.872 86.6681 361.125 87.0641 361.311 87.5513C361.497 88.0352 361.589 88.6236 361.589 89.3163V89.8433H355.519V88.7296H360.133C360.133 88.3385 360.053 87.9922 359.894 87.6906C359.735 87.3856 359.511 87.1453 359.223 86.9697C358.938 86.794 358.603 86.7062 358.219 86.7062C357.801 86.7062 357.437 86.8089 357.125 87.0144C356.817 87.2166 356.578 87.4817 356.409 87.8099C356.243 88.1347 356.16 88.4877 356.16 88.8688V89.7388C356.16 90.2493 356.25 90.6834 356.429 91.0414C356.611 91.3994 356.865 91.6728 357.19 91.8617C357.514 92.0473 357.894 92.1401 358.328 92.1401C358.61 92.1401 358.867 92.1004 359.099 92.0208C359.331 91.9379 359.531 91.8153 359.7 91.6529C359.869 91.4905 359.999 91.29 360.088 91.0513L361.495 91.3049C361.382 91.7192 361.18 92.0821 360.888 92.3937C360.6 92.7019 360.237 92.9422 359.8 93.1146C359.366 93.2836 358.87 93.3681 358.313 93.3681ZM363.085 96.0776V85.5776H364.536V86.8156H364.661C364.747 86.6565 364.871 86.4725 365.034 86.2637C365.196 86.0549 365.421 85.8726 365.71 85.7168C365.998 85.5577 366.379 85.4782 366.853 85.4782C367.47 85.4782 368.02 85.634 368.504 85.9455C368.988 86.2571 369.367 86.7062 369.642 87.2928C369.921 87.8795 370.06 88.5854 370.06 89.4107C370.06 90.236 369.922 90.9436 369.647 91.5336C369.372 92.1202 368.994 92.5727 368.514 92.8908C368.033 93.2057 367.485 93.3631 366.868 93.3631C366.404 93.3631 366.025 93.2852 365.73 93.1295C365.438 92.9737 365.209 92.7914 365.044 92.5826C364.878 92.3738 364.75 92.1882 364.661 92.0258H364.571V96.0776H363.085ZM364.541 89.3958C364.541 89.9327 364.619 90.4034 364.775 90.8077C364.931 91.2121 365.156 91.5286 365.451 91.7573C365.746 91.9827 366.108 92.0954 366.535 92.0954C366.979 92.0954 367.35 91.9777 367.649 91.7424C367.947 91.5038 368.172 91.1806 368.325 90.7729C368.481 90.3653 368.559 89.9062 368.559 89.3958C368.559 88.892 368.482 88.4396 368.33 88.0386C368.181 87.6375 367.955 87.321 367.654 87.089C367.355 86.857 366.983 86.741 366.535 86.741C366.104 86.741 365.74 86.852 365.441 87.0741C365.146 87.2961 364.923 87.606 364.77 88.0038C364.618 88.4015 364.541 88.8655 364.541 89.3958ZM372.251 96.0776C372.029 96.0776 371.827 96.0594 371.645 96.0229C371.462 95.9898 371.327 95.9533 371.237 95.9136L371.595 94.6955C371.867 94.7684 372.109 94.7999 372.321 94.79C372.533 94.78 372.72 94.7005 372.883 94.5513C373.048 94.4022 373.194 94.1586 373.32 93.8205L373.504 93.3134L370.71 85.5776H372.301L374.235 91.5038H374.314L376.248 85.5776H377.844L374.697 94.2332C374.551 94.6309 374.366 94.9673 374.14 95.2424C373.915 95.5208 373.647 95.7296 373.335 95.8688C373.024 96.008 372.662 96.0776 372.251 96.0776ZM380.261 85.5776L381.946 88.5506L383.646 85.5776H385.272L382.891 89.3958L385.292 93.214H383.666L381.946 90.3603L380.231 93.214H378.6L380.977 89.3958L378.63 85.5776H380.261ZM389.56 93.3681C388.844 93.3681 388.219 93.204 387.686 92.8759C387.152 92.5478 386.738 92.0888 386.443 91.4988C386.148 90.9088 386 90.2194 386 89.4306C386 88.6385 386.148 87.9458 386.443 87.3525C386.738 86.7592 387.152 86.2985 387.686 85.9704C388.219 85.6423 388.844 85.4782 389.56 85.4782C390.276 85.4782 390.901 85.6423 391.434 85.9704C391.968 86.2985 392.382 86.7592 392.677 87.3525C392.972 87.9458 393.12 88.6385 393.12 89.4306C393.12 90.2194 392.972 90.9088 392.677 91.4988C392.382 92.0888 391.968 92.5478 391.434 92.8759C390.901 93.204 390.276 93.3681 389.56 93.3681ZM389.565 92.1202C390.029 92.1202 390.414 91.9976 390.718 91.7523C391.023 91.5071 391.249 91.1806 391.395 90.7729C391.544 90.3653 391.618 89.9162 391.618 89.4256C391.618 88.9384 391.544 88.491 391.395 88.0833C391.249 87.6723 391.023 87.3425 390.718 87.094C390.414 86.8454 390.029 86.7211 389.565 86.7211C389.098 86.7211 388.71 86.8454 388.402 87.094C388.097 87.3425 387.87 87.6723 387.721 88.0833C387.575 88.491 387.502 88.9384 387.502 89.4256C387.502 89.9162 387.575 90.3653 387.721 90.7729C387.87 91.1806 388.097 91.5071 388.402 91.7523C388.71 91.9976 389.098 92.1202 389.565 92.1202ZM398.911 91.3745L401.376 85.5776H402.659L399.462 93.214H398.359L395.227 85.5776H396.494L398.911 91.3745ZM396.082 85.5776V93.214H394.625V85.5776H396.082ZM401.779 93.214V85.5776H403.226V93.214H401.779ZM408.27 93.3681C407.554 93.3681 406.929 93.204 406.395 92.8759C405.862 92.5478 405.447 92.0888 405.153 91.4988C404.858 90.9088 404.71 90.2194 404.71 89.4306C404.71 88.6385 404.858 87.9458 405.153 87.3525C405.447 86.7592 405.862 86.2985 406.395 85.9704C406.929 85.6423 407.554 85.4782 408.27 85.4782C408.986 85.4782 409.61 85.6423 410.144 85.9704C410.678 86.2985 411.092 86.7592 411.387 87.3525C411.682 87.9458 411.829 88.6385 411.829 89.4306C411.829 90.2194 411.682 90.9088 411.387 91.4988C411.092 92.0888 410.678 92.5478 410.144 92.8759C409.61 93.204 408.986 93.3681 408.27 93.3681ZM408.275 92.1202C408.739 92.1202 409.123 91.9976 409.428 91.7523C409.733 91.5071 409.958 91.1806 410.104 90.7729C410.253 90.3653 410.328 89.9162 410.328 89.4256C410.328 88.9384 410.253 88.491 410.104 88.0833C409.958 87.6723 409.733 87.3425 409.428 87.094C409.123 86.8454 408.739 86.7211 408.275 86.7211C407.807 86.7211 407.42 86.8454 407.111 87.094C406.806 87.3425 406.579 87.6723 406.43 88.0833C406.284 88.491 406.211 88.9384 406.211 89.4256C406.211 89.9162 406.284 90.3653 406.43 90.7729C406.579 91.1806 406.806 91.5071 407.111 91.7523C407.42 91.9976 407.807 92.1202 408.275 92.1202ZM416.551 93.3681C415.812 93.3681 415.176 93.2007 414.642 92.866C414.112 92.5279 413.704 92.0622 413.419 91.469C413.134 90.8757 412.992 90.1962 412.992 89.4306C412.992 88.655 413.137 87.9706 413.429 87.3773C413.721 86.7808 414.132 86.3151 414.662 85.9803C415.192 85.6456 415.817 85.4782 416.536 85.4782C417.116 85.4782 417.633 85.5859 418.087 85.8013C418.542 86.0135 418.908 86.3118 419.186 86.6962C419.468 87.0807 419.635 87.5298 419.688 88.0435H418.242C418.162 87.6856 417.98 87.3773 417.695 87.1188C417.413 86.8603 417.035 86.731 416.561 86.731C416.147 86.731 415.784 86.8404 415.472 87.0592C415.164 87.2746 414.924 87.5828 414.752 87.9839C414.579 88.3816 414.493 88.8522 414.493 89.3958C414.493 89.9526 414.578 90.4332 414.747 90.8376C414.916 91.2419 415.154 91.5551 415.462 91.7772C415.774 91.9993 416.14 92.1103 416.561 92.1103C416.843 92.1103 417.098 92.0589 417.327 91.9562C417.559 91.8501 417.753 91.6993 417.908 91.5038C418.068 91.3082 418.179 91.0729 418.242 90.7978H419.688C419.635 91.2916 419.475 91.7325 419.206 92.1202C418.938 92.508 418.578 92.8129 418.127 93.035C417.68 93.2571 417.154 93.3681 416.551 93.3681ZM420.546 86.8603V85.5776H426.989V86.8603H424.498V93.214H423.047V86.8603H420.546ZM428.407 93.214V85.5776H429.894V93.214H428.407ZM429.158 84.3994C428.9 84.3994 428.678 84.3132 428.492 84.1408C428.31 83.9652 428.219 83.7564 428.219 83.5144C428.219 83.2691 428.31 83.0603 428.492 82.888C428.678 82.7123 428.9 82.6245 429.158 82.6245C429.417 82.6245 429.637 82.7123 429.819 82.888C430.005 83.0603 430.098 83.2691 430.098 83.5144C430.098 83.7564 430.005 83.9652 429.819 84.1408C429.637 84.3132 429.417 84.3994 429.158 84.3994Z" fill="black" fill-opacity="0.8"/>
<rect x="287.552" y="132.714" width="152" height="41" rx="3" fill="#BDE3FF" fill-opacity="0.7" stroke="#97BDF6" stroke-miterlimit="0" stroke-linecap="round"/>
<path d="M329.131 149.032H330.996L334.237 156.947H334.356L337.598 149.032H339.462V159.214H338.001V151.846H337.906L334.903 159.199H333.69L330.687 151.841H330.593V159.214H329.131V149.032ZM343.645 159.383C343.161 159.383 342.723 159.294 342.332 159.115C341.941 158.932 341.631 158.669 341.403 158.324C341.177 157.979 341.065 157.557 341.065 157.056C341.065 156.625 341.147 156.271 341.313 155.992C341.479 155.714 341.703 155.494 341.984 155.331C342.266 155.169 342.581 155.046 342.929 154.963C343.277 154.88 343.632 154.817 343.993 154.774C344.45 154.721 344.821 154.678 345.106 154.645C345.391 154.609 345.599 154.551 345.728 154.471C345.857 154.392 345.922 154.262 345.922 154.083V154.049C345.922 153.614 345.799 153.278 345.554 153.039C345.312 152.801 344.951 152.681 344.47 152.681C343.97 152.681 343.575 152.792 343.287 153.014C343.002 153.233 342.805 153.477 342.695 153.745L341.298 153.427C341.464 152.963 341.706 152.589 342.024 152.303C342.346 152.015 342.715 151.806 343.133 151.677C343.55 151.544 343.989 151.478 344.45 151.478C344.755 151.478 345.078 151.515 345.42 151.588C345.764 151.657 346.086 151.786 346.384 151.975C346.686 152.164 346.933 152.434 347.125 152.786C347.317 153.134 347.413 153.586 347.413 154.143V159.214H345.962V158.17H345.902C345.806 158.362 345.662 158.551 345.469 158.737C345.277 158.922 345.03 159.076 344.729 159.199C344.427 159.322 344.066 159.383 343.645 159.383ZM343.968 158.19C344.379 158.19 344.73 158.109 345.022 157.946C345.317 157.784 345.541 157.572 345.693 157.31C345.849 157.045 345.927 156.761 345.927 156.46V155.475C345.874 155.528 345.771 155.578 345.618 155.625C345.469 155.668 345.299 155.706 345.106 155.739C344.914 155.769 344.727 155.797 344.545 155.823C344.362 155.847 344.21 155.866 344.087 155.883C343.799 155.919 343.535 155.981 343.297 156.067C343.061 156.153 342.873 156.277 342.73 156.44C342.591 156.599 342.521 156.811 342.521 157.076C342.521 157.444 342.657 157.723 342.929 157.911C343.201 158.097 343.547 158.19 343.968 158.19ZM348.292 152.86V151.578H354.735V152.86H352.244V159.214H350.793V152.86H348.292ZM359.089 159.368C358.337 159.368 357.689 159.207 357.145 158.886C356.605 158.561 356.188 158.105 355.893 157.519C355.601 156.929 355.455 156.238 355.455 155.446C355.455 154.663 355.601 153.974 355.893 153.377C356.188 152.781 356.598 152.315 357.125 151.98C357.656 151.646 358.276 151.478 358.985 151.478C359.416 151.478 359.833 151.549 360.238 151.692C360.642 151.834 361.005 152.058 361.326 152.363C361.648 152.668 361.902 153.064 362.087 153.551C362.273 154.035 362.366 154.624 362.366 155.316V155.843H356.295V154.73H360.909C360.909 154.339 360.829 153.992 360.67 153.691C360.511 153.386 360.287 153.145 359.999 152.97C359.714 152.794 359.379 152.706 358.995 152.706C358.577 152.706 358.213 152.809 357.901 153.014C357.593 153.217 357.354 153.482 357.185 153.81C357.019 154.135 356.937 154.488 356.937 154.869V155.739C356.937 156.249 357.026 156.683 357.205 157.041C357.387 157.399 357.641 157.673 357.966 157.862C358.29 158.047 358.67 158.14 359.104 158.14C359.386 158.14 359.643 158.1 359.875 158.021C360.107 157.938 360.307 157.815 360.476 157.653C360.645 157.491 360.775 157.29 360.864 157.051L362.271 157.305C362.158 157.719 361.956 158.082 361.665 158.394C361.376 158.702 361.013 158.942 360.576 159.115C360.142 159.284 359.646 159.368 359.089 159.368ZM363.861 162.078V151.578H365.313V152.816H365.437C365.523 152.656 365.647 152.473 365.81 152.264C365.972 152.055 366.198 151.873 366.486 151.717C366.774 151.558 367.155 151.478 367.629 151.478C368.246 151.478 368.796 151.634 369.28 151.946C369.764 152.257 370.143 152.706 370.418 153.293C370.697 153.879 370.836 154.585 370.836 155.411C370.836 156.236 370.698 156.944 370.423 157.534C370.148 158.12 369.77 158.573 369.29 158.891C368.809 159.206 368.261 159.363 367.644 159.363C367.18 159.363 366.801 159.285 366.506 159.129C366.214 158.974 365.985 158.791 365.82 158.583C365.654 158.374 365.526 158.188 365.437 158.026H365.347V162.078H363.861ZM365.318 155.396C365.318 155.933 365.395 156.403 365.551 156.808C365.707 157.212 365.932 157.529 366.227 157.757C366.522 157.983 366.884 158.095 367.311 158.095C367.755 158.095 368.126 157.978 368.425 157.742C368.723 157.504 368.948 157.181 369.101 156.773C369.257 156.365 369.335 155.906 369.335 155.396C369.335 154.892 369.258 154.44 369.106 154.039C368.957 153.638 368.731 153.321 368.43 153.089C368.131 152.857 367.759 152.741 367.311 152.741C366.88 152.741 366.516 152.852 366.217 153.074C365.922 153.296 365.699 153.606 365.546 154.004C365.394 154.401 365.318 154.866 365.318 155.396ZM372.347 159.214V151.578H373.834V159.214H372.347ZM373.098 150.399C372.84 150.399 372.618 150.313 372.432 150.141C372.25 149.965 372.159 149.756 372.159 149.514C372.159 149.269 372.25 149.06 372.432 148.888C372.618 148.712 372.84 148.625 373.098 148.625C373.357 148.625 373.577 148.712 373.759 148.888C373.945 149.06 374.038 149.269 374.038 149.514C374.038 149.756 373.945 149.965 373.759 150.141C373.577 150.313 373.357 150.399 373.098 150.399ZM377.902 159.383C377.418 159.383 376.981 159.294 376.59 159.115C376.199 158.932 375.889 158.669 375.66 158.324C375.435 157.979 375.322 157.557 375.322 157.056C375.322 156.625 375.405 156.271 375.57 155.992C375.736 155.714 375.96 155.494 376.242 155.331C376.523 155.169 376.838 155.046 377.186 154.963C377.534 154.88 377.889 154.817 378.25 154.774C378.708 154.721 379.079 154.678 379.364 154.645C379.649 154.609 379.856 154.551 379.985 154.471C380.114 154.392 380.179 154.262 380.179 154.083V154.049C380.179 153.614 380.056 153.278 379.811 153.039C379.569 152.801 379.208 152.681 378.727 152.681C378.227 152.681 377.833 152.792 377.544 153.014C377.259 153.233 377.062 153.477 376.953 153.745L375.556 153.427C375.721 152.963 375.963 152.589 376.281 152.303C376.603 152.015 376.972 151.806 377.39 151.677C377.808 151.544 378.247 151.478 378.708 151.478C379.012 151.478 379.336 151.515 379.677 151.588C380.022 151.657 380.343 151.786 380.641 151.975C380.943 152.164 381.19 152.434 381.382 152.786C381.574 153.134 381.671 153.586 381.671 154.143V159.214H380.219V158.17H380.159C380.063 158.362 379.919 158.551 379.727 158.737C379.534 158.922 379.288 159.076 378.986 159.199C378.684 159.322 378.323 159.383 377.902 159.383ZM378.225 158.19C378.636 158.19 378.988 158.109 379.279 157.946C379.574 157.784 379.798 157.572 379.95 157.31C380.106 157.045 380.184 156.761 380.184 156.46V155.475C380.131 155.528 380.028 155.578 379.876 155.625C379.727 155.668 379.556 155.706 379.364 155.739C379.172 155.769 378.984 155.797 378.802 155.823C378.62 155.847 378.467 155.866 378.345 155.883C378.056 155.919 377.793 155.981 377.554 156.067C377.319 156.153 377.13 156.277 376.987 156.44C376.848 156.599 376.779 156.811 376.779 157.076C376.779 157.444 376.914 157.723 377.186 157.911C377.458 158.097 377.804 158.19 378.225 158.19ZM382.895 159.214L382.89 157.926H383.163C383.376 157.926 383.553 157.882 383.695 157.792C383.841 157.699 383.961 157.544 384.053 157.325C384.146 157.106 384.217 156.804 384.267 156.42C384.317 156.032 384.353 155.545 384.376 154.958L384.511 151.578H389.84V159.214H388.384V152.86H385.888L385.769 155.455C385.739 156.085 385.674 156.635 385.575 157.106C385.479 157.577 385.338 157.969 385.152 158.284C384.966 158.596 384.728 158.83 384.436 158.985C384.144 159.138 383.79 159.214 383.372 159.214H382.895ZM393.125 157.131L396.491 151.578H398.092V159.214H396.635V153.656L393.284 159.214H391.669V151.578H393.125V157.131Z" fill="black" fill-opacity="0.8"/>
<rect x="287.552" y="198.714" width="152" height="41" rx="3" fill="#BDE3FF" fill-opacity="0.7" stroke="#97BDF6" stroke-miterlimit="0" stroke-linecap="round"/>
<path d="M309.681 220.123C309.681 221.21 309.482 222.145 309.084 222.927C308.686 223.706 308.141 224.306 307.449 224.727C306.759 225.144 305.975 225.353 305.097 225.353C304.215 225.353 303.428 225.144 302.735 224.727C302.046 224.306 301.503 223.704 301.105 222.922C300.707 222.14 300.508 221.207 300.508 220.123C300.508 219.036 300.707 218.103 301.105 217.324C301.503 216.542 302.046 215.942 302.735 215.524C303.428 215.103 304.215 214.893 305.097 214.893C305.975 214.893 306.759 215.103 307.449 215.524C308.141 215.942 308.686 216.542 309.084 217.324C309.482 218.103 309.681 219.036 309.681 220.123ZM308.16 220.123C308.16 219.294 308.025 218.597 307.757 218.03C307.492 217.46 307.127 217.029 306.663 216.737C306.202 216.442 305.68 216.295 305.097 216.295C304.51 216.295 303.987 216.442 303.526 216.737C303.065 217.029 302.701 217.46 302.432 218.03C302.167 218.597 302.035 219.294 302.035 220.123C302.035 220.952 302.167 221.651 302.432 222.221C302.701 222.788 303.065 223.219 303.526 223.514C303.987 223.805 304.51 223.951 305.097 223.951C305.68 223.951 306.202 223.805 306.663 223.514C307.127 223.219 307.492 222.788 307.757 222.221C308.025 221.651 308.16 220.952 308.16 220.123ZM316.498 220.754V222.042H312.362V220.754H316.498ZM312.779 217.578V225.214H311.323V217.578H312.779ZM317.537 217.578V225.214H316.086V217.578H317.537ZM318.77 225.214L318.765 223.926H319.039C319.251 223.926 319.428 223.882 319.571 223.792C319.717 223.699 319.836 223.544 319.929 223.325C320.022 223.106 320.093 222.804 320.143 222.42C320.192 222.032 320.229 221.545 320.252 220.958L320.386 217.578H325.716V225.214H324.259V218.86H321.763L321.644 221.455C321.614 222.085 321.549 222.635 321.45 223.106C321.354 223.577 321.213 223.969 321.027 224.284C320.842 224.596 320.603 224.83 320.312 224.985C320.02 225.138 319.665 225.214 319.248 225.214H318.77ZM329.766 225.383C329.282 225.383 328.845 225.294 328.454 225.115C328.063 224.932 327.753 224.669 327.524 224.324C327.299 223.979 327.186 223.557 327.186 223.056C327.186 222.625 327.269 222.271 327.435 221.992C327.6 221.714 327.824 221.494 328.106 221.331C328.388 221.169 328.702 221.046 329.05 220.963C329.398 220.88 329.753 220.817 330.114 220.774C330.572 220.721 330.943 220.678 331.228 220.645C331.513 220.609 331.72 220.551 331.849 220.471C331.979 220.392 332.043 220.262 332.043 220.083V220.049C332.043 219.614 331.921 219.278 331.675 219.039C331.434 218.801 331.072 218.681 330.592 218.681C330.091 218.681 329.697 218.792 329.408 219.014C329.123 219.233 328.926 219.477 328.817 219.745L327.42 219.427C327.586 218.963 327.827 218.589 328.146 218.303C328.467 218.015 328.837 217.806 329.254 217.677C329.672 217.544 330.111 217.478 330.572 217.478C330.877 217.478 331.2 217.515 331.541 217.588C331.886 217.657 332.207 217.786 332.506 217.975C332.807 218.164 333.054 218.434 333.247 218.786C333.439 219.134 333.535 219.586 333.535 220.143V225.214H332.083V224.17H332.023C331.927 224.362 331.783 224.551 331.591 224.737C331.399 224.922 331.152 225.076 330.85 225.199C330.549 225.322 330.187 225.383 329.766 225.383ZM330.09 224.19C330.501 224.19 330.852 224.109 331.144 223.946C331.439 223.784 331.662 223.572 331.815 223.31C331.97 223.045 332.048 222.761 332.048 222.46V221.475C331.995 221.528 331.893 221.578 331.74 221.625C331.591 221.668 331.42 221.706 331.228 221.739C331.036 221.769 330.849 221.797 330.666 221.823C330.484 221.847 330.332 221.866 330.209 221.883C329.921 221.919 329.657 221.981 329.418 222.067C329.183 222.153 328.994 222.277 328.852 222.44C328.712 222.599 328.643 222.811 328.643 223.076C328.643 223.444 328.779 223.723 329.05 223.911C329.322 224.097 329.669 224.19 330.09 224.19ZM336.817 223.131L340.183 217.578H341.784V225.214H340.327V219.656L336.977 225.214H335.361V217.578H336.817V223.131ZM339.547 214.992H340.77C340.77 215.553 340.571 216.008 340.173 216.36C339.779 216.708 339.245 216.882 338.572 216.882C337.903 216.882 337.371 216.708 336.977 216.36C336.582 216.008 336.385 215.553 336.385 214.992H337.603C337.603 215.241 337.676 215.461 337.822 215.654C337.968 215.843 338.218 215.937 338.572 215.937C338.92 215.937 339.169 215.843 339.318 215.654C339.471 215.465 339.547 215.244 339.547 214.992ZM348.804 220.754V222.042H344.668V220.754H348.804ZM345.085 217.578V225.214H343.629V217.578H345.085ZM349.843 217.578V225.214H348.391V217.578H349.843ZM356.177 220.267V221.555H351.663V220.267H356.177ZM358.004 225.214V217.578H364.234V225.214H362.777V218.86H359.451V225.214H358.004ZM366.067 225.214V217.578H367.554V225.214H366.067ZM366.818 216.399C366.559 216.399 366.337 216.313 366.152 216.141C365.969 215.965 365.878 215.756 365.878 215.514C365.878 215.269 365.969 215.06 366.152 214.888C366.337 214.712 366.559 214.625 366.818 214.625C367.076 214.625 367.297 214.712 367.479 214.888C367.665 215.06 367.757 215.269 367.757 215.514C367.757 215.756 367.665 215.965 367.479 216.141C367.297 216.313 367.076 216.399 366.818 216.399ZM368.654 227.416V223.926H369.275C369.434 223.781 369.568 223.607 369.678 223.404C369.79 223.202 369.885 222.962 369.961 222.683C370.041 222.405 370.107 222.08 370.16 221.709C370.213 221.334 370.259 220.907 370.299 220.426L370.538 217.578H375.728V223.926H376.902V227.416H375.45V225.214H370.125V227.416H368.654ZM370.866 223.926H374.277V218.85H371.87L371.711 220.426C371.635 221.228 371.539 221.924 371.423 222.514C371.307 223.101 371.121 223.572 370.866 223.926ZM377.773 218.86V217.578H384.216V218.86H381.725V225.214H380.274V218.86H377.773ZM385.634 228.078V217.578H387.086V218.816H387.21C387.297 218.656 387.421 218.473 387.583 218.264C387.746 218.055 387.971 217.873 388.259 217.717C388.548 217.558 388.929 217.478 389.403 217.478C390.019 217.478 390.569 217.634 391.053 217.946C391.537 218.257 391.917 218.706 392.192 219.293C392.47 219.879 392.61 220.585 392.61 221.411C392.61 222.236 392.472 222.944 392.197 223.534C391.922 224.12 391.544 224.573 391.063 224.891C390.583 225.206 390.034 225.363 389.418 225.363C388.954 225.363 388.574 225.285 388.279 225.129C387.988 224.974 387.759 224.791 387.593 224.583C387.427 224.374 387.3 224.188 387.21 224.026H387.121V228.078H385.634ZM387.091 221.396C387.091 221.933 387.169 222.403 387.325 222.808C387.48 223.212 387.706 223.529 388.001 223.757C388.296 223.983 388.657 224.095 389.085 224.095C389.529 224.095 389.9 223.978 390.198 223.742C390.497 223.504 390.722 223.181 390.874 222.773C391.03 222.365 391.108 221.906 391.108 221.396C391.108 220.892 391.032 220.44 390.879 220.039C390.73 219.638 390.505 219.321 390.203 219.089C389.905 218.857 389.532 218.741 389.085 218.741C388.654 218.741 388.289 218.852 387.991 219.074C387.696 219.296 387.472 219.606 387.32 220.004C387.167 220.401 387.091 220.866 387.091 221.396ZM395.578 223.131L398.943 217.578H400.544V225.214H399.088V219.656L395.737 225.214H394.121V217.578H395.578V223.131ZM406.674 223.375L409.14 217.578H410.423L407.226 225.214H406.123L402.99 217.578H404.258L406.674 223.375ZM403.846 217.578V225.214H402.389V217.578H403.846ZM409.543 225.214V217.578H410.99V225.214H409.543ZM412.817 225.214V217.578H414.303V220.779H415.019L417.54 217.578H419.379L416.421 221.291L419.414 225.214H417.57L415.268 222.161H414.303V225.214H412.817ZM422.637 225.383C422.153 225.383 421.716 225.294 421.325 225.115C420.934 224.932 420.624 224.669 420.395 224.324C420.17 223.979 420.057 223.557 420.057 223.056C420.057 222.625 420.14 222.271 420.305 221.992C420.471 221.714 420.695 221.494 420.977 221.331C421.258 221.169 421.573 221.046 421.921 220.963C422.269 220.88 422.624 220.817 422.985 220.774C423.443 220.721 423.814 220.678 424.099 220.645C424.384 220.609 424.591 220.551 424.72 220.471C424.85 220.392 424.914 220.262 424.914 220.083V220.049C424.914 219.614 424.792 219.278 424.546 219.039C424.304 218.801 423.943 218.681 423.462 218.681C422.962 218.681 422.568 218.792 422.279 219.014C421.994 219.233 421.797 219.477 421.688 219.745L420.291 219.427C420.456 218.963 420.698 218.589 421.016 218.303C421.338 218.015 421.707 217.806 422.125 217.677C422.543 217.544 422.982 217.478 423.443 217.478C423.747 217.478 424.071 217.515 424.412 217.588C424.757 217.657 425.078 217.786 425.376 217.975C425.678 218.164 425.925 218.434 426.117 218.786C426.309 219.134 426.406 219.586 426.406 220.143V225.214H424.954V224.17H424.894C424.798 224.362 424.654 224.551 424.462 224.737C424.269 224.922 424.023 225.076 423.721 225.199C423.419 225.322 423.058 225.383 422.637 225.383ZM422.96 224.19C423.371 224.19 423.723 224.109 424.014 223.946C424.309 223.784 424.533 223.572 424.685 223.31C424.841 223.045 424.919 222.761 424.919 222.46V221.475C424.866 221.528 424.763 221.578 424.611 221.625C424.462 221.668 424.291 221.706 424.099 221.739C423.907 221.769 423.719 221.797 423.537 221.823C423.355 221.847 423.202 221.866 423.08 221.883C422.791 221.919 422.528 221.981 422.289 222.067C422.054 222.153 421.865 222.277 421.722 222.44C421.583 222.599 421.514 222.811 421.514 223.076C421.514 223.444 421.649 223.723 421.921 223.911C422.193 224.097 422.539 224.19 422.96 224.19Z" fill="black" fill-opacity="0.8"/>
<rect x="287.552" y="264.714" width="152" height="42" rx="3" fill="#BDE3FF" fill-opacity="0.7" stroke="#97BDF6" stroke-miterlimit="0" stroke-linecap="round"/>
<path d="M316.346 284.343H314.795C314.735 284.012 314.624 283.72 314.462 283.468C314.299 283.216 314.1 283.003 313.865 282.827C313.63 282.651 313.366 282.519 313.075 282.429C312.786 282.34 312.48 282.295 312.155 282.295C311.568 282.295 311.043 282.442 310.579 282.737C310.118 283.032 309.754 283.465 309.485 284.035C309.22 284.605 309.087 285.301 309.087 286.123C309.087 286.952 309.22 287.651 309.485 288.221C309.754 288.791 310.12 289.222 310.584 289.514C311.048 289.805 311.57 289.951 312.15 289.951C312.471 289.951 312.776 289.908 313.065 289.822C313.356 289.732 313.62 289.602 313.855 289.429C314.09 289.257 314.289 289.046 314.452 288.798C314.617 288.546 314.732 288.258 314.795 287.933L316.346 287.938C316.263 288.438 316.102 288.899 315.864 289.32C315.628 289.737 315.325 290.099 314.954 290.404C314.586 290.705 314.165 290.939 313.691 291.105C313.217 291.27 312.7 291.353 312.14 291.353C311.258 291.353 310.473 291.144 309.783 290.727C309.094 290.306 308.55 289.704 308.153 288.922C307.758 288.14 307.561 287.207 307.561 286.123C307.561 285.036 307.76 284.103 308.158 283.324C308.555 282.542 309.099 281.942 309.788 281.524C310.478 281.103 311.262 280.893 312.14 280.893C312.68 280.893 313.184 280.971 313.651 281.127C314.122 281.279 314.545 281.504 314.919 281.803C315.294 282.098 315.603 282.459 315.849 282.887C316.094 283.311 316.26 283.796 316.346 284.343ZM318.03 291.214V281.032H321.659C322.448 281.032 323.103 281.168 323.623 281.44C324.147 281.712 324.538 282.088 324.796 282.568C325.055 283.046 325.184 283.598 325.184 284.224C325.184 284.847 325.053 285.396 324.792 285.87C324.533 286.34 324.142 286.706 323.618 286.968C323.098 287.23 322.443 287.361 321.654 287.361H318.905V286.039H321.515C322.012 286.039 322.417 285.967 322.728 285.825C323.043 285.682 323.274 285.475 323.419 285.203C323.565 284.932 323.638 284.605 323.638 284.224C323.638 283.839 323.564 283.506 323.414 283.225C323.269 282.943 323.038 282.727 322.723 282.578C322.412 282.426 322.002 282.35 321.495 282.35H319.566V291.214H318.03ZM323.056 286.62L325.572 291.214H323.822L321.356 286.62H323.056ZM326.9 281.032H328.764L332.005 288.947H332.125L335.366 281.032H337.231V291.214H335.769V283.846H335.674L332.672 291.199H331.459L328.456 283.841H328.361V291.214H326.9V281.032ZM341.996 293.416V289.926H342.618C342.777 289.781 342.911 289.607 343.02 289.404C343.133 289.202 343.227 288.962 343.304 288.683C343.383 288.405 343.449 288.08 343.502 287.709C343.555 287.334 343.602 286.907 343.642 286.426L343.88 283.578H349.071V289.926H350.244V293.416H348.792V291.214H343.468V293.416H341.996ZM344.208 289.926H347.619V284.85H345.213L345.054 286.426C344.977 287.228 344.881 287.924 344.765 288.514C344.649 289.101 344.464 289.572 344.208 289.926ZM350.941 291.214L350.936 289.926H351.21C351.422 289.926 351.599 289.882 351.742 289.792C351.888 289.699 352.007 289.544 352.1 289.325C352.193 289.106 352.264 288.804 352.313 288.42C352.363 288.032 352.4 287.545 352.423 286.958L352.557 283.578H357.887V291.214H356.43V284.86H353.934L353.815 287.455C353.785 288.085 353.72 288.635 353.621 289.106C353.525 289.577 353.384 289.969 353.198 290.284C353.013 290.596 352.774 290.83 352.483 290.985C352.191 291.138 351.836 291.214 351.419 291.214H350.941ZM364.269 291.214V284.845H362.439C362.005 284.845 361.667 284.946 361.425 285.149C361.183 285.351 361.062 285.616 361.062 285.944C361.062 286.269 361.173 286.531 361.395 286.73C361.621 286.925 361.936 287.023 362.34 287.023H364.702V288.226H362.34C361.777 288.226 361.289 288.133 360.878 287.948C360.471 287.759 360.156 287.492 359.934 287.147C359.715 286.803 359.606 286.395 359.606 285.924C359.606 285.444 359.718 285.029 359.944 284.681C360.172 284.33 360.499 284.058 360.923 283.866C361.351 283.674 361.856 283.578 362.439 283.578H365.666V291.214H364.269ZM359.258 291.214L361.41 287.356H362.932L360.779 291.214H359.258ZM376.933 280.734L377.55 281.674C377.321 281.882 377.061 282.031 376.769 282.121C376.481 282.207 376.148 282.262 375.77 282.285C375.392 282.305 374.959 282.323 374.472 282.34C373.922 282.356 373.47 282.476 373.115 282.698C372.76 282.916 372.487 283.241 372.295 283.672C372.106 284.1 371.983 284.637 371.927 285.283H372.021C372.27 284.809 372.615 284.454 373.055 284.219C373.499 283.984 373.998 283.866 374.552 283.866C375.168 283.866 375.717 284.007 376.197 284.289C376.678 284.57 377.056 284.983 377.331 285.526C377.609 286.067 377.748 286.728 377.748 287.51C377.748 288.302 377.603 288.987 377.311 289.563C377.023 290.14 376.615 290.586 376.088 290.901C375.564 291.212 374.946 291.368 374.234 291.368C373.521 291.368 372.9 291.207 372.369 290.886C371.842 290.561 371.433 290.08 371.141 289.444C370.853 288.808 370.709 288.022 370.709 287.088V286.332C370.709 284.585 371.02 283.271 371.643 282.389C372.266 281.508 373.198 281.055 374.437 281.032C374.838 281.022 375.196 281.021 375.511 281.027C375.826 281.031 376.101 281.016 376.337 280.982C376.575 280.946 376.774 280.863 376.933 280.734ZM374.239 290.12C374.653 290.12 375.009 290.016 375.307 289.807C375.609 289.595 375.841 289.295 376.003 288.907C376.166 288.519 376.247 288.062 376.247 287.535C376.247 287.018 376.166 286.579 376.003 286.218C375.841 285.856 375.609 285.581 375.307 285.392C375.006 285.2 374.645 285.104 374.224 285.104C373.912 285.104 373.634 285.159 373.388 285.268C373.143 285.374 372.933 285.531 372.757 285.74C372.585 285.949 372.45 286.204 372.354 286.506C372.262 286.804 372.212 287.147 372.205 287.535C372.205 288.324 372.386 288.952 372.747 289.419C373.112 289.887 373.609 290.12 374.239 290.12ZM379.255 291.214V283.578H380.742V291.214H379.255ZM380.006 282.399C379.747 282.399 379.525 282.313 379.34 282.141C379.157 281.965 379.066 281.756 379.066 281.514C379.066 281.269 379.157 281.06 379.34 280.888C379.525 280.712 379.747 280.625 380.006 280.625C380.264 280.625 380.485 280.712 380.667 280.888C380.853 281.06 380.945 281.269 380.945 281.514C380.945 281.756 380.853 281.965 380.667 282.141C380.485 282.313 380.264 282.399 380.006 282.399ZM382.135 289.196H383.656C383.676 289.507 383.817 289.747 384.079 289.916C384.344 290.085 384.687 290.17 385.108 290.17C385.535 290.17 385.9 290.079 386.202 289.897C386.503 289.711 386.654 289.424 386.654 289.036C386.654 288.804 386.596 288.602 386.48 288.43C386.367 288.254 386.207 288.118 385.998 288.022C385.792 287.926 385.549 287.878 385.267 287.878H384.024V286.71H385.267C385.688 286.71 386.003 286.614 386.212 286.421C386.42 286.229 386.525 285.989 386.525 285.7C386.525 285.389 386.412 285.139 386.187 284.95C385.965 284.758 385.655 284.661 385.257 284.661C384.853 284.661 384.516 284.753 384.248 284.935C383.979 285.114 383.839 285.346 383.825 285.631H382.324C382.334 285.203 382.463 284.829 382.712 284.507C382.964 284.183 383.302 283.931 383.726 283.752C384.153 283.569 384.639 283.478 385.183 283.478C385.749 283.478 386.24 283.569 386.654 283.752C387.068 283.934 387.388 284.186 387.614 284.507C387.842 284.829 387.957 285.198 387.957 285.616C387.957 286.037 387.831 286.382 387.579 286.65C387.33 286.915 387.005 287.106 386.604 287.222V287.301C386.899 287.321 387.161 287.411 387.39 287.57C387.619 287.729 387.798 287.939 387.927 288.201C388.056 288.463 388.121 288.76 388.121 289.091C388.121 289.558 387.991 289.963 387.733 290.304C387.478 290.646 387.123 290.909 386.669 291.095C386.218 291.277 385.703 291.368 385.123 291.368C384.559 291.368 384.054 291.28 383.607 291.105C383.162 290.926 382.809 290.674 382.548 290.349C382.289 290.024 382.151 289.64 382.135 289.196ZM394.677 286.754V288.042H390.541V286.754H394.677ZM390.958 283.578V291.214H389.502V283.578H390.958ZM395.716 283.578V291.214H394.264V283.578H395.716ZM400.842 291.368C400.09 291.368 399.442 291.207 398.898 290.886C398.358 290.561 397.94 290.105 397.645 289.519C397.354 288.929 397.208 288.238 397.208 287.446C397.208 286.663 397.354 285.974 397.645 285.377C397.94 284.781 398.351 284.315 398.878 283.98C399.409 283.646 400.028 283.478 400.738 283.478C401.168 283.478 401.586 283.549 401.99 283.692C402.395 283.834 402.758 284.058 403.079 284.363C403.401 284.668 403.654 285.064 403.84 285.551C404.025 286.035 404.118 286.624 404.118 287.316V287.843H398.048V286.73H402.662C402.662 286.339 402.582 285.992 402.423 285.691C402.264 285.386 402.04 285.145 401.752 284.97C401.467 284.794 401.132 284.706 400.748 284.706C400.33 284.706 399.965 284.809 399.654 285.014C399.346 285.217 399.107 285.482 398.938 285.81C398.772 286.135 398.689 286.488 398.689 286.869V287.739C398.689 288.249 398.779 288.683 398.958 289.041C399.14 289.399 399.394 289.673 399.718 289.862C400.043 290.047 400.423 290.14 400.857 290.14C401.139 290.14 401.396 290.1 401.628 290.021C401.86 289.938 402.06 289.815 402.229 289.653C402.398 289.491 402.527 289.29 402.617 289.051L404.024 289.305C403.911 289.719 403.709 290.082 403.417 290.394C403.129 290.702 402.766 290.942 402.329 291.115C401.894 291.284 401.399 291.368 400.842 291.368ZM408.83 291.368C408.091 291.368 407.455 291.201 406.921 290.866C406.391 290.528 405.983 290.062 405.698 289.469C405.413 288.876 405.271 288.196 405.271 287.431C405.271 286.655 405.416 285.971 405.708 285.377C406 284.781 406.411 284.315 406.941 283.98C407.471 283.646 408.096 283.478 408.815 283.478C409.395 283.478 409.912 283.586 410.366 283.801C410.821 284.013 411.187 284.312 411.465 284.696C411.747 285.081 411.914 285.53 411.967 286.044H410.521C410.441 285.686 410.259 285.377 409.974 285.119C409.692 284.86 409.314 284.731 408.84 284.731C408.426 284.731 408.063 284.84 407.751 285.059C407.443 285.275 407.203 285.583 407.031 285.984C406.858 286.382 406.772 286.852 406.772 287.396C406.772 287.953 406.857 288.433 407.026 288.838C407.195 289.242 407.433 289.555 407.741 289.777C408.053 289.999 408.419 290.11 408.84 290.11C409.122 290.11 409.377 290.059 409.606 289.956C409.838 289.85 410.032 289.699 410.187 289.504C410.347 289.308 410.458 289.073 410.521 288.798H411.967C411.914 289.292 411.754 289.732 411.485 290.12C411.217 290.508 410.857 290.813 410.406 291.035C409.959 291.257 409.433 291.368 408.83 291.368ZM414.343 294.078C414.121 294.078 413.918 294.059 413.736 294.023C413.554 293.99 413.418 293.953 413.328 293.914L413.686 292.696C413.958 292.768 414.2 292.8 414.412 292.79C414.624 292.78 414.812 292.7 414.974 292.551C415.14 292.402 415.286 292.159 415.411 291.821L415.595 291.313L412.801 283.578H414.392L416.326 289.504H416.406L418.34 283.578H419.936L416.789 292.233C416.643 292.631 416.457 292.967 416.232 293.242C416.006 293.521 415.738 293.73 415.426 293.869C415.115 294.008 414.754 294.078 414.343 294.078Z" fill="black" fill-opacity="0.8"/>
<rect x="287.552" y="330.714" width="152" height="42" rx="3" fill="#BDE3FF" fill-opacity="0.7" stroke="#97BDF6" stroke-miterlimit="0" stroke-linecap="round"/>
<path d="M333.221 348.205H335.055C335.831 348.205 336.518 348.376 337.118 348.718C337.721 349.056 338.194 349.531 338.535 350.144C338.88 350.754 339.052 351.464 339.052 352.272C339.052 353.074 338.88 353.779 338.535 354.385C338.194 354.992 337.721 355.466 337.118 355.807C336.518 356.145 335.831 356.314 335.055 356.314H333.221C332.445 356.314 331.756 356.147 331.152 355.812C330.549 355.474 330.075 355.003 329.73 354.4C329.389 353.797 329.218 353.093 329.218 352.287C329.218 351.475 329.391 350.763 329.735 350.149C330.08 349.536 330.552 349.059 331.152 348.718C331.756 348.376 332.445 348.205 333.221 348.205ZM333.221 349.533C332.69 349.533 332.238 349.644 331.863 349.866C331.489 350.085 331.202 350.4 331.003 350.811C330.804 351.222 330.705 351.714 330.705 352.287C330.705 352.847 330.804 353.33 331.003 353.734C331.205 354.135 331.494 354.445 331.868 354.664C332.243 354.879 332.694 354.987 333.221 354.987H335.06C335.587 354.987 336.036 354.879 336.407 354.664C336.782 354.445 337.067 354.133 337.262 353.729C337.461 353.321 337.561 352.836 337.561 352.272C337.561 351.705 337.461 351.218 337.262 350.811C337.067 350.4 336.782 350.085 336.407 349.866C336.036 349.644 335.587 349.533 335.06 349.533H333.221ZM334.896 346.853V357.632H333.39V346.853H334.896ZM340.689 360.078V349.578H342.141V350.816H342.265C342.351 350.656 342.476 350.473 342.638 350.264C342.8 350.055 343.026 349.873 343.314 349.717C343.603 349.558 343.984 349.478 344.458 349.478C345.074 349.478 345.624 349.634 346.108 349.946C346.592 350.257 346.972 350.706 347.247 351.293C347.525 351.879 347.664 352.585 347.664 353.411C347.664 354.236 347.527 354.944 347.252 355.534C346.977 356.12 346.599 356.573 346.118 356.891C345.638 357.206 345.089 357.363 344.473 357.363C344.009 357.363 343.629 357.285 343.334 357.129C343.042 356.974 342.814 356.791 342.648 356.583C342.482 356.374 342.355 356.188 342.265 356.026H342.176V360.078H340.689ZM342.146 353.396C342.146 353.933 342.224 354.403 342.38 354.808C342.535 355.212 342.761 355.529 343.056 355.757C343.351 355.983 343.712 356.095 344.14 356.095C344.584 356.095 344.955 355.978 345.253 355.742C345.551 355.504 345.777 355.181 345.929 354.773C346.085 354.365 346.163 353.906 346.163 353.396C346.163 352.892 346.087 352.44 345.934 352.039C345.785 351.638 345.56 351.321 345.258 351.089C344.96 350.857 344.587 350.741 344.14 350.741C343.709 350.741 343.344 350.852 343.046 351.074C342.751 351.296 342.527 351.606 342.375 352.004C342.222 352.401 342.146 352.866 342.146 353.396ZM351.398 357.383C350.914 357.383 350.477 357.294 350.086 357.115C349.695 356.932 349.385 356.669 349.156 356.324C348.931 355.979 348.818 355.557 348.818 355.056C348.818 354.625 348.901 354.271 349.066 353.992C349.232 353.714 349.456 353.494 349.738 353.331C350.019 353.169 350.334 353.046 350.682 352.963C351.03 352.88 351.385 352.817 351.746 352.774C352.204 352.721 352.575 352.678 352.86 352.645C353.145 352.609 353.352 352.551 353.481 352.471C353.611 352.392 353.675 352.262 353.675 352.083V352.049C353.675 351.614 353.553 351.278 353.307 351.039C353.065 350.801 352.704 350.681 352.223 350.681C351.723 350.681 351.329 350.792 351.04 351.014C350.755 351.233 350.558 351.477 350.449 351.745L349.052 351.427C349.217 350.963 349.459 350.589 349.777 350.303C350.099 350.015 350.468 349.806 350.886 349.677C351.304 349.544 351.743 349.478 352.204 349.478C352.508 349.478 352.832 349.515 353.173 349.588C353.518 349.657 353.839 349.786 354.137 349.975C354.439 350.164 354.686 350.434 354.878 350.786C355.07 351.134 355.167 351.586 355.167 352.143V357.214H353.715V356.17H353.655C353.559 356.362 353.415 356.551 353.223 356.737C353.03 356.922 352.784 357.076 352.482 357.199C352.18 357.322 351.819 357.383 351.398 357.383ZM351.721 356.19C352.132 356.19 352.484 356.109 352.775 355.946C353.07 355.784 353.294 355.572 353.446 355.31C353.602 355.045 353.68 354.761 353.68 354.46V353.475C353.627 353.528 353.524 353.578 353.372 353.625C353.223 353.668 353.052 353.706 352.86 353.739C352.668 353.769 352.48 353.797 352.298 353.823C352.116 353.847 351.963 353.866 351.841 353.883C351.552 353.919 351.289 353.981 351.05 354.067C350.815 354.153 350.626 354.277 350.483 354.44C350.344 354.599 350.275 354.811 350.275 355.076C350.275 355.444 350.41 355.723 350.682 355.911C350.954 356.097 351.3 356.19 351.721 356.19ZM362.168 352.754V354.042H358.032V352.754H362.168ZM358.449 349.578V357.214H356.993V349.578H358.449ZM363.207 349.578V357.214H361.755V349.578H363.207ZM365.042 349.578H366.498V355.926H369.138V349.578H370.595V355.926H373.235V349.578H374.692V357.214H365.042V349.578ZM377.979 355.131L381.345 349.578H382.946V357.214H381.489V351.656L378.138 357.214H376.522V349.578H377.979V355.131ZM384.338 355.196H385.859C385.879 355.507 386.02 355.747 386.282 355.916C386.547 356.085 386.89 356.17 387.311 356.17C387.738 356.17 388.103 356.079 388.405 355.897C388.706 355.711 388.857 355.424 388.857 355.036C388.857 354.804 388.799 354.602 388.683 354.43C388.57 354.254 388.41 354.118 388.201 354.022C387.995 353.926 387.752 353.878 387.47 353.878H386.227V352.71H387.47C387.891 352.71 388.206 352.614 388.415 352.421C388.623 352.229 388.728 351.989 388.728 351.7C388.728 351.389 388.615 351.139 388.39 350.95C388.168 350.758 387.858 350.661 387.46 350.661C387.056 350.661 386.719 350.753 386.451 350.935C386.182 351.114 386.042 351.346 386.028 351.631H384.527C384.537 351.203 384.666 350.829 384.915 350.507C385.167 350.183 385.505 349.931 385.929 349.752C386.356 349.569 386.842 349.478 387.385 349.478C387.952 349.478 388.443 349.569 388.857 349.752C389.271 349.934 389.591 350.186 389.817 350.507C390.045 350.829 390.16 351.198 390.16 351.616C390.16 352.037 390.034 352.382 389.782 352.65C389.533 352.915 389.208 353.106 388.807 353.222V353.301C389.102 353.321 389.364 353.411 389.593 353.57C389.822 353.729 390.001 353.939 390.13 354.201C390.259 354.463 390.324 354.76 390.324 355.091C390.324 355.558 390.194 355.963 389.936 356.304C389.681 356.646 389.326 356.909 388.872 357.095C388.421 357.277 387.906 357.368 387.326 357.368C386.762 357.368 386.257 357.28 385.809 357.105C385.365 356.926 385.012 356.674 384.751 356.349C384.492 356.024 384.354 355.64 384.338 355.196ZM393.927 357.383C393.443 357.383 393.006 357.294 392.614 357.115C392.223 356.932 391.913 356.669 391.685 356.324C391.459 355.979 391.347 355.557 391.347 355.056C391.347 354.625 391.43 354.271 391.595 353.992C391.761 353.714 391.985 353.494 392.266 353.331C392.548 353.169 392.863 353.046 393.211 352.963C393.559 352.88 393.914 352.817 394.275 352.774C394.732 352.721 395.104 352.678 395.389 352.645C395.674 352.609 395.881 352.551 396.01 352.471C396.139 352.392 396.204 352.262 396.204 352.083V352.049C396.204 351.614 396.081 351.278 395.836 351.039C395.594 350.801 395.233 350.681 394.752 350.681C394.252 350.681 393.857 350.792 393.569 351.014C393.284 351.233 393.087 351.477 392.977 351.745L391.58 351.427C391.746 350.963 391.988 350.589 392.306 350.303C392.628 350.015 392.997 349.806 393.415 349.677C393.833 349.544 394.272 349.478 394.732 349.478C395.037 349.478 395.36 349.515 395.702 349.588C396.047 349.657 396.368 349.786 396.666 349.975C396.968 350.164 397.215 350.434 397.407 350.786C397.599 351.134 397.695 351.586 397.695 352.143V357.214H396.244V356.17H396.184C396.088 356.362 395.944 356.551 395.752 356.737C395.559 356.922 395.312 357.076 395.011 357.199C394.709 357.322 394.348 357.383 393.927 357.383ZM394.25 356.19C394.661 356.19 395.012 356.109 395.304 355.946C395.599 355.784 395.823 355.572 395.975 355.31C396.131 355.045 396.209 354.761 396.209 354.46V353.475C396.156 353.528 396.053 353.578 395.901 353.625C395.752 353.668 395.581 353.706 395.389 353.739C395.196 353.769 395.009 353.797 394.827 353.823C394.645 353.847 394.492 353.866 394.369 353.883C394.081 353.919 393.818 353.981 393.579 354.067C393.344 354.153 393.155 354.277 393.012 354.44C392.873 354.599 392.803 354.811 392.803 355.076C392.803 355.444 392.939 355.723 393.211 355.911C393.483 356.097 393.829 356.19 394.25 356.19Z" fill="black" fill-opacity="0.8"/>
<path d="M89.857 135.246C91.5526 134.394 93.5514 134.394 95.247 135.246L180.747 175.246C185.154 177.462 185.154 183.752 180.747 185.968L95.247 225.968C93.5514 226.82 91.5526 226.82 89.857 225.968L4.35701 185.968C-0.0496631 183.752 -0.0496713 177.462 4.35701 175.246L89.857 135.246Z" fill="#6299EA" stroke="#C5CFD6" stroke-miterlimit="0" stroke-linecap="round"/>
<path d="M62.8777 175.198V186.107H61.3649L55.8198 178.106H55.7186V186.107H54.0726V175.198H55.5961L61.1465 183.209H61.2477V175.198H62.8777ZM68.3921 186.272C67.586 186.272 66.8918 186.1 66.3094 185.755C65.7306 185.407 65.2831 184.919 64.9671 184.291C64.6546 183.658 64.4983 182.918 64.4983 182.069C64.4983 181.231 64.6546 180.493 64.9671 179.853C65.2831 179.214 65.7235 178.715 66.2881 178.357C66.8563 177.998 67.5203 177.819 68.2803 177.819C68.7419 177.819 69.1894 177.895 69.6226 178.048C70.0558 178.2 70.4447 178.44 70.7891 178.767C71.1336 179.093 71.4053 179.518 71.6041 180.04C71.803 180.558 71.9024 181.189 71.9024 181.931V182.495H65.3985V181.302H70.3417C70.3417 180.883 70.2565 180.512 70.086 180.189C69.9156 179.862 69.6759 179.605 69.3669 179.417C69.0615 179.228 68.7029 179.134 68.2909 179.134C67.8435 179.134 67.4529 179.244 67.119 179.465C66.7888 179.681 66.5331 179.965 66.352 180.317C66.1744 180.665 66.0857 181.043 66.0857 181.451V182.384C66.0857 182.93 66.1815 183.396 66.3733 183.779C66.5686 184.163 66.8403 184.456 67.1883 184.658C67.5363 184.857 67.9429 184.956 68.4081 184.956C68.71 184.956 68.9852 184.914 69.2338 184.829C69.4823 184.74 69.6972 184.608 69.8783 184.434C70.0594 184.26 70.1979 184.045 70.2938 183.79L71.8012 184.061C71.6805 184.505 71.4639 184.894 71.1514 185.228C70.8424 185.558 70.4536 185.816 69.9848 186C69.5196 186.182 68.9887 186.272 68.3921 186.272ZM73.3846 186.107V177.925H74.924V179.225H75.0092C75.1584 178.784 75.4211 178.438 75.7976 178.186C76.1775 177.93 76.6072 177.803 77.0866 177.803C77.1861 177.803 77.3032 177.806 77.4382 177.813C77.5767 177.82 77.685 177.829 77.7631 177.84V179.363C77.6992 179.346 77.5856 179.326 77.4222 179.305C77.2589 179.28 77.0955 179.267 76.9321 179.267C76.5557 179.267 76.2201 179.347 75.9254 179.507C75.6342 179.663 75.4034 179.882 75.2329 180.162C75.0625 180.439 74.9772 180.755 74.9772 181.11V186.107H73.3846ZM80.1122 189.175C79.8742 189.175 79.6576 189.156 79.4623 189.117C79.267 189.081 79.1214 189.042 79.0255 188.999L79.409 187.694C79.7002 187.772 79.9595 187.806 80.1867 187.795C80.414 187.785 80.6147 187.7 80.7887 187.54C80.9662 187.38 81.1225 187.119 81.2574 186.757L81.4545 186.213L78.4609 177.925H80.1654L82.2375 184.275H82.3228L84.3948 177.925H86.1047L82.7329 187.199C82.5767 187.625 82.3778 187.985 82.1363 188.28C81.8948 188.579 81.6072 188.802 81.2734 188.951C80.9396 189.101 80.5525 189.175 80.1122 189.175ZM88.5736 177.925L90.3794 181.11L92.2011 177.925H93.9429L91.3914 182.016L93.9642 186.107H92.2224L90.3794 183.049L88.5417 186.107H86.7945L89.3407 182.016L86.8265 177.925H88.5736ZM98.4173 186.272C97.6503 186.272 96.9809 186.096 96.4092 185.745C95.8374 185.393 95.3936 184.901 95.0775 184.269C94.7615 183.637 94.6034 182.898 94.6034 182.053C94.6034 181.205 94.7615 180.462 95.0775 179.827C95.3936 179.191 95.8374 178.697 96.4092 178.346C96.9809 177.994 97.6503 177.819 98.4173 177.819C99.1844 177.819 99.8538 177.994 100.426 178.346C100.997 178.697 101.441 179.191 101.757 179.827C102.073 180.462 102.231 181.205 102.231 182.053C102.231 182.898 102.073 183.637 101.757 184.269C101.441 184.901 100.997 185.393 100.426 185.745C99.8538 186.096 99.1844 186.272 98.4173 186.272ZM98.4227 184.935C98.9198 184.935 99.3318 184.804 99.6585 184.541C99.9852 184.278 100.227 183.928 100.383 183.492C100.543 183.055 100.623 182.574 100.623 182.048C100.623 181.526 100.543 181.047 100.383 180.61C100.227 180.169 99.9852 179.816 99.6585 179.55C99.3318 179.283 98.9198 179.15 98.4227 179.15C97.922 179.15 97.5065 179.283 97.1762 179.55C96.8495 179.816 96.6063 180.169 96.4465 180.61C96.2902 181.047 96.2121 181.526 96.2121 182.048C96.2121 182.574 96.2902 183.055 96.4465 183.492C96.6063 183.928 96.8495 184.278 97.1762 184.541C97.5065 184.804 97.922 184.935 98.4227 184.935ZM103.724 186.107V177.925H105.253V179.257H105.354C105.524 178.806 105.803 178.454 106.19 178.202C106.577 177.946 107.041 177.819 107.581 177.819C108.127 177.819 108.586 177.946 108.955 178.202C109.328 178.458 109.603 178.809 109.781 179.257H109.866C110.061 178.82 110.372 178.472 110.798 178.213C111.224 177.95 111.732 177.819 112.321 177.819C113.064 177.819 113.669 178.051 114.138 178.516C114.61 178.982 114.846 179.683 114.846 180.62V186.107H113.254V180.77C113.254 180.216 113.103 179.814 112.801 179.566C112.499 179.317 112.138 179.193 111.719 179.193C111.201 179.193 110.798 179.353 110.51 179.672C110.223 179.988 110.079 180.395 110.079 180.892V186.107H108.491V180.668C108.491 180.224 108.353 179.868 108.076 179.598C107.799 179.328 107.439 179.193 106.995 179.193C106.693 179.193 106.414 179.273 106.158 179.433C105.906 179.589 105.702 179.807 105.546 180.088C105.393 180.368 105.317 180.693 105.317 181.063V186.107H103.724ZM118.161 183.332L118.15 181.387H118.427L121.687 177.925H123.594L119.876 181.867H119.626L118.161 183.332ZM116.696 186.107V175.198H118.289V186.107H116.696ZM121.863 186.107L118.933 182.218L120.03 181.105L123.818 186.107H121.863ZM127.142 186.288C126.623 186.288 126.154 186.192 125.735 186C125.316 185.805 124.984 185.523 124.739 185.153C124.498 184.784 124.377 184.331 124.377 183.795C124.377 183.333 124.466 182.954 124.643 182.655C124.821 182.357 125.061 182.121 125.362 181.947C125.664 181.773 126.002 181.641 126.374 181.553C126.747 181.464 127.127 181.396 127.514 181.35C128.004 181.293 128.402 181.247 128.708 181.212C129.013 181.173 129.235 181.11 129.373 181.025C129.512 180.94 129.581 180.802 129.581 180.61V180.572C129.581 180.107 129.45 179.747 129.187 179.491C128.928 179.235 128.541 179.108 128.026 179.108C127.49 179.108 127.067 179.227 126.758 179.465C126.453 179.699 126.241 179.96 126.124 180.248L124.627 179.907C124.805 179.409 125.064 179.008 125.405 178.703C125.749 178.394 126.145 178.17 126.593 178.032C127.04 177.89 127.511 177.819 128.004 177.819C128.331 177.819 128.677 177.858 129.043 177.936C129.412 178.01 129.757 178.149 130.077 178.351C130.4 178.554 130.664 178.843 130.87 179.22C131.076 179.592 131.179 180.077 131.179 180.674V186.107H129.624V184.988H129.56C129.457 185.194 129.302 185.397 129.096 185.596C128.89 185.794 128.626 185.96 128.303 186.091C127.98 186.222 127.593 186.288 127.142 186.288ZM127.488 185.01C127.928 185.01 128.305 184.923 128.617 184.749C128.933 184.575 129.173 184.347 129.336 184.067C129.503 183.783 129.586 183.479 129.586 183.156V182.101C129.53 182.158 129.42 182.211 129.256 182.261C129.096 182.307 128.914 182.348 128.708 182.384C128.502 182.416 128.301 182.446 128.106 182.474C127.91 182.499 127.747 182.52 127.616 182.538C127.307 182.577 127.024 182.643 126.769 182.735C126.517 182.827 126.314 182.961 126.161 183.135C126.012 183.305 125.938 183.532 125.938 183.816C125.938 184.211 126.083 184.509 126.374 184.711C126.666 184.91 127.037 185.01 127.488 185.01Z" fill="black" fill-opacity="0.8"/>
<path d="M632.489 137.182C634.112 136.415 635.992 136.415 637.615 137.182L722.615 174.182C727.198 176.347 727.198 182.867 722.615 185.032L637.615 222.032C635.992 222.799 634.112 222.799 632.489 222.032L547.489 185.032C542.906 182.867 542.906 176.347 547.489 174.182L632.489 137.182Z" fill="#6299EA" stroke="#C5CFD6" stroke-miterlimit="0" stroke-linecap="round"/>
<path d="M613.335 185.107V174.198H620.137V175.615H614.981V178.598H617.421C618.23 178.598 618.917 178.729 619.482 178.992C620.05 179.255 620.484 179.626 620.782 180.105C621.084 180.585 621.235 181.149 621.235 181.799C621.235 182.449 621.084 183.022 620.782 183.52C620.484 184.017 620.05 184.406 619.482 184.686C618.917 184.967 618.23 185.107 617.421 185.107H613.335ZM614.981 183.722H617.421C617.889 183.722 618.285 183.63 618.609 183.445C618.935 183.26 619.182 183.021 619.349 182.726C619.519 182.431 619.605 182.115 619.605 181.778C619.605 181.288 619.416 180.867 619.04 180.515C618.664 180.16 618.124 179.983 617.421 179.983H614.981V183.722ZM622.766 185.107V176.925H624.359V185.107H622.766ZM623.57 175.663C623.293 175.663 623.055 175.57 622.857 175.386C622.661 175.197 622.564 174.974 622.564 174.715C622.564 174.452 622.661 174.228 622.857 174.043C623.055 173.855 623.293 173.761 623.57 173.761C623.847 173.761 624.083 173.855 624.279 174.043C624.478 174.228 624.577 174.452 624.577 174.715C624.577 174.974 624.478 175.197 624.279 175.386C624.083 175.57 623.847 175.663 623.57 175.663ZM625.732 182.944H627.362C627.383 183.278 627.534 183.536 627.814 183.717C628.098 183.898 628.466 183.988 628.917 183.988C629.375 183.988 629.766 183.891 630.089 183.695C630.412 183.496 630.574 183.189 630.574 182.774C630.574 182.525 630.511 182.309 630.387 182.124C630.266 181.936 630.094 181.79 629.87 181.687C629.65 181.584 629.389 181.533 629.087 181.533H627.756V180.281H629.087C629.538 180.281 629.876 180.178 630.1 179.972C630.323 179.766 630.435 179.509 630.435 179.2C630.435 178.866 630.314 178.598 630.073 178.395C629.835 178.189 629.503 178.086 629.077 178.086C628.644 178.086 628.283 178.184 627.995 178.379C627.708 178.571 627.557 178.82 627.543 179.125H625.934C625.945 178.667 626.083 178.266 626.35 177.921C626.619 177.573 626.982 177.303 627.436 177.112C627.894 176.916 628.414 176.819 628.997 176.819C629.604 176.819 630.13 176.916 630.574 177.112C631.017 177.307 631.36 177.577 631.602 177.921C631.847 178.266 631.969 178.662 631.969 179.109C631.969 179.56 631.834 179.929 631.564 180.217C631.298 180.501 630.95 180.705 630.52 180.83V180.915C630.836 180.936 631.117 181.032 631.362 181.202C631.607 181.373 631.799 181.598 631.937 181.879C632.076 182.159 632.145 182.477 632.145 182.832C632.145 183.333 632.006 183.766 631.729 184.132C631.456 184.498 631.076 184.78 630.59 184.979C630.107 185.174 629.554 185.272 628.933 185.272C628.329 185.272 627.788 185.178 627.308 184.99C626.832 184.798 626.454 184.528 626.174 184.18C625.897 183.832 625.749 183.42 625.732 182.944ZM639.05 180.329V181.708H634.618V180.329H639.05ZM635.065 176.925V185.107H633.505V176.925H635.065ZM640.163 176.925V185.107H638.608V176.925H640.163ZM645.535 185.272C644.729 185.272 644.035 185.1 643.452 184.755C642.873 184.407 642.426 183.919 642.11 183.291C641.797 182.658 641.641 181.918 641.641 181.069C641.641 180.231 641.797 179.493 642.11 178.853C642.426 178.214 642.866 177.715 643.431 177.357C643.999 176.998 644.663 176.819 645.423 176.819C645.885 176.819 646.332 176.895 646.765 177.048C647.199 177.2 647.587 177.44 647.932 177.767C648.276 178.093 648.548 178.518 648.747 179.04C648.946 179.558 649.045 180.189 649.045 180.931V181.495H642.541V180.302H647.485C647.485 179.883 647.399 179.512 647.229 179.189C647.058 178.862 646.819 178.605 646.51 178.417C646.204 178.228 645.846 178.134 645.434 178.134C644.986 178.134 644.596 178.244 644.262 178.465C643.932 178.681 643.676 178.965 643.495 179.317C643.317 179.665 643.228 180.043 643.228 180.451V181.384C643.228 181.93 643.324 182.396 643.516 182.779C643.711 183.163 643.983 183.456 644.331 183.658C644.679 183.857 645.086 183.956 645.551 183.956C645.853 183.956 646.128 183.914 646.377 183.829C646.625 183.74 646.84 183.608 647.021 183.434C647.202 183.26 647.341 183.045 647.437 182.79L648.944 183.061C648.823 183.505 648.607 183.894 648.294 184.228C647.985 184.558 647.596 184.816 647.128 185C646.662 185.182 646.132 185.272 645.535 185.272ZM653.974 185.272C653.182 185.272 652.5 185.093 651.928 184.734C651.36 184.372 650.923 183.873 650.618 183.237C650.313 182.602 650.16 181.874 650.16 181.053C650.16 180.222 650.316 179.489 650.629 178.853C650.941 178.214 651.381 177.715 651.95 177.357C652.518 176.998 653.187 176.819 653.958 176.819C654.579 176.819 655.133 176.934 655.62 177.165C656.106 177.392 656.499 177.712 656.797 178.124C657.099 178.536 657.278 179.017 657.335 179.567H655.785C655.7 179.184 655.504 178.853 655.199 178.576C654.897 178.299 654.492 178.161 653.984 178.161C653.54 178.161 653.152 178.278 652.818 178.512C652.488 178.743 652.23 179.074 652.045 179.503C651.861 179.929 651.768 180.434 651.768 181.016C651.768 181.613 651.859 182.128 652.04 182.561C652.221 182.994 652.477 183.33 652.807 183.568C653.141 183.805 653.533 183.924 653.984 183.924C654.286 183.924 654.56 183.869 654.805 183.759C655.053 183.646 655.261 183.484 655.428 183.275C655.598 183.065 655.717 182.813 655.785 182.518H657.335C657.278 183.047 657.106 183.52 656.818 183.935C656.531 184.351 656.145 184.677 655.662 184.915C655.183 185.153 654.62 185.272 653.974 185.272Z" fill="black" fill-opacity="0.8"/>
<path d="M188.052 179.107C187.224 179.107 186.552 179.779 186.552 180.607C186.552 181.435 187.224 182.107 188.052 182.107V179.107ZM284.613 352.775C285.198 352.189 285.198 351.239 284.613 350.653L275.067 341.107C274.481 340.522 273.531 340.522 272.945 341.107C272.36 341.693 272.36 342.643 272.945 343.229L281.431 351.714L272.945 360.199C272.36 360.785 272.36 361.735 272.945 362.321C273.531 362.906 274.481 362.906 275.067 362.321L284.613 352.775ZM188.052 182.107H211.802V179.107H188.052V182.107ZM234.302 204.607V327.714H237.302V204.607H234.302ZM259.802 353.214H283.552V350.214H259.802V353.214ZM234.302 327.714C234.302 341.797 245.719 353.214 259.802 353.214V350.214C247.376 350.214 237.302 340.14 237.302 327.714H234.302ZM211.802 182.107C224.228 182.107 234.302 192.181 234.302 204.607H237.302C237.302 190.524 225.885 179.107 211.802 179.107V182.107Z" fill="#97BDF6"/>
<path d="M188.052 179.107C187.224 179.107 186.552 179.779 186.552 180.607C186.552 181.435 187.224 182.107 188.052 182.107V179.107ZM284.613 286.775C285.198 286.189 285.198 285.239 284.613 284.653L275.067 275.107C274.481 274.522 273.531 274.522 272.945 275.107C272.36 275.693 272.36 276.643 272.945 277.229L281.431 285.714L272.945 294.199C272.36 294.785 272.36 295.735 272.945 296.321C273.531 296.906 274.481 296.906 275.067 296.321L284.613 286.775ZM188.052 182.107H211.802V179.107H188.052V182.107ZM234.302 204.607V261.714H237.302V204.607H234.302ZM259.802 287.214H283.552V284.214H259.802V287.214ZM234.302 261.714C234.302 275.797 245.719 287.214 259.802 287.214V284.214C247.376 284.214 237.302 274.14 237.302 261.714H234.302ZM211.802 182.107C224.228 182.107 234.302 192.181 234.302 204.607H237.302C237.302 190.524 225.885 179.107 211.802 179.107V182.107Z" fill="#97BDF6"/>
<path d="M188.052 179.107C187.224 179.107 186.552 179.779 186.552 180.607C186.552 181.435 187.224 182.107 188.052 182.107V179.107ZM284.613 220.275C285.198 219.689 285.198 218.739 284.613 218.153L275.067 208.607C274.481 208.022 273.531 208.022 272.945 208.607C272.36 209.193 272.36 210.143 272.945 210.729L281.431 219.214L272.945 227.699C272.36 228.285 272.36 229.235 272.945 229.821C273.531 230.406 274.481 230.406 275.067 229.821L284.613 220.275ZM235.802 199.91H237.302H235.802ZM235.802 199.91H237.302H235.802ZM188.052 182.107H216.498V179.107H188.052V182.107ZM255.106 220.714H283.552V217.714H255.106V220.714ZM234.302 199.91C234.302 211.4 243.616 220.714 255.106 220.714V217.714C245.273 217.714 237.302 209.743 237.302 199.91H234.302ZM216.498 182.107C226.331 182.107 234.302 190.078 234.302 199.91H237.302C237.302 188.421 227.988 179.107 216.498 179.107V182.107Z" fill="#97BDF6"/>
<path d="M188.052 179.107C187.224 179.107 186.552 179.779 186.552 180.607C186.552 181.435 187.224 182.107 188.052 182.107V179.107ZM284.613 154.275C285.198 153.689 285.198 152.739 284.613 152.153L275.067 142.607C274.481 142.022 273.531 142.022 272.945 142.607C272.36 143.193 272.36 144.143 272.945 144.729L281.431 153.214L272.945 161.699C272.36 162.285 272.36 163.235 272.945 163.821C273.531 164.406 274.481 164.406 275.067 163.821L284.613 154.275ZM235.802 166.91H237.302H235.802ZM235.802 166.91H237.302H235.802ZM188.052 182.107H222.106V179.107H188.052V182.107ZM249.498 154.714H283.552V151.714H249.498V154.714ZM237.302 166.91C237.302 160.175 242.763 154.714 249.498 154.714V151.714C241.106 151.714 234.302 158.518 234.302 166.91H237.302ZM222.106 182.107C230.498 182.107 237.302 175.303 237.302 166.91H234.302C234.302 173.646 228.841 179.107 222.106 179.107V182.107Z" fill="#97BDF6"/>
<path d="M188.052 179.107C187.224 179.107 186.552 179.779 186.552 180.607C186.552 181.435 187.224 182.107 188.052 182.107V179.107ZM284.613 88.2746C285.198 87.6889 285.198 86.7391 284.613 86.1533L275.067 76.6074C274.481 76.0216 273.531 76.0216 272.945 76.6074C272.36 77.1932 272.36 78.1429 272.945 78.7287L281.431 87.214L272.945 95.6993C272.36 96.2851 272.36 97.2348 272.945 97.8206C273.531 98.4064 274.481 98.4064 275.067 97.8206L284.613 88.2746ZM188.052 182.107H211.802V179.107H188.052V182.107ZM237.302 156.607V111.214H234.302V156.607H237.302ZM259.802 88.714H283.552V85.714H259.802V88.714ZM237.302 111.214C237.302 98.7876 247.376 88.714 259.802 88.714V85.714C245.719 85.714 234.302 97.1307 234.302 111.214H237.302ZM211.802 182.107C225.885 182.107 237.302 170.69 237.302 156.607H234.302C234.302 169.033 224.228 179.107 211.802 179.107V182.107Z" fill="#97BDF6"/>
<path d="M188.052 179.107C187.224 179.107 186.552 179.779 186.552 180.607C186.552 181.435 187.224 182.107 188.052 182.107V179.107ZM284.613 22.2746C285.198 21.6889 285.198 20.7391 284.613 20.1533L275.067 10.6074C274.481 10.0216 273.531 10.0216 272.945 10.6074C272.36 11.1932 272.36 12.1429 272.945 12.7287L281.431 21.214L272.945 29.6993C272.36 30.2851 272.36 31.2348 272.945 31.8206C273.531 32.4064 274.481 32.4064 275.067 31.8206L284.613 22.2746ZM188.052 182.107H211.802V179.107H188.052V182.107ZM237.302 156.607V45.214H234.302V156.607H237.302ZM259.802 22.714H283.552V19.714H259.802V22.714ZM237.302 45.214C237.302 32.7876 247.376 22.714 259.802 22.714V19.714C245.719 19.714 234.302 31.1307 234.302 45.214H237.302ZM211.802 182.107C225.885 182.107 237.302 170.69 237.302 156.607H234.302C234.302 169.033 224.228 179.107 211.802 179.107V182.107Z" fill="#97BDF6"/>
<path d="M540.052 181.107C540.88 181.107 541.552 180.435 541.552 179.607C541.552 178.779 540.88 178.107 540.052 178.107V181.107ZM442.491 350.653C441.906 351.239 441.906 352.189 442.491 352.775L452.037 362.321C452.623 362.906 453.573 362.906 454.159 362.321C454.744 361.735 454.744 360.785 454.159 360.199L445.673 351.714L454.159 343.229C454.744 342.643 454.744 341.693 454.159 341.107C453.573 340.522 452.623 340.522 452.037 341.107L442.491 350.653ZM540.052 178.107H515.802V181.107H540.052V178.107ZM490.302 203.607V327.714H493.302V203.607H490.302ZM467.802 350.214H443.552V353.214H467.802V350.214ZM490.302 327.714C490.302 340.14 480.228 350.214 467.802 350.214V353.214C481.885 353.214 493.302 341.797 493.302 327.714H490.302ZM515.802 178.107C501.719 178.107 490.302 189.524 490.302 203.607H493.302C493.302 191.181 503.376 181.107 515.802 181.107V178.107Z" fill="#97BDF6"/>
<path d="M540.052 181.107C540.88 181.107 541.552 180.435 541.552 179.607C541.552 178.779 540.88 178.107 540.052 178.107V181.107ZM442.491 284.653C441.906 285.239 441.906 286.189 442.491 286.775L452.037 296.321C452.623 296.906 453.573 296.906 454.159 296.321C454.744 295.735 454.744 294.785 454.159 294.199L445.673 285.714L454.159 277.229C454.744 276.643 454.744 275.693 454.159 275.107C453.573 274.522 452.623 274.522 452.037 275.107L442.491 284.653ZM540.052 178.107H515.802V181.107H540.052V178.107ZM490.302 203.607V261.714H493.302V203.607H490.302ZM467.802 284.214H443.552V287.214H467.802V284.214ZM490.302 261.714C490.302 274.14 480.228 284.214 467.802 284.214V287.214C481.885 287.214 493.302 275.797 493.302 261.714H490.302ZM515.802 178.107C501.719 178.107 490.302 189.524 490.302 203.607H493.302C493.302 191.181 503.376 181.107 515.802 181.107V178.107Z" fill="#97BDF6"/>
<path d="M540.052 181.107C540.88 181.107 541.552 180.435 541.552 179.607C541.552 178.779 540.88 178.107 540.052 178.107V181.107ZM442.491 218.153C441.906 218.739 441.906 219.689 442.491 220.275L452.037 229.821C452.623 230.406 453.573 230.406 454.159 229.821C454.744 229.235 454.744 228.285 454.159 227.699L445.673 219.214L454.159 210.729C454.744 210.143 454.744 209.193 454.159 208.607C453.573 208.022 452.623 208.022 452.037 208.607L442.491 218.153ZM491.802 199.41H493.302H491.802ZM491.802 199.41H493.302H491.802ZM540.052 178.107H511.606V181.107H540.052V178.107ZM471.998 217.714H443.552V220.714H471.998V217.714ZM490.302 199.41C490.302 209.519 482.107 217.714 471.998 217.714V220.714C483.764 220.714 493.302 211.176 493.302 199.41H490.302ZM511.606 178.107C499.84 178.107 490.302 187.645 490.302 199.41H493.302C493.302 189.302 501.497 181.107 511.606 181.107V178.107Z" fill="#97BDF6"/>
<path d="M540.052 181.107C540.88 181.107 541.552 180.435 541.552 179.607C541.552 178.779 540.88 178.107 540.052 178.107V181.107ZM442.491 152.153C441.906 152.739 441.906 153.689 442.491 154.275L452.037 163.821C452.623 164.406 453.573 164.406 454.159 163.821C454.744 163.235 454.744 162.285 454.159 161.699L445.673 153.214L454.159 144.729C454.744 144.143 454.744 143.193 454.159 142.607C453.573 142.022 452.623 142.022 452.037 142.607L442.491 152.153ZM491.802 166.41H493.302H491.802ZM491.802 166.41H493.302H491.802ZM540.052 178.107H504.998V181.107H540.052V178.107ZM478.606 151.714H443.552V154.714H478.606V151.714ZM493.302 166.41C493.302 158.294 486.722 151.714 478.606 151.714V154.714C485.065 154.714 490.302 159.951 490.302 166.41H493.302ZM504.998 178.107C498.539 178.107 493.302 172.87 493.302 166.41H490.302C490.302 174.527 496.882 181.107 504.998 181.107V178.107Z" fill="#97BDF6"/>
<path d="M540.052 181.107C540.88 181.107 541.552 180.435 541.552 179.607C541.552 178.779 540.88 178.107 540.052 178.107V181.107ZM442.491 86.1533C441.906 86.7391 441.906 87.6889 442.491 88.2746L452.037 97.8206C452.623 98.4064 453.573 98.4064 454.159 97.8206C454.744 97.2348 454.744 96.2851 454.159 95.6993L445.673 87.214L454.159 78.7287C454.744 78.1429 454.744 77.1932 454.159 76.6074C453.573 76.0216 452.623 76.0216 452.037 76.6074L442.491 86.1533ZM540.052 178.107H515.802V181.107H540.052V178.107ZM493.302 155.607V111.214H490.302V155.607H493.302ZM467.802 85.714H443.552V88.714H467.802V85.714ZM493.302 111.214C493.302 97.1307 481.885 85.714 467.802 85.714V88.714C480.228 88.714 490.302 98.7876 490.302 111.214H493.302ZM515.802 178.107C503.376 178.107 493.302 168.033 493.302 155.607H490.302C490.302 169.69 501.719 181.107 515.802 181.107V178.107Z" fill="#97BDF6"/>
<path d="M540.052 181.107C540.88 181.107 541.552 180.435 541.552 179.607C541.552 178.779 540.88 178.107 540.052 178.107V181.107ZM442.491 20.1533C441.906 20.7391 441.906 21.6889 442.491 22.2746L452.037 31.8206C452.623 32.4064 453.573 32.4064 454.159 31.8206C454.744 31.2348 454.744 30.2851 454.159 29.6993L445.673 21.214L454.159 12.7287C454.744 12.1429 454.744 11.1932 454.159 10.6074C453.573 10.0216 452.623 10.0216 452.037 10.6074L442.491 20.1533ZM540.052 178.107H515.802V181.107H540.052V178.107ZM493.302 155.607V45.214H490.302V155.607H493.302ZM467.802 19.714H443.552V22.714H467.802V19.714ZM493.302 45.214C493.302 31.1307 481.885 19.714 467.802 19.714V22.714C480.228 22.714 490.302 32.7876 490.302 45.214H493.302ZM515.802 178.107C503.376 178.107 493.302 168.033 493.302 155.607H490.302C490.302 169.69 501.719 181.107 515.802 181.107V178.107Z" fill="#97BDF6"/>
</svg>
