<svg width="764" height="426" viewBox="0 0 764 426" fill="none" xmlns="http://www.w3.org/2000/svg">
<rect x="297.5" width="169" height="75" rx="6" fill="#BDE3FF" fill-opacity="0.7"/>
<path d="M338.362 45V30.4545H347.481V32.3438H340.557V36.7756H347.006V38.6577H340.557V43.1108H347.567V45H338.362ZM350.022 45V34.0909H352.146V38.6648H353.169L356.77 34.0909H359.397L355.172 39.3963L359.447 45H356.812L353.524 40.6392H352.146V45H350.022ZM365.023 45.2202C363.967 45.2202 363.058 44.9811 362.295 44.5028C361.538 44.0199 360.955 43.3546 360.548 42.5071C360.141 41.6596 359.937 40.6889 359.937 39.5952C359.937 38.4872 360.146 37.5095 360.562 36.6619C360.979 35.8097 361.566 35.1444 362.324 34.6662C363.081 34.188 363.974 33.9489 365.001 33.9489C365.83 33.9489 366.569 34.1027 367.217 34.4105C367.866 34.7135 368.389 35.1397 368.787 35.6889C369.189 36.2382 369.428 36.8797 369.504 37.6136H367.437C367.324 37.1023 367.063 36.6619 366.656 36.2926C366.254 35.9233 365.714 35.7386 365.037 35.7386C364.445 35.7386 363.927 35.8949 363.481 36.2074C363.041 36.5152 362.698 36.9555 362.452 37.5284C362.205 38.0966 362.082 38.7689 362.082 39.5455C362.082 40.3409 362.203 41.0275 362.445 41.6051C362.686 42.1828 363.027 42.6302 363.467 42.9474C363.912 43.2647 364.436 43.4233 365.037 43.4233C365.439 43.4233 365.804 43.3499 366.131 43.2031C366.462 43.0516 366.739 42.8362 366.962 42.5568C367.189 42.2775 367.347 41.9413 367.437 41.5483H369.504C369.428 42.2538 369.199 42.8835 368.815 43.4375C368.432 43.9915 367.918 44.4271 367.274 44.7443C366.635 45.0616 365.884 45.2202 365.023 45.2202ZM371.555 45V34.0909H380.454V45H378.373V35.9233H373.622V45H371.555ZM387.775 45.2202C386.7 45.2202 385.775 44.9905 384.998 44.5312C384.226 44.0672 383.63 43.4162 383.208 42.5781C382.792 41.7353 382.583 40.7481 382.583 39.6165C382.583 38.4991 382.792 37.5142 383.208 36.6619C383.63 35.8097 384.217 35.1444 384.97 34.6662C385.727 34.188 386.613 33.9489 387.626 33.9489C388.242 33.9489 388.838 34.0507 389.416 34.2543C389.993 34.4579 390.512 34.7775 390.971 35.2131C391.43 35.6487 391.793 36.2145 392.058 36.9105C392.323 37.6018 392.456 38.4422 392.456 39.4318V40.1847H383.784V38.5938H390.375C390.375 38.035 390.261 37.5402 390.034 37.1094C389.806 36.6738 389.487 36.3305 389.075 36.0795C388.668 35.8286 388.189 35.7031 387.64 35.7031C387.044 35.7031 386.523 35.8499 386.078 36.1435C385.637 36.4323 385.296 36.8111 385.055 37.2798C384.818 37.7438 384.7 38.2481 384.7 38.7926V40.0355C384.7 40.7647 384.828 41.3849 385.083 41.8963C385.344 42.4077 385.706 42.7983 386.17 43.0682C386.634 43.3333 387.176 43.4659 387.796 43.4659C388.199 43.4659 388.566 43.4091 388.897 43.2955C389.229 43.1771 389.515 43.0019 389.757 42.7699C389.998 42.5379 390.183 42.2514 390.311 41.9105L392.321 42.2727C392.16 42.8646 391.871 43.383 391.454 43.8281C391.042 44.2685 390.524 44.6117 389.899 44.858C389.278 45.0994 388.571 45.2202 387.775 45.2202ZM394.592 49.0909V34.0909H396.666V35.8594H396.843C396.966 35.6321 397.144 35.3693 397.376 35.071C397.608 34.7727 397.93 34.5123 398.342 34.2898C398.754 34.0625 399.298 33.9489 399.975 33.9489C400.856 33.9489 401.642 34.1714 402.333 34.6165C403.024 35.0616 403.567 35.7031 403.96 36.5412C404.357 37.3793 404.556 38.3878 404.556 39.5668C404.556 40.7457 404.36 41.7566 403.967 42.5994C403.574 43.4375 403.034 44.0838 402.347 44.5384C401.661 44.9882 400.877 45.2131 399.997 45.2131C399.334 45.2131 398.792 45.1018 398.37 44.8793C397.953 44.6567 397.627 44.3963 397.39 44.098C397.153 43.7997 396.971 43.5346 396.843 43.3026H396.715V49.0909H394.592ZM396.673 39.5455C396.673 40.3125 396.784 40.9848 397.006 41.5625C397.229 42.1402 397.551 42.5923 397.972 42.919C398.394 43.241 398.91 43.402 399.521 43.402C400.155 43.402 400.685 43.2339 401.112 42.8977C401.538 42.5568 401.86 42.0952 402.077 41.5128C402.3 40.9304 402.411 40.2746 402.411 39.5455C402.411 38.8258 402.302 38.1795 402.085 37.6065C401.872 37.0336 401.55 36.5814 401.119 36.25C400.693 35.9186 400.16 35.7528 399.521 35.7528C398.905 35.7528 398.384 35.9115 397.958 36.2287C397.537 36.5459 397.217 36.9886 396.999 37.5568C396.782 38.125 396.673 38.7879 396.673 39.5455ZM405.402 35.9233V34.0909H414.606V35.9233H411.048V45H408.974V35.9233H405.402ZM418.713 42.0241L423.521 34.0909H425.808V45H423.727V37.0597L418.94 45H416.632V34.0909H418.713V42.0241Z" fill="black" fill-opacity="0.8"/>
<rect x="297.5" y="122" width="169" height="75" rx="6" fill="#BDE3FF" fill-opacity="0.7"/>
<path d="M332.828 152.455H335.491L340.122 163.761H340.292L344.923 152.455H347.586V167H345.498V156.474H345.363L341.073 166.979H339.34L335.051 156.467H334.916V167H332.828V152.455ZM353.561 167.241C352.87 167.241 352.245 167.114 351.686 166.858C351.127 166.598 350.685 166.221 350.358 165.729C350.036 165.236 349.875 164.633 349.875 163.918C349.875 163.302 349.993 162.795 350.23 162.398C350.467 162 350.786 161.685 351.189 161.453C351.591 161.221 352.041 161.046 352.538 160.928C353.036 160.809 353.542 160.719 354.058 160.658C354.712 160.582 355.242 160.52 355.649 160.473C356.056 160.421 356.352 160.338 356.537 160.224C356.722 160.111 356.814 159.926 356.814 159.67V159.621C356.814 159 356.639 158.52 356.288 158.179C355.943 157.838 355.427 157.668 354.74 157.668C354.025 157.668 353.462 157.826 353.05 158.143C352.643 158.456 352.361 158.804 352.205 159.188L350.209 158.733C350.446 158.07 350.791 157.535 351.246 157.128C351.705 156.716 352.233 156.418 352.83 156.233C353.426 156.044 354.054 155.949 354.712 155.949C355.147 155.949 355.609 156.001 356.097 156.105C356.589 156.205 357.048 156.389 357.474 156.659C357.905 156.929 358.258 157.315 358.533 157.817C358.807 158.314 358.945 158.96 358.945 159.756V167H356.871V165.509H356.786C356.648 165.783 356.442 166.053 356.168 166.318C355.893 166.583 355.54 166.804 355.109 166.979C354.679 167.154 354.162 167.241 353.561 167.241ZM354.023 165.537C354.61 165.537 355.112 165.421 355.528 165.189C355.95 164.957 356.269 164.654 356.487 164.28C356.71 163.901 356.821 163.496 356.821 163.065V161.659C356.745 161.735 356.599 161.806 356.381 161.872C356.168 161.934 355.924 161.988 355.649 162.036C355.375 162.078 355.107 162.118 354.847 162.156C354.586 162.189 354.368 162.218 354.193 162.241C353.781 162.294 353.405 162.381 353.064 162.504C352.728 162.627 352.458 162.805 352.254 163.037C352.055 163.264 351.956 163.567 351.956 163.946C351.956 164.472 352.15 164.869 352.538 165.139C352.927 165.404 353.421 165.537 354.023 165.537ZM360.2 157.923V156.091H369.405V157.923H365.846V167H363.773V157.923H360.2ZM375.625 167.22C374.55 167.22 373.624 166.991 372.848 166.531C372.076 166.067 371.479 165.416 371.058 164.578C370.641 163.735 370.433 162.748 370.433 161.616C370.433 160.499 370.641 159.514 371.058 158.662C371.479 157.81 372.066 157.144 372.819 156.666C373.577 156.188 374.462 155.949 375.476 155.949C376.091 155.949 376.688 156.051 377.265 156.254C377.843 156.458 378.361 156.777 378.821 157.213C379.28 157.649 379.642 158.214 379.907 158.911C380.172 159.602 380.305 160.442 380.305 161.432V162.185H371.633V160.594H378.224C378.224 160.035 378.11 159.54 377.883 159.109C377.656 158.674 377.336 158.33 376.924 158.08C376.517 157.829 376.039 157.703 375.49 157.703C374.893 157.703 374.372 157.85 373.927 158.143C373.487 158.432 373.146 158.811 372.904 159.28C372.668 159.744 372.549 160.248 372.549 160.793V162.036C372.549 162.765 372.677 163.385 372.933 163.896C373.193 164.408 373.556 164.798 374.02 165.068C374.484 165.333 375.026 165.466 375.646 165.466C376.048 165.466 376.415 165.409 376.747 165.295C377.078 165.177 377.365 165.002 377.606 164.77C377.848 164.538 378.032 164.251 378.16 163.911L380.17 164.273C380.009 164.865 379.72 165.383 379.304 165.828C378.892 166.268 378.373 166.612 377.748 166.858C377.128 167.099 376.42 167.22 375.625 167.22ZM382.441 171.091V156.091H384.515V157.859H384.693C384.816 157.632 384.993 157.369 385.225 157.071C385.457 156.773 385.779 156.512 386.191 156.29C386.603 156.062 387.148 155.949 387.825 155.949C388.705 155.949 389.491 156.171 390.183 156.616C390.874 157.062 391.416 157.703 391.809 158.541C392.207 159.379 392.406 160.388 392.406 161.567C392.406 162.746 392.209 163.757 391.816 164.599C391.423 165.437 390.883 166.084 390.197 166.538C389.51 166.988 388.727 167.213 387.846 167.213C387.183 167.213 386.641 167.102 386.22 166.879C385.803 166.657 385.476 166.396 385.24 166.098C385.003 165.8 384.82 165.535 384.693 165.303H384.565V171.091H382.441ZM384.522 161.545C384.522 162.312 384.633 162.985 384.856 163.562C385.079 164.14 385.401 164.592 385.822 164.919C386.243 165.241 386.759 165.402 387.37 165.402C388.005 165.402 388.535 165.234 388.961 164.898C389.387 164.557 389.709 164.095 389.927 163.513C390.15 162.93 390.261 162.275 390.261 161.545C390.261 160.826 390.152 160.179 389.934 159.607C389.721 159.034 389.399 158.581 388.968 158.25C388.542 157.919 388.009 157.753 387.37 157.753C386.755 157.753 386.234 157.911 385.808 158.229C385.386 158.546 385.067 158.989 384.849 159.557C384.631 160.125 384.522 160.788 384.522 161.545ZM394.565 167V156.091H396.689V167H394.565ZM395.637 154.408C395.268 154.408 394.951 154.285 394.686 154.038C394.425 153.787 394.295 153.489 394.295 153.143C394.295 152.793 394.425 152.495 394.686 152.249C394.951 151.998 395.268 151.872 395.637 151.872C396.007 151.872 396.322 151.998 396.582 152.249C396.847 152.495 396.98 152.793 396.98 153.143C396.98 153.489 396.847 153.787 396.582 154.038C396.322 154.285 396.007 154.408 395.637 154.408ZM402.5 167.241C401.809 167.241 401.184 167.114 400.625 166.858C400.066 166.598 399.624 166.221 399.297 165.729C398.975 165.236 398.814 164.633 398.814 163.918C398.814 163.302 398.932 162.795 399.169 162.398C399.406 162 399.726 161.685 400.128 161.453C400.53 161.221 400.98 161.046 401.477 160.928C401.975 160.809 402.481 160.719 402.997 160.658C403.651 160.582 404.181 160.52 404.588 160.473C404.995 160.421 405.291 160.338 405.476 160.224C405.661 160.111 405.753 159.926 405.753 159.67V159.621C405.753 159 405.578 158.52 405.227 158.179C404.882 157.838 404.366 157.668 403.679 157.668C402.964 157.668 402.401 157.826 401.989 158.143C401.582 158.456 401.3 158.804 401.144 159.188L399.148 158.733C399.385 158.07 399.73 157.535 400.185 157.128C400.644 156.716 401.172 156.418 401.769 156.233C402.365 156.044 402.993 155.949 403.651 155.949C404.086 155.949 404.548 156.001 405.036 156.105C405.528 156.205 405.987 156.389 406.414 156.659C406.844 156.929 407.197 157.315 407.472 157.817C407.746 158.314 407.884 158.96 407.884 159.756V167H405.81V165.509H405.725C405.587 165.783 405.381 166.053 405.107 166.318C404.832 166.583 404.479 166.804 404.048 166.979C403.618 167.154 403.101 167.241 402.5 167.241ZM402.962 165.537C403.549 165.537 404.051 165.421 404.467 165.189C404.889 164.957 405.208 164.654 405.426 164.28C405.649 163.901 405.76 163.496 405.76 163.065V161.659C405.684 161.735 405.538 161.806 405.32 161.872C405.107 161.934 404.863 161.988 404.588 162.036C404.314 162.078 404.046 162.118 403.786 162.156C403.525 162.189 403.307 162.218 403.132 162.241C402.72 162.294 402.344 162.381 402.003 162.504C401.667 162.627 401.397 162.805 401.193 163.037C400.994 163.264 400.895 163.567 400.895 163.946C400.895 164.472 401.089 164.869 401.477 165.139C401.866 165.404 402.36 165.537 402.962 165.537ZM409.633 167L409.626 165.161H410.016C410.319 165.161 410.573 165.097 410.776 164.969C410.985 164.836 411.155 164.614 411.288 164.301C411.42 163.989 411.522 163.558 411.593 163.009C411.664 162.455 411.716 161.759 411.749 160.92L411.941 156.091H419.555V167H417.474V157.923H413.908L413.738 161.631C413.695 162.53 413.603 163.316 413.461 163.989C413.324 164.661 413.122 165.222 412.857 165.672C412.592 166.117 412.251 166.451 411.834 166.673C411.418 166.891 410.911 167 410.315 167H409.633ZM424.248 164.024L429.056 156.091H431.343V167H429.262V159.06L424.475 167H422.167V156.091H424.248V164.024Z" fill="black" fill-opacity="0.8"/>
<rect x="297.5" y="243" width="169" height="75" rx="6" fill="#BDE3FF" fill-opacity="0.7"/>
<path d="M352.783 258.955V273.5H350.589V258.955H352.783ZM360.184 273.72C359.128 273.72 358.219 273.481 357.457 273.003C356.699 272.52 356.117 271.855 355.71 271.007C355.302 270.16 355.099 269.189 355.099 268.095C355.099 266.987 355.307 266.009 355.724 265.162C356.14 264.31 356.728 263.644 357.485 263.166C358.243 262.688 359.135 262.449 360.163 262.449C360.991 262.449 361.73 262.603 362.379 262.911C363.027 263.214 363.551 263.64 363.948 264.189C364.351 264.738 364.59 265.38 364.666 266.114H362.599C362.485 265.602 362.225 265.162 361.818 264.793C361.415 264.423 360.875 264.239 360.198 264.239C359.606 264.239 359.088 264.395 358.643 264.707C358.203 265.015 357.859 265.455 357.613 266.028C357.367 266.597 357.244 267.269 357.244 268.045C357.244 268.841 357.364 269.527 357.606 270.105C357.847 270.683 358.188 271.13 358.629 271.447C359.074 271.765 359.597 271.923 360.198 271.923C360.601 271.923 360.965 271.85 361.292 271.703C361.623 271.552 361.9 271.336 362.123 271.057C362.35 270.777 362.509 270.441 362.599 270.048H364.666C364.59 270.754 364.36 271.384 363.977 271.938C363.593 272.491 363.079 272.927 362.435 273.244C361.796 273.562 361.046 273.72 360.184 273.72ZM365.891 264.423V262.591H375.095V264.423H371.537V273.5H369.463V264.423H365.891ZM381.209 273.72C380.186 273.72 379.294 273.486 378.531 273.017C377.769 272.548 377.177 271.893 376.756 271.05C376.334 270.207 376.124 269.222 376.124 268.095C376.124 266.964 376.334 265.974 376.756 265.126C377.177 264.279 377.769 263.621 378.531 263.152C379.294 262.683 380.186 262.449 381.209 262.449C382.232 262.449 383.124 262.683 383.886 263.152C384.649 263.621 385.241 264.279 385.662 265.126C386.083 265.974 386.294 266.964 386.294 268.095C386.294 269.222 386.083 270.207 385.662 271.05C385.241 271.893 384.649 272.548 383.886 273.017C383.124 273.486 382.232 273.72 381.209 273.72ZM381.216 271.938C381.879 271.938 382.428 271.762 382.864 271.412C383.299 271.062 383.621 270.595 383.83 270.013C384.043 269.43 384.149 268.789 384.149 268.088C384.149 267.392 384.043 266.753 383.83 266.17C383.621 265.583 383.299 265.112 382.864 264.757C382.428 264.402 381.879 264.224 381.216 264.224C380.548 264.224 379.994 264.402 379.554 264.757C379.118 265.112 378.794 265.583 378.581 266.17C378.373 266.753 378.269 267.392 378.269 268.088C378.269 268.789 378.373 269.43 378.581 270.013C378.794 270.595 379.118 271.062 379.554 271.412C379.994 271.762 380.548 271.938 381.216 271.938ZM388.445 277.591V262.591H390.518V264.359H390.696C390.819 264.132 390.997 263.869 391.229 263.571C391.461 263.273 391.783 263.012 392.195 262.79C392.606 262.562 393.151 262.449 393.828 262.449C394.709 262.449 395.495 262.671 396.186 263.116C396.877 263.562 397.419 264.203 397.812 265.041C398.21 265.879 398.409 266.888 398.409 268.067C398.409 269.246 398.213 270.257 397.82 271.099C397.427 271.937 396.887 272.584 396.2 273.038C395.514 273.488 394.73 273.713 393.849 273.713C393.186 273.713 392.644 273.602 392.223 273.379C391.806 273.157 391.48 272.896 391.243 272.598C391.006 272.3 390.824 272.035 390.696 271.803H390.568V277.591H388.445ZM390.525 268.045C390.525 268.812 390.637 269.485 390.859 270.062C391.082 270.64 391.404 271.092 391.825 271.419C392.247 271.741 392.763 271.902 393.373 271.902C394.008 271.902 394.538 271.734 394.964 271.398C395.391 271.057 395.713 270.595 395.93 270.013C396.153 269.43 396.264 268.775 396.264 268.045C396.264 267.326 396.155 266.679 395.937 266.107C395.724 265.534 395.402 265.081 394.971 264.75C394.545 264.419 394.013 264.253 393.373 264.253C392.758 264.253 392.237 264.411 391.811 264.729C391.39 265.046 391.07 265.489 390.852 266.057C390.634 266.625 390.525 267.288 390.525 268.045ZM400.568 273.5V262.591H402.692V273.5H400.568ZM401.641 260.908C401.271 260.908 400.954 260.785 400.689 260.538C400.429 260.287 400.298 259.989 400.298 259.643C400.298 259.293 400.429 258.995 400.689 258.749C400.954 258.498 401.271 258.372 401.641 258.372C402.01 258.372 402.325 258.498 402.585 258.749C402.85 258.995 402.983 259.293 402.983 259.643C402.983 259.989 402.85 260.287 402.585 260.538C402.325 260.785 402.01 260.908 401.641 260.908ZM411.834 273.5V264.402H409.221C408.601 264.402 408.118 264.546 407.772 264.835C407.426 265.124 407.253 265.503 407.253 265.972C407.253 266.436 407.412 266.81 407.729 267.094C408.051 267.373 408.501 267.513 409.079 267.513H412.452V269.232H409.079C408.274 269.232 407.578 269.099 406.991 268.834C406.408 268.564 405.958 268.183 405.641 267.69C405.329 267.198 405.172 266.616 405.172 265.943C405.172 265.257 405.333 264.665 405.655 264.168C405.982 263.666 406.449 263.277 407.055 263.003C407.665 262.728 408.387 262.591 409.221 262.591H413.83V273.5H411.834ZM404.675 273.5L407.751 267.989H409.924L406.849 273.5H404.675ZM324.183 303.5V292.591H333.082V303.5H331.001V294.423H326.25V303.5H324.183ZM335.701 307.591V292.591H337.775V294.359H337.953C338.076 294.132 338.254 293.869 338.486 293.571C338.718 293.273 339.04 293.012 339.451 292.79C339.863 292.562 340.408 292.449 341.085 292.449C341.966 292.449 342.752 292.671 343.443 293.116C344.134 293.562 344.676 294.203 345.069 295.041C345.467 295.879 345.666 296.888 345.666 298.067C345.666 299.246 345.469 300.257 345.076 301.099C344.683 301.937 344.144 302.584 343.457 303.038C342.771 303.488 341.987 303.713 341.106 303.713C340.443 303.713 339.901 303.602 339.48 303.379C339.063 303.157 338.737 302.896 338.5 302.598C338.263 302.3 338.081 302.035 337.953 301.803H337.825V307.591H335.701ZM337.782 298.045C337.782 298.812 337.894 299.485 338.116 300.062C338.339 300.64 338.661 301.092 339.082 301.419C339.504 301.741 340.02 301.902 340.63 301.902C341.265 301.902 341.795 301.734 342.221 301.398C342.647 301.057 342.969 300.595 343.187 300.013C343.41 299.43 343.521 298.775 343.521 298.045C343.521 297.326 343.412 296.679 343.194 296.107C342.981 295.534 342.659 295.081 342.228 294.75C341.802 294.419 341.27 294.253 340.63 294.253C340.015 294.253 339.494 294.411 339.068 294.729C338.647 295.046 338.327 295.489 338.109 296.057C337.891 296.625 337.782 297.288 337.782 298.045ZM349.906 300.524L354.714 292.591H357.001V303.5H354.92V295.56L350.133 303.5H347.825V292.591H349.906V300.524ZM365.759 300.872L369.281 292.591H371.114L366.547 303.5H364.97L360.496 292.591H362.307L365.759 300.872ZM361.717 292.591V303.5H359.636V292.591H361.717ZM369.857 303.5V292.591H371.923V303.5H369.857ZM374.534 303.5V292.591H376.657V303.5H374.534ZM375.606 290.908C375.237 290.908 374.92 290.785 374.654 290.538C374.394 290.287 374.264 289.989 374.264 289.643C374.264 289.293 374.394 288.995 374.654 288.749C374.92 288.498 375.237 288.372 375.606 288.372C375.975 288.372 376.29 288.498 376.551 288.749C376.816 288.995 376.948 289.293 376.948 289.643C376.948 289.989 376.816 290.287 376.551 290.538C376.29 290.785 375.975 290.908 375.606 290.908ZM394.926 301.668L394.727 306.625H392.646V303.5H391.29V301.668H394.926ZM379.294 292.591H381.375V301.661H385.146V292.591H387.227V301.661H390.999V292.591H393.08V303.5H379.294V292.591ZM401.53 303.72C400.455 303.72 399.529 303.491 398.753 303.031C397.981 302.567 397.384 301.916 396.963 301.078C396.546 300.235 396.338 299.248 396.338 298.116C396.338 296.999 396.546 296.014 396.963 295.162C397.384 294.31 397.971 293.644 398.724 293.166C399.482 292.688 400.367 292.449 401.381 292.449C401.996 292.449 402.593 292.551 403.17 292.754C403.748 292.958 404.266 293.277 404.726 293.713C405.185 294.149 405.547 294.714 405.812 295.411C406.078 296.102 406.21 296.942 406.21 297.932V298.685H397.538V297.094H404.129C404.129 296.535 404.016 296.04 403.788 295.609C403.561 295.174 403.241 294.83 402.829 294.58C402.422 294.329 401.944 294.203 401.395 294.203C400.798 294.203 400.277 294.35 399.832 294.643C399.392 294.932 399.051 295.311 398.81 295.78C398.573 296.244 398.454 296.748 398.454 297.293V298.536C398.454 299.265 398.582 299.885 398.838 300.396C399.098 300.908 399.461 301.298 399.925 301.568C400.389 301.833 400.931 301.966 401.551 301.966C401.953 301.966 402.32 301.909 402.652 301.795C402.983 301.677 403.27 301.502 403.511 301.27C403.753 301.038 403.937 300.751 404.065 300.411L406.075 300.773C405.914 301.365 405.625 301.883 405.209 302.328C404.797 302.768 404.278 303.112 403.653 303.358C403.033 303.599 402.325 303.72 401.53 303.72ZM415.74 297.129V298.969H409.831V297.129H415.74ZM410.427 292.591V303.5H408.346V292.591H410.427ZM417.224 292.591V303.5H415.15V292.591H417.224ZM427.239 297.129V298.969H421.329V297.129H427.239ZM421.926 292.591V303.5H419.845V292.591H421.926ZM428.723 292.591V303.5H426.649V292.591H428.723ZM437.849 303.5V294.402H435.236C434.616 294.402 434.133 294.546 433.787 294.835C433.441 295.124 433.269 295.503 433.269 295.972C433.269 296.436 433.427 296.81 433.744 297.094C434.066 297.373 434.516 297.513 435.094 297.513H438.467V299.232H435.094C434.289 299.232 433.593 299.099 433.006 298.834C432.423 298.564 431.974 298.183 431.656 297.69C431.344 297.198 431.188 296.616 431.188 295.943C431.188 295.257 431.349 294.665 431.671 294.168C431.997 293.666 432.464 293.277 433.07 293.003C433.68 292.728 434.403 292.591 435.236 292.591H439.845V303.5H437.849ZM430.69 303.5L433.766 297.989H435.939L432.864 303.5H430.69Z" fill="black" fill-opacity="0.8"/>
<rect x="297.5" y="364" width="169" height="62" rx="6" fill="#BDE3FF" fill-opacity="0.7"/>
<path d="M354.204 402V387.455H359.389C360.52 387.455 361.458 387.661 362.201 388.072C362.945 388.484 363.501 389.048 363.87 389.763C364.24 390.473 364.424 391.273 364.424 392.163C364.424 393.058 364.237 393.863 363.863 394.578C363.494 395.288 362.935 395.852 362.187 396.268C361.444 396.68 360.508 396.886 359.382 396.886H355.816V395.026H359.183C359.898 395.026 360.478 394.902 360.923 394.656C361.368 394.405 361.695 394.064 361.903 393.634C362.111 393.203 362.215 392.713 362.215 392.163C362.215 391.614 362.111 391.126 361.903 390.7C361.695 390.274 361.365 389.94 360.916 389.699C360.471 389.457 359.883 389.337 359.154 389.337H356.399V402H354.204ZM368.688 399.024L373.496 391.091H375.783V402H373.702V394.06L368.915 402H366.607V391.091H368.688V399.024ZM385.811 395.629V397.469H379.902V395.629H385.811ZM380.499 391.091V402H378.418V391.091H380.499ZM387.296 391.091V402H385.222V391.091H387.296ZM394.512 402.22C393.489 402.22 392.596 401.986 391.834 401.517C391.072 401.048 390.48 400.393 390.059 399.55C389.637 398.707 389.426 397.722 389.426 396.595C389.426 395.464 389.637 394.474 390.059 393.626C390.48 392.779 391.072 392.121 391.834 391.652C392.596 391.183 393.489 390.949 394.512 390.949C395.534 390.949 396.427 391.183 397.189 391.652C397.952 392.121 398.543 392.779 398.965 393.626C399.386 394.474 399.597 395.464 399.597 396.595C399.597 397.722 399.386 398.707 398.965 399.55C398.543 400.393 397.952 401.048 397.189 401.517C396.427 401.986 395.534 402.22 394.512 402.22ZM394.519 400.438C395.182 400.438 395.731 400.262 396.167 399.912C396.602 399.562 396.924 399.095 397.132 398.513C397.346 397.93 397.452 397.289 397.452 396.588C397.452 395.892 397.346 395.253 397.132 394.67C396.924 394.083 396.602 393.612 396.167 393.257C395.731 392.902 395.182 392.724 394.519 392.724C393.851 392.724 393.297 392.902 392.857 393.257C392.421 393.612 392.097 394.083 391.884 394.67C391.676 395.253 391.571 395.892 391.571 396.588C391.571 397.289 391.676 397.93 391.884 398.513C392.097 399.095 392.421 399.562 392.857 399.912C393.297 400.262 393.851 400.438 394.519 400.438ZM401.747 402V391.091H403.871V395.665H404.894L408.494 391.091H411.122L406.896 396.396L411.172 402H408.537L405.249 397.639H403.871V402H401.747Z" fill="black" fill-opacity="0.8"/>
<ellipse cx="99.5" cy="234.5" rx="99" ry="37.5" fill="#78BCEB"/>
<path d="M59.4708 226.859V242.5H57.3868L49.5128 230.437V242.5H47.4396V226.859H49.5128L57.4191 238.955V226.859H59.4708ZM67.2491 242.715C66.4399 242.715 65.7058 242.579 65.047 242.307C64.3953 242.027 63.8331 241.637 63.3604 241.136C62.895 240.634 62.5369 240.04 62.2862 239.353C62.0356 238.665 61.9103 237.913 61.9103 237.097V236.646C61.9103 235.7 62.0499 234.859 62.3292 234.121C62.6085 233.376 62.9881 232.746 63.4679 232.23C63.9477 231.715 64.492 231.325 65.1007 231.06C65.7094 230.795 66.3396 230.662 66.9913 230.662C67.822 230.662 68.5382 230.805 69.1397 231.092C69.7485 231.378 70.2462 231.779 70.6329 232.295C71.0196 232.803 71.3061 233.405 71.4923 234.1C71.6785 234.787 71.7716 235.539 71.7716 236.355V237.247H63.0919V235.625H69.7843V235.475C69.7556 234.959 69.6482 234.458 69.462 233.971C69.283 233.484 68.9965 233.083 68.6026 232.768C68.2088 232.452 67.6716 232.295 66.9913 232.295C66.5401 232.295 66.1248 232.392 65.7452 232.585C65.3657 232.771 65.0398 233.05 64.7677 233.423C64.4955 233.795 64.2843 234.25 64.1339 234.787C63.9835 235.324 63.9083 235.944 63.9083 236.646V237.097C63.9083 237.648 63.9835 238.167 64.1339 238.654C64.2914 239.134 64.517 239.557 64.8106 239.922C65.1114 240.287 65.4731 240.574 65.8956 240.781C66.3253 240.989 66.8123 241.093 67.3565 241.093C68.0584 241.093 68.6528 240.95 69.1397 240.663C69.6267 240.377 70.0528 239.993 70.4181 239.514L71.6212 240.47C71.3705 240.849 71.0519 241.211 70.6651 241.555C70.2784 241.898 69.8022 242.178 69.2364 242.393C68.6778 242.607 68.0154 242.715 67.2491 242.715ZM75.6612 232.703V242.5H73.6739V230.877H75.6075L75.6612 232.703ZM79.2921 230.812L79.2813 232.66C79.1166 232.624 78.959 232.603 78.8087 232.596C78.6654 232.581 78.5007 232.574 78.3145 232.574C77.8562 232.574 77.4516 232.646 77.1006 232.789C76.7497 232.932 76.4525 233.133 76.209 233.391C75.9656 233.648 75.7722 233.956 75.629 234.314C75.4929 234.665 75.4034 235.052 75.3604 235.475L74.8018 235.797C74.8018 235.095 74.8699 234.436 75.0059 233.82C75.1491 233.204 75.3676 232.66 75.6612 232.188C75.9548 231.708 76.3272 231.335 76.7784 231.07C77.2367 230.798 77.781 230.662 78.4112 230.662C78.5544 230.662 78.7191 230.68 78.9053 230.716C79.0915 230.744 79.2204 230.777 79.2921 230.812ZM84.17 241.297L87.4034 230.877H89.5303L84.8682 244.294C84.7608 244.58 84.6175 244.888 84.4385 245.218C84.2666 245.554 84.0446 245.873 83.7725 246.174C83.5004 246.475 83.1709 246.718 82.7842 246.904C82.4047 247.098 81.9499 247.194 81.42 247.194C81.2624 247.194 81.0619 247.173 80.8184 247.13C80.5749 247.087 80.403 247.051 80.3028 247.022L80.292 245.411C80.3493 245.418 80.4388 245.425 80.5606 245.433C80.6895 245.447 80.779 245.454 80.8291 245.454C81.2803 245.454 81.6634 245.393 81.9785 245.271C82.2937 245.157 82.5586 244.96 82.7735 244.681C82.9955 244.409 83.1853 244.033 83.3428 243.553L84.17 241.297ZM81.7959 230.877L84.8145 239.9L85.3301 241.995L83.9014 242.726L79.626 230.877H81.7959ZM92.249 230.877L94.7949 235.109L97.373 230.877H99.7041L95.9014 236.613L99.8223 242.5H97.5234L94.8379 238.139L92.1523 242.5H89.8428L93.7529 236.613L89.9609 230.877H92.249ZM100.661 236.817V236.57C100.661 235.732 100.783 234.955 101.026 234.239C101.27 233.516 101.621 232.889 102.079 232.359C102.537 231.822 103.092 231.407 103.744 231.113C104.396 230.812 105.126 230.662 105.936 230.662C106.752 230.662 107.486 230.812 108.138 231.113C108.797 231.407 109.355 231.822 109.813 232.359C110.279 232.889 110.633 233.516 110.877 234.239C111.12 234.955 111.242 235.732 111.242 236.57V236.817C111.242 237.655 111.12 238.432 110.877 239.148C110.633 239.865 110.279 240.491 109.813 241.028C109.355 241.558 108.8 241.974 108.148 242.274C107.504 242.568 106.773 242.715 105.957 242.715C105.141 242.715 104.407 242.568 103.755 242.274C103.103 241.974 102.545 241.558 102.079 241.028C101.621 240.491 101.27 239.865 101.026 239.148C100.783 238.432 100.661 237.655 100.661 236.817ZM102.648 236.57V236.817C102.648 237.397 102.716 237.945 102.853 238.461C102.989 238.969 103.193 239.421 103.465 239.814C103.744 240.208 104.091 240.52 104.507 240.749C104.922 240.971 105.406 241.082 105.957 241.082C106.501 241.082 106.978 240.971 107.386 240.749C107.801 240.52 108.145 240.208 108.417 239.814C108.689 239.421 108.893 238.969 109.029 238.461C109.172 237.945 109.244 237.397 109.244 236.817V236.57C109.244 235.997 109.172 235.457 109.029 234.948C108.893 234.433 108.686 233.978 108.406 233.584C108.134 233.183 107.79 232.868 107.375 232.639C106.967 232.41 106.487 232.295 105.936 232.295C105.391 232.295 104.911 232.41 104.496 232.639C104.088 232.868 103.744 233.183 103.465 233.584C103.193 233.978 102.989 234.433 102.853 234.948C102.716 235.457 102.648 235.997 102.648 236.57ZM115.293 233.187V242.5H113.295V230.877H115.185L115.293 233.187ZM114.885 236.248L113.961 236.216C113.968 235.421 114.072 234.687 114.272 234.014C114.473 233.333 114.77 232.743 115.164 232.241C115.558 231.74 116.048 231.353 116.636 231.081C117.223 230.802 117.903 230.662 118.677 230.662C119.221 230.662 119.722 230.741 120.181 230.898C120.639 231.049 121.036 231.289 121.373 231.618C121.71 231.948 121.971 232.37 122.157 232.886C122.343 233.401 122.436 234.024 122.436 234.755V242.5H120.449V234.852C120.449 234.243 120.345 233.756 120.138 233.391C119.937 233.025 119.651 232.76 119.278 232.596C118.906 232.424 118.469 232.338 117.968 232.338C117.38 232.338 116.89 232.442 116.496 232.649C116.102 232.857 115.787 233.144 115.551 233.509C115.314 233.874 115.143 234.293 115.035 234.766C114.935 235.231 114.885 235.725 114.885 236.248ZM122.415 235.152L121.083 235.561C121.09 234.923 121.194 234.311 121.394 233.724C121.602 233.136 121.899 232.614 122.286 232.155C122.68 231.697 123.163 231.335 123.736 231.07C124.309 230.798 124.964 230.662 125.702 230.662C126.325 230.662 126.877 230.744 127.356 230.909C127.843 231.074 128.252 231.328 128.581 231.672C128.918 232.008 129.172 232.442 129.344 232.972C129.516 233.502 129.602 234.132 129.602 234.862V242.5H127.603V234.841C127.603 234.189 127.5 233.684 127.292 233.326C127.091 232.961 126.805 232.707 126.433 232.563C126.067 232.413 125.63 232.338 125.122 232.338C124.685 232.338 124.298 232.413 123.962 232.563C123.625 232.714 123.342 232.922 123.113 233.187C122.884 233.444 122.709 233.742 122.587 234.078C122.472 234.415 122.415 234.773 122.415 235.152ZM134.189 226V242.5H132.191V226H134.189ZM141.29 230.877L136.22 236.302L133.384 239.245L133.223 237.129L135.253 234.701L138.862 230.877H141.29ZM139.475 242.5L135.328 236.957L136.359 235.185L141.816 242.5H139.475ZM149.777 240.513V234.529C149.777 234.071 149.684 233.674 149.498 233.337C149.319 232.993 149.047 232.728 148.682 232.542C148.316 232.356 147.865 232.263 147.328 232.263C146.827 232.263 146.386 232.349 146.007 232.521C145.634 232.692 145.341 232.918 145.126 233.197C144.918 233.477 144.814 233.777 144.814 234.1H142.827C142.827 233.684 142.934 233.272 143.149 232.864C143.364 232.456 143.672 232.087 144.073 231.758C144.481 231.421 144.968 231.156 145.534 230.963C146.107 230.762 146.744 230.662 147.446 230.662C148.291 230.662 149.036 230.805 149.681 231.092C150.332 231.378 150.841 231.812 151.206 232.392C151.578 232.965 151.765 233.684 151.765 234.551V239.965C151.765 240.352 151.797 240.763 151.861 241.2C151.933 241.637 152.037 242.013 152.173 242.328V242.5H150.099C149.999 242.271 149.92 241.966 149.863 241.587C149.806 241.2 149.777 240.842 149.777 240.513ZM150.121 235.453L150.142 236.85H148.134C147.568 236.85 147.063 236.896 146.619 236.989C146.175 237.075 145.803 237.208 145.502 237.387C145.201 237.566 144.972 237.791 144.814 238.063C144.657 238.328 144.578 238.64 144.578 238.998C144.578 239.363 144.66 239.696 144.825 239.997C144.99 240.298 145.237 240.538 145.566 240.717C145.903 240.889 146.315 240.975 146.802 240.975C147.41 240.975 147.947 240.846 148.413 240.588C148.878 240.33 149.247 240.015 149.519 239.643C149.799 239.27 149.949 238.909 149.971 238.558L150.819 239.514C150.769 239.814 150.633 240.147 150.411 240.513C150.189 240.878 149.892 241.229 149.519 241.565C149.154 241.895 148.717 242.171 148.209 242.393C147.708 242.607 147.142 242.715 146.512 242.715C145.724 242.715 145.033 242.561 144.438 242.253C143.851 241.945 143.393 241.533 143.063 241.018C142.741 240.495 142.58 239.911 142.58 239.267C142.58 238.644 142.702 238.096 142.945 237.623C143.189 237.143 143.54 236.746 143.998 236.431C144.456 236.108 145.008 235.865 145.652 235.7C146.297 235.535 147.016 235.453 147.811 235.453H150.121Z" fill="black" fill-opacity="0.8"/>
<ellipse cx="664.5" cy="234.5" rx="99" ry="37.5" fill="#78BCEB"/>
<path d="M629.197 226.859V242.5H627.123V226.859H629.197ZM638.832 226.859L632.043 235.464H628.37L628.047 233.745H630.808L636.265 226.859H638.832ZM636.748 242.5L630.872 235.195L632.033 233.38L639.284 242.5H636.748ZM648.387 230.877V232.521H642.769V230.877H648.387ZM650.138 230.877V242.5H648.151V230.877H650.138ZM642.286 230.877H644.284L643.983 236.484C643.933 237.351 643.851 238.117 643.736 238.783C643.629 239.442 643.478 240.008 643.285 240.48C643.099 240.953 642.862 241.34 642.576 241.641C642.297 241.934 641.96 242.153 641.566 242.296C641.172 242.432 640.717 242.5 640.202 242.5H639.579V240.749L640.008 240.717C640.316 240.695 640.578 240.624 640.793 240.502C641.015 240.38 641.201 240.201 641.351 239.965C641.502 239.721 641.623 239.41 641.716 239.03C641.817 238.651 641.892 238.2 641.942 237.677C641.999 237.154 642.042 236.545 642.071 235.851L642.286 230.877ZM655.257 230.877V242.5H653.259V230.877H655.257ZM653.108 227.794C653.108 227.472 653.205 227.2 653.398 226.978C653.599 226.756 653.892 226.645 654.279 226.645C654.659 226.645 654.949 226.756 655.149 226.978C655.357 227.2 655.461 227.472 655.461 227.794C655.461 228.102 655.357 228.367 655.149 228.589C654.949 228.804 654.659 228.911 654.279 228.911C653.892 228.911 653.599 228.804 653.398 228.589C653.205 228.367 653.108 228.102 653.108 227.794ZM664.156 235.883V237.516H658.205V235.883H664.156ZM662.975 241.082C663.447 241.082 663.884 240.985 664.285 240.792C664.686 240.599 665.016 240.334 665.273 239.997C665.531 239.653 665.678 239.263 665.714 238.826H667.594C667.558 239.514 667.325 240.155 666.896 240.749C666.473 241.336 665.918 241.812 665.23 242.178C664.55 242.536 663.798 242.715 662.975 242.715C662.101 242.715 661.338 242.561 660.687 242.253C660.035 241.945 659.494 241.522 659.064 240.985C658.642 240.448 658.323 239.832 658.108 239.138C657.901 238.436 657.797 237.695 657.797 236.914V236.463C657.797 235.682 657.901 234.945 658.108 234.25C658.323 233.548 658.646 232.929 659.075 232.392C659.505 231.854 660.042 231.432 660.687 231.124C661.338 230.816 662.097 230.662 662.964 230.662C663.873 230.662 664.668 230.848 665.349 231.221C666.029 231.586 666.562 232.087 666.949 232.725C667.343 233.355 667.558 234.071 667.594 234.873H665.714C665.678 234.393 665.542 233.96 665.306 233.573C665.076 233.187 664.761 232.879 664.36 232.649C663.966 232.413 663.501 232.295 662.964 232.295C662.355 232.295 661.843 232.417 661.428 232.66C661.02 232.896 660.694 233.219 660.45 233.627C660.214 234.028 660.042 234.476 659.935 234.97C659.834 235.457 659.784 235.954 659.784 236.463V236.914C659.784 237.423 659.834 237.924 659.935 238.418C660.042 238.912 660.214 239.36 660.45 239.761C660.694 240.162 661.02 240.484 661.428 240.728C661.843 240.964 662.359 241.082 662.975 241.082ZM677.686 235.915V237.526H671.541V235.915H677.686ZM671.96 230.877V242.5H669.973V230.877H671.96ZM679.297 230.877V242.5H677.299V230.877H679.297ZM686.994 230.877V242.5H684.995V230.877H686.994ZM690.893 230.877V232.488H681.171V230.877H690.893ZM694.754 239.353L700.115 230.877H702.113V242.5H700.115V234.024L694.754 242.5H692.778V230.877H694.754V239.353Z" fill="black" fill-opacity="0.8"/>
<path d="M202.5 233C201.672 233 201 233.672 201 234.5C201 235.328 201.672 236 202.5 236V233ZM294.561 396.061C295.146 395.475 295.146 394.525 294.561 393.939L285.015 384.393C284.429 383.808 283.479 383.808 282.893 384.393C282.308 384.979 282.308 385.929 282.893 386.515L291.379 395L282.893 403.485C282.308 404.071 282.308 405.021 282.893 405.607C283.479 406.192 284.429 406.192 285.015 405.607L294.561 396.061ZM202.5 236H224V233H202.5V236ZM246.5 258.5V371H249.5V258.5H246.5ZM272 396.5H293.5V393.5H272V396.5ZM246.5 371C246.5 385.083 257.917 396.5 272 396.5V393.5C259.574 393.5 249.5 383.426 249.5 371H246.5ZM224 236C236.426 236 246.5 246.074 246.5 258.5H249.5C249.5 244.417 238.083 233 224 233V236Z" fill="#85B7DD"/>
<path d="M202.5 233C201.672 233 201 233.672 201 234.5C201 235.328 201.672 236 202.5 236V233ZM294.561 281.561C295.146 280.975 295.146 280.025 294.561 279.439L285.015 269.893C284.429 269.308 283.479 269.308 282.893 269.893C282.308 270.479 282.308 271.429 282.893 272.015L291.379 280.5L282.893 288.985C282.308 289.571 282.308 290.521 282.893 291.107C283.479 291.692 284.429 291.692 285.015 291.107L294.561 281.561ZM248 257.5H249.5H248ZM248 257.5H249.5H248ZM202.5 236H225V233H202.5V236ZM271 282H293.5V279H271V282ZM246.5 257.5C246.5 271.031 257.469 282 271 282V279C259.126 279 249.5 269.374 249.5 257.5H246.5ZM225 236C236.874 236 246.5 245.626 246.5 257.5H249.5C249.5 243.969 238.531 233 225 233V236Z" fill="#85B7DD"/>
<path d="M202.5 233C201.672 233 201 233.672 201 234.5C201 235.328 201.672 236 202.5 236V233ZM294.561 160.561C295.146 159.975 295.146 159.025 294.561 158.439L285.015 148.893C284.429 148.308 283.479 148.308 282.893 148.893C282.308 149.479 282.308 150.429 282.893 151.015L291.379 159.5L282.893 167.985C282.308 168.571 282.308 169.521 282.893 170.107C283.479 170.692 284.429 170.692 285.015 170.107L294.561 160.561ZM202.5 236H224V233H202.5V236ZM249.5 210.5V183.5H246.5V210.5H249.5ZM272 161H293.5V158H272V161ZM249.5 183.5C249.5 171.074 259.574 161 272 161V158C257.917 158 246.5 169.417 246.5 183.5H249.5ZM224 236C238.083 236 249.5 224.583 249.5 210.5H246.5C246.5 222.926 236.426 233 224 233V236Z" fill="#85B7DD"/>
<path d="M202.5 233C201.672 233 201 233.672 201 234.5C201 235.328 201.672 236 202.5 236V233ZM294.561 38.5607C295.146 37.9749 295.146 37.0251 294.561 36.4393L285.015 26.8934C284.429 26.3076 283.479 26.3076 282.893 26.8934C282.308 27.4792 282.308 28.4289 282.893 29.0147L291.379 37.5L282.893 45.9853C282.308 46.5711 282.308 47.5208 282.893 48.1066C283.479 48.6924 284.429 48.6924 285.015 48.1066L294.561 38.5607ZM202.5 236H224V233H202.5V236ZM249.5 210.5V61.5H246.5V210.5H249.5ZM272 39H293.5V36H272V39ZM249.5 61.5C249.5 49.0736 259.574 39 272 39V36C257.917 36 246.5 47.4167 246.5 61.5H249.5ZM224 236C238.083 236 249.5 224.583 249.5 210.5H246.5C246.5 222.926 236.426 233 224 233V236Z" fill="#85B7DD"/>
<path d="M561.5 236C562.328 236 563 235.328 563 234.5C563 233.672 562.328 233 561.5 233V236ZM469.439 393.939C468.854 394.525 468.854 395.475 469.439 396.061L478.985 405.607C479.571 406.192 480.521 406.192 481.107 405.607C481.692 405.021 481.692 404.071 481.107 403.485L472.621 395L481.107 386.515C481.692 385.929 481.692 384.979 481.107 384.393C480.521 383.808 479.571 383.808 478.985 384.393L469.439 393.939ZM561.5 233H540V236H561.5V233ZM514.5 258.5V371H517.5V258.5H514.5ZM492 393.5H470.5V396.5H492V393.5ZM514.5 371C514.5 383.426 504.426 393.5 492 393.5V396.5C506.083 396.5 517.5 385.083 517.5 371H514.5ZM540 233C525.917 233 514.5 244.417 514.5 258.5H517.5C517.5 246.074 527.574 236 540 236V233Z" fill="#85B7DD"/>
<path d="M561.5 236C562.328 236 563 235.328 563 234.5C563 233.672 562.328 233 561.5 233V236ZM469.439 279.439C468.854 280.025 468.854 280.975 469.439 281.561L478.985 291.107C479.571 291.692 480.521 291.692 481.107 291.107C481.692 290.521 481.692 289.571 481.107 288.985L472.621 280.5L481.107 272.015C481.692 271.429 481.692 270.479 481.107 269.893C480.521 269.308 479.571 269.308 478.985 269.893L469.439 279.439ZM516 257.5H517.5H516ZM516 257.5H517.5H516ZM561.5 233H539V236H561.5V233ZM493 279H470.5V282H493V279ZM514.5 257.5C514.5 269.374 504.874 279 493 279V282C506.531 282 517.5 271.031 517.5 257.5H514.5ZM539 233C525.469 233 514.5 243.969 514.5 257.5H517.5C517.5 245.626 527.126 236 539 236V233Z" fill="#85B7DD"/>
<path d="M561.5 236C562.328 236 563 235.328 563 234.5C563 233.672 562.328 233 561.5 233V236ZM469.439 158.439C468.854 159.025 468.854 159.975 469.439 160.561L478.985 170.107C479.571 170.692 480.521 170.692 481.107 170.107C481.692 169.521 481.692 168.571 481.107 167.985L472.621 159.5L481.107 151.015C481.692 150.429 481.692 149.479 481.107 148.893C480.521 148.308 479.571 148.308 478.985 148.893L469.439 158.439ZM561.5 233H540V236H561.5V233ZM517.5 210.5V183.5H514.5V210.5H517.5ZM492 158H470.5V161H492V158ZM517.5 183.5C517.5 169.417 506.083 158 492 158V161C504.426 161 514.5 171.074 514.5 183.5H517.5ZM540 233C527.574 233 517.5 222.926 517.5 210.5H514.5C514.5 224.583 525.917 236 540 236V233Z" fill="#85B7DD"/>
<path d="M561.5 236C562.328 236 563 235.328 563 234.5C563 233.672 562.328 233 561.5 233V236ZM469.439 36.4393C468.854 37.0251 468.854 37.9749 469.439 38.5607L478.985 48.1066C479.571 48.6924 480.521 48.6924 481.107 48.1066C481.692 47.5208 481.692 46.5711 481.107 45.9853L472.621 37.5L481.107 29.0147C481.692 28.4289 481.692 27.4792 481.107 26.8934C480.521 26.3076 479.571 26.3076 478.985 26.8934L469.439 36.4393ZM561.5 233H540V236H561.5V233ZM517.5 210.5V61.5H514.5V210.5H517.5ZM492 36H470.5V39H492V36ZM517.5 61.5C517.5 47.4167 506.083 36 492 36V39C504.426 39 514.5 49.0736 514.5 61.5H517.5ZM540 233C527.574 233 517.5 222.926 517.5 210.5H514.5C514.5 224.583 525.917 236 540 236V233Z" fill="#85B7DD"/>
</svg>
