<svg width="798" height="610" viewBox="0 0 798 610" fill="none" xmlns="http://www.w3.org/2000/svg">
<rect x="305.5" y="111.5" width="187" height="76" rx="6" fill="#BDE3FF" fill-opacity="0.7"/>
<path d="M369.783 126.955V141.5H367.589V126.955H369.783ZM377.184 141.72C376.128 141.72 375.219 141.481 374.457 141.003C373.699 140.52 373.117 139.855 372.71 139.007C372.302 138.16 372.099 137.189 372.099 136.095C372.099 134.987 372.307 134.009 372.724 133.162C373.14 132.31 373.728 131.644 374.485 131.166C375.243 130.688 376.135 130.449 377.163 130.449C377.991 130.449 378.73 130.603 379.379 130.911C380.027 131.214 380.551 131.64 380.948 132.189C381.351 132.738 381.59 133.38 381.666 134.114H379.599C379.485 133.602 379.225 133.162 378.818 132.793C378.415 132.423 377.875 132.239 377.198 132.239C376.606 132.239 376.088 132.395 375.643 132.707C375.203 133.015 374.859 133.455 374.613 134.028C374.367 134.597 374.244 135.269 374.244 136.045C374.244 136.841 374.364 137.527 374.606 138.105C374.847 138.683 375.188 139.13 375.629 139.447C376.074 139.765 376.597 139.923 377.198 139.923C377.601 139.923 377.965 139.85 378.292 139.703C378.623 139.552 378.9 139.336 379.123 139.057C379.35 138.777 379.509 138.441 379.599 138.048H381.666C381.59 138.754 381.36 139.384 380.977 139.938C380.593 140.491 380.079 140.927 379.435 141.244C378.796 141.562 378.046 141.72 377.184 141.72ZM382.891 132.423V130.591H392.095V132.423H388.537V141.5H386.463V132.423H382.891ZM398.209 141.72C397.186 141.72 396.294 141.486 395.531 141.017C394.769 140.548 394.177 139.893 393.756 139.05C393.334 138.207 393.124 137.222 393.124 136.095C393.124 134.964 393.334 133.974 393.756 133.126C394.177 132.279 394.769 131.621 395.531 131.152C396.294 130.683 397.186 130.449 398.209 130.449C399.232 130.449 400.124 130.683 400.886 131.152C401.649 131.621 402.241 132.279 402.662 133.126C403.083 133.974 403.294 134.964 403.294 136.095C403.294 137.222 403.083 138.207 402.662 139.05C402.241 139.893 401.649 140.548 400.886 141.017C400.124 141.486 399.232 141.72 398.209 141.72ZM398.216 139.938C398.879 139.938 399.428 139.762 399.864 139.412C400.299 139.062 400.621 138.595 400.83 138.013C401.043 137.43 401.149 136.789 401.149 136.088C401.149 135.392 401.043 134.753 400.83 134.17C400.621 133.583 400.299 133.112 399.864 132.757C399.428 132.402 398.879 132.224 398.216 132.224C397.548 132.224 396.994 132.402 396.554 132.757C396.118 133.112 395.794 133.583 395.581 134.17C395.373 134.753 395.269 135.392 395.269 136.088C395.269 136.789 395.373 137.43 395.581 138.013C395.794 138.595 396.118 139.062 396.554 139.412C396.994 139.762 397.548 139.938 398.216 139.938ZM405.445 145.591V130.591H407.518V132.359H407.696C407.819 132.132 407.997 131.869 408.229 131.571C408.461 131.273 408.783 131.012 409.195 130.79C409.606 130.562 410.151 130.449 410.828 130.449C411.709 130.449 412.495 130.671 413.186 131.116C413.877 131.562 414.419 132.203 414.812 133.041C415.21 133.879 415.409 134.888 415.409 136.067C415.409 137.246 415.213 138.257 414.82 139.099C414.427 139.937 413.887 140.584 413.2 141.038C412.514 141.488 411.73 141.713 410.849 141.713C410.186 141.713 409.644 141.602 409.223 141.379C408.806 141.157 408.48 140.896 408.243 140.598C408.006 140.3 407.824 140.035 407.696 139.803H407.568V145.591H405.445ZM407.525 136.045C407.525 136.812 407.637 137.485 407.859 138.062C408.082 138.64 408.404 139.092 408.825 139.419C409.247 139.741 409.763 139.902 410.373 139.902C411.008 139.902 411.538 139.734 411.964 139.398C412.391 139.057 412.713 138.595 412.93 138.013C413.153 137.43 413.264 136.775 413.264 136.045C413.264 135.326 413.155 134.679 412.937 134.107C412.724 133.534 412.402 133.081 411.971 132.75C411.545 132.419 411.013 132.253 410.373 132.253C409.758 132.253 409.237 132.411 408.811 132.729C408.39 133.046 408.07 133.489 407.852 134.057C407.634 134.625 407.525 135.288 407.525 136.045ZM417.568 141.5V130.591H419.692V141.5H417.568ZM418.641 128.908C418.271 128.908 417.954 128.785 417.689 128.538C417.429 128.287 417.298 127.989 417.298 127.643C417.298 127.293 417.429 126.995 417.689 126.749C417.954 126.498 418.271 126.372 418.641 126.372C419.01 126.372 419.325 126.498 419.585 126.749C419.85 126.995 419.983 127.293 419.983 127.643C419.983 127.989 419.85 128.287 419.585 128.538C419.325 128.785 419.01 128.908 418.641 128.908ZM428.834 141.5V132.402H426.221C425.601 132.402 425.118 132.546 424.772 132.835C424.426 133.124 424.253 133.503 424.253 133.972C424.253 134.436 424.412 134.81 424.729 135.094C425.051 135.373 425.501 135.513 426.079 135.513H429.452V137.232H426.079C425.274 137.232 424.578 137.099 423.991 136.834C423.408 136.564 422.958 136.183 422.641 135.69C422.329 135.198 422.172 134.616 422.172 133.943C422.172 133.257 422.333 132.665 422.655 132.168C422.982 131.666 423.449 131.277 424.055 131.003C424.665 130.728 425.387 130.591 426.221 130.591H430.83V141.5H428.834ZM421.675 141.5L424.751 135.989H426.924L423.849 141.5H421.675ZM347.163 165.129V166.969H341.254V165.129H347.163ZM341.851 160.591V171.5H339.77V160.591H341.851ZM348.648 160.591V171.5H346.574V160.591H348.648ZM355.97 171.72C354.895 171.72 353.97 171.491 353.193 171.031C352.421 170.567 351.825 169.916 351.403 169.078C350.987 168.235 350.778 167.248 350.778 166.116C350.778 164.999 350.987 164.014 351.403 163.162C351.825 162.31 352.412 161.644 353.165 161.166C353.922 160.688 354.808 160.449 355.821 160.449C356.437 160.449 357.033 160.551 357.611 160.754C358.188 160.958 358.707 161.277 359.166 161.713C359.625 162.149 359.988 162.714 360.253 163.411C360.518 164.102 360.651 164.942 360.651 165.932V166.685H351.979V165.094H358.57C358.57 164.535 358.456 164.04 358.229 163.609C358.001 163.174 357.682 162.83 357.27 162.58C356.863 162.329 356.384 162.203 355.835 162.203C355.239 162.203 354.718 162.35 354.273 162.643C353.832 162.932 353.492 163.311 353.25 163.78C353.013 164.244 352.895 164.748 352.895 165.293V166.536C352.895 167.265 353.023 167.885 353.278 168.396C353.539 168.908 353.901 169.298 354.365 169.568C354.829 169.833 355.371 169.966 355.992 169.966C356.394 169.966 356.761 169.909 357.092 169.795C357.424 169.677 357.71 169.502 357.952 169.27C358.193 169.038 358.378 168.751 358.506 168.411L360.516 168.773C360.355 169.365 360.066 169.883 359.649 170.328C359.237 170.768 358.719 171.112 358.094 171.358C357.474 171.599 356.766 171.72 355.97 171.72ZM362.787 175.591V160.591H364.861V162.359H365.038C365.161 162.132 365.339 161.869 365.571 161.571C365.803 161.273 366.125 161.012 366.537 160.79C366.949 160.562 367.493 160.449 368.17 160.449C369.051 160.449 369.837 160.671 370.528 161.116C371.22 161.562 371.762 162.203 372.155 163.041C372.552 163.879 372.751 164.888 372.751 166.067C372.751 167.246 372.555 168.257 372.162 169.099C371.769 169.937 371.229 170.584 370.542 171.038C369.856 171.488 369.072 171.713 368.192 171.713C367.529 171.713 366.987 171.602 366.565 171.379C366.149 171.157 365.822 170.896 365.585 170.598C365.348 170.3 365.166 170.035 365.038 169.803H364.91V175.591H362.787ZM364.868 166.045C364.868 166.812 364.979 167.485 365.202 168.062C365.424 168.64 365.746 169.092 366.167 169.419C366.589 169.741 367.105 169.902 367.716 169.902C368.35 169.902 368.881 169.734 369.307 169.398C369.733 169.057 370.055 168.595 370.273 168.013C370.495 167.43 370.606 166.775 370.606 166.045C370.606 165.326 370.497 164.679 370.28 164.107C370.067 163.534 369.745 163.081 369.314 162.75C368.888 162.419 368.355 162.253 367.716 162.253C367.1 162.253 366.579 162.411 366.153 162.729C365.732 163.046 365.412 163.489 365.194 164.057C364.977 164.625 364.868 165.288 364.868 166.045ZM375.882 175.591C375.565 175.591 375.276 175.565 375.015 175.513C374.755 175.465 374.561 175.413 374.433 175.357L374.944 173.616C375.333 173.721 375.678 173.766 375.981 173.751C376.284 173.737 376.552 173.624 376.784 173.411C377.02 173.197 377.229 172.849 377.409 172.366L377.672 171.642L373.68 160.591H375.953L378.716 169.057H378.829L381.592 160.591H383.872L379.376 172.956C379.168 173.524 378.903 174.005 378.581 174.398C378.259 174.795 377.875 175.094 377.43 175.293C376.985 175.491 376.469 175.591 375.882 175.591ZM387.324 160.591L389.731 164.838L392.16 160.591H394.483L391.081 166.045L394.511 171.5H392.189L389.731 167.423L387.281 171.5H384.952L388.346 166.045L384.994 160.591H387.324ZM400.609 171.72C399.586 171.72 398.693 171.486 397.931 171.017C397.169 170.548 396.577 169.893 396.156 169.05C395.734 168.207 395.523 167.222 395.523 166.095C395.523 164.964 395.734 163.974 396.156 163.126C396.577 162.279 397.169 161.621 397.931 161.152C398.693 160.683 399.586 160.449 400.609 160.449C401.631 160.449 402.524 160.683 403.286 161.152C404.049 161.621 404.64 162.279 405.062 163.126C405.483 163.974 405.694 164.964 405.694 166.095C405.694 167.222 405.483 168.207 405.062 169.05C404.64 169.893 404.049 170.548 403.286 171.017C402.524 171.486 401.631 171.72 400.609 171.72ZM400.616 169.938C401.279 169.938 401.828 169.762 402.263 169.412C402.699 169.062 403.021 168.595 403.229 168.013C403.442 167.43 403.549 166.789 403.549 166.088C403.549 165.392 403.442 164.753 403.229 164.17C403.021 163.583 402.699 163.112 402.263 162.757C401.828 162.402 401.279 162.224 400.616 162.224C399.948 162.224 399.394 162.402 398.954 162.757C398.518 163.112 398.194 163.583 397.981 164.17C397.772 164.753 397.668 165.392 397.668 166.088C397.668 166.789 397.772 167.43 397.981 168.013C398.194 168.595 398.518 169.062 398.954 169.412C399.394 169.762 399.948 169.938 400.616 169.938ZM413.966 168.872L417.489 160.591H419.322L414.755 171.5H413.178L408.704 160.591H410.515L413.966 168.872ZM409.925 160.591V171.5H407.844V160.591H409.925ZM418.064 171.5V160.591H420.131V171.5H418.064ZM427.337 171.72C426.314 171.72 425.421 171.486 424.659 171.017C423.897 170.548 423.305 169.893 422.884 169.05C422.462 168.207 422.251 167.222 422.251 166.095C422.251 164.964 422.462 163.974 422.884 163.126C423.305 162.279 423.897 161.621 424.659 161.152C425.421 160.683 426.314 160.449 427.337 160.449C428.359 160.449 429.252 160.683 430.014 161.152C430.776 161.621 431.368 162.279 431.79 163.126C432.211 163.974 432.422 164.964 432.422 166.095C432.422 167.222 432.211 168.207 431.79 169.05C431.368 169.893 430.776 170.548 430.014 171.017C429.252 171.486 428.359 171.72 427.337 171.72ZM427.344 169.938C428.007 169.938 428.556 169.762 428.991 169.412C429.427 169.062 429.749 168.595 429.957 168.013C430.17 167.43 430.277 166.789 430.277 166.088C430.277 165.392 430.17 164.753 429.957 164.17C429.749 163.583 429.427 163.112 428.991 162.757C428.556 162.402 428.007 162.224 427.344 162.224C426.676 162.224 426.122 162.402 425.682 162.757C425.246 163.112 424.922 163.583 424.709 164.17C424.5 164.753 424.396 165.392 424.396 166.088C424.396 166.789 424.5 167.43 424.709 168.013C424.922 168.595 425.246 169.062 425.682 169.412C426.122 169.762 426.676 169.938 427.344 169.938ZM439.167 171.72C438.112 171.72 437.202 171.481 436.44 171.003C435.683 170.52 435.1 169.855 434.693 169.007C434.286 168.16 434.082 167.189 434.082 166.095C434.082 164.987 434.291 164.009 434.707 163.162C435.124 162.31 435.711 161.644 436.469 161.166C437.226 160.688 438.119 160.449 439.146 160.449C439.975 160.449 440.713 160.603 441.362 160.911C442.011 161.214 442.534 161.64 442.932 162.189C443.334 162.738 443.573 163.38 443.649 164.114H441.582C441.469 163.602 441.208 163.162 440.801 162.793C440.398 162.423 439.859 162.239 439.182 162.239C438.59 162.239 438.071 162.395 437.626 162.707C437.186 163.015 436.843 163.455 436.596 164.028C436.35 164.597 436.227 165.269 436.227 166.045C436.227 166.841 436.348 167.527 436.589 168.105C436.831 168.683 437.172 169.13 437.612 169.447C438.057 169.765 438.58 169.923 439.182 169.923C439.584 169.923 439.949 169.85 440.275 169.703C440.607 169.552 440.884 169.336 441.106 169.057C441.334 168.777 441.492 168.441 441.582 168.048H443.649C443.573 168.754 443.344 169.384 442.96 169.938C442.577 170.491 442.063 170.927 441.419 171.244C440.78 171.562 440.029 171.72 439.167 171.72ZM444.874 162.423V160.591H454.079V162.423H450.521V171.5H448.447V162.423H444.874ZM456.105 171.5V160.591H458.228V171.5H456.105ZM457.177 158.908C456.808 158.908 456.491 158.785 456.226 158.538C455.965 158.287 455.835 157.989 455.835 157.643C455.835 157.293 455.965 156.995 456.226 156.749C456.491 156.498 456.808 156.372 457.177 156.372C457.547 156.372 457.862 156.498 458.122 156.749C458.387 156.995 458.52 157.293 458.52 157.643C458.52 157.989 458.387 158.287 458.122 158.538C457.862 158.785 457.547 158.908 457.177 158.908Z" fill="black" fill-opacity="0.8"/>
<rect x="305.5" y="0.5" width="187" height="76" rx="6" fill="#BDE3FF" fill-opacity="0.7"/>
<path d="M336.549 30.9545V32.8438H329.674V45.5H327.48V30.9545H336.549ZM341.752 45.7202C340.677 45.7202 339.752 45.4905 338.975 45.0312C338.203 44.5672 337.607 43.9162 337.185 43.0781C336.769 42.2353 336.56 41.2481 336.56 40.1165C336.56 38.9991 336.769 38.0142 337.185 37.1619C337.607 36.3097 338.194 35.6444 338.947 35.1662C339.704 34.688 340.59 34.4489 341.603 34.4489C342.218 34.4489 342.815 34.5507 343.393 34.7543C343.97 34.9579 344.489 35.2775 344.948 35.7131C345.407 36.1487 345.77 36.7145 346.035 37.4105C346.3 38.1018 346.432 38.9422 346.432 39.9318V40.6847H337.761V39.0938H344.351C344.351 38.535 344.238 38.0402 344.011 37.6094C343.783 37.1738 343.464 36.8305 343.052 36.5795C342.645 36.3286 342.166 36.2031 341.617 36.2031C341.02 36.2031 340.5 36.3499 340.055 36.6435C339.614 36.9323 339.273 37.3111 339.032 37.7798C338.795 38.2438 338.677 38.7481 338.677 39.2926V40.5355C338.677 41.2647 338.805 41.8849 339.06 42.3963C339.321 42.9077 339.683 43.2983 340.147 43.5682C340.611 43.8333 341.153 43.9659 341.773 43.9659C342.176 43.9659 342.543 43.9091 342.874 43.7955C343.206 43.6771 343.492 43.5019 343.734 43.2699C343.975 43.0379 344.16 42.7514 344.288 42.4105L346.297 42.7727C346.136 43.3646 345.848 43.883 345.431 44.3281C345.019 44.7685 344.501 45.1117 343.876 45.358C343.255 45.5994 342.547 45.7202 341.752 45.7202ZM355.962 39.1293V40.9688H350.053V39.1293H355.962ZM350.65 34.5909V45.5H348.569V34.5909H350.65ZM357.446 34.5909V45.5H355.373V34.5909H357.446ZM364.769 45.7202C363.694 45.7202 362.769 45.4905 361.992 45.0312C361.22 44.5672 360.624 43.9162 360.202 43.0781C359.786 42.2353 359.577 41.2481 359.577 40.1165C359.577 38.9991 359.786 38.0142 360.202 37.1619C360.624 36.3097 361.211 35.6444 361.964 35.1662C362.721 34.688 363.607 34.4489 364.62 34.4489C365.235 34.4489 365.832 34.5507 366.41 34.7543C366.987 34.9579 367.506 35.2775 367.965 35.7131C368.424 36.1487 368.787 36.7145 369.052 37.4105C369.317 38.1018 369.449 38.9422 369.449 39.9318V40.6847H360.778V39.0938H367.368C367.368 38.535 367.255 38.0402 367.028 37.6094C366.8 37.1738 366.481 36.8305 366.069 36.5795C365.662 36.3286 365.183 36.2031 364.634 36.2031C364.037 36.2031 363.517 36.3499 363.072 36.6435C362.631 36.9323 362.29 37.3111 362.049 37.7798C361.812 38.2438 361.694 38.7481 361.694 39.2926V40.5355C361.694 41.2647 361.822 41.8849 362.077 42.3963C362.338 42.9077 362.7 43.2983 363.164 43.5682C363.628 43.8333 364.17 43.9659 364.79 43.9659C365.193 43.9659 365.56 43.9091 365.891 43.7955C366.223 43.6771 366.509 43.5019 366.751 43.2699C366.992 43.0379 367.177 42.7514 367.305 42.4105L369.314 42.7727C369.153 43.3646 368.865 43.883 368.448 44.3281C368.036 44.7685 367.518 45.1117 366.893 45.358C366.272 45.5994 365.564 45.7202 364.769 45.7202ZM371.586 49.5909V34.5909H373.659V36.3594H373.837C373.96 36.1321 374.138 35.8693 374.37 35.571C374.602 35.2727 374.924 35.0123 375.336 34.7898C375.748 34.5625 376.292 34.4489 376.969 34.4489C377.85 34.4489 378.636 34.6714 379.327 35.1165C380.018 35.5616 380.561 36.2031 380.954 37.0412C381.351 37.8793 381.55 38.8878 381.55 40.0668C381.55 41.2457 381.354 42.2566 380.961 43.0994C380.568 43.9375 380.028 44.5838 379.341 45.0384C378.655 45.4882 377.871 45.7131 376.99 45.7131C376.328 45.7131 375.785 45.6018 375.364 45.3793C374.947 45.1567 374.621 44.8963 374.384 44.598C374.147 44.2997 373.965 44.0346 373.837 43.8026H373.709V49.5909H371.586ZM373.667 40.0455C373.667 40.8125 373.778 41.4848 374 42.0625C374.223 42.6402 374.545 43.0923 374.966 43.419C375.388 43.741 375.904 43.902 376.515 43.902C377.149 43.902 377.679 43.7339 378.105 43.3977C378.532 43.0568 378.854 42.5952 379.071 42.0128C379.294 41.4304 379.405 40.7746 379.405 40.0455C379.405 39.3258 379.296 38.6795 379.079 38.1065C378.865 37.5336 378.543 37.0814 378.113 36.75C377.686 36.4186 377.154 36.2528 376.515 36.2528C375.899 36.2528 375.378 36.4115 374.952 36.7287C374.531 37.0459 374.211 37.4886 373.993 38.0568C373.775 38.625 373.667 39.2879 373.667 40.0455ZM386.884 45.7415C386.193 45.7415 385.568 45.6136 385.009 45.358C384.45 45.0975 384.008 44.7211 383.681 44.2287C383.359 43.7363 383.198 43.1326 383.198 42.4176C383.198 41.8021 383.316 41.2955 383.553 40.8977C383.79 40.5 384.109 40.1851 384.512 39.9531C384.914 39.7211 385.364 39.5459 385.861 39.4276C386.359 39.3092 386.865 39.2192 387.381 39.1577C388.035 39.0819 388.565 39.0204 388.972 38.973C389.379 38.9209 389.675 38.8381 389.86 38.7244C390.045 38.6108 390.137 38.4261 390.137 38.1705V38.1207C390.137 37.5005 389.962 37.0199 389.611 36.679C389.266 36.3381 388.75 36.1676 388.063 36.1676C387.348 36.1676 386.785 36.3262 386.373 36.6435C385.966 36.956 385.684 37.304 385.528 37.6875L383.532 37.233C383.769 36.5701 384.114 36.035 384.569 35.6278C385.028 35.2159 385.556 34.9176 386.153 34.733C386.749 34.5436 387.376 34.4489 388.035 34.4489C388.47 34.4489 388.932 34.5009 389.42 34.6051C389.912 34.7045 390.371 34.8892 390.797 35.1591C391.228 35.429 391.581 35.8149 391.856 36.3168C392.13 36.8139 392.268 37.4602 392.268 38.2557V45.5H390.194V44.0085H390.109C389.971 44.2831 389.765 44.553 389.491 44.8182C389.216 45.0833 388.863 45.3035 388.432 45.4787C388.001 45.6539 387.485 45.7415 386.884 45.7415ZM387.346 44.0369C387.933 44.0369 388.435 43.9209 388.851 43.6889C389.273 43.4569 389.592 43.1539 389.81 42.7798C390.033 42.401 390.144 41.9962 390.144 41.5653V40.1591C390.068 40.2348 389.921 40.3059 389.704 40.3722C389.491 40.4337 389.247 40.4882 388.972 40.5355C388.698 40.5781 388.43 40.6184 388.17 40.6562C387.909 40.6894 387.691 40.7178 387.516 40.7415C387.104 40.7936 386.728 40.8812 386.387 41.0043C386.051 41.1274 385.781 41.3049 385.577 41.5369C385.378 41.7642 385.279 42.0672 385.279 42.446C385.279 42.9716 385.473 43.3693 385.861 43.6392C386.25 43.9044 386.744 44.0369 387.346 44.0369ZM403.775 34.5909V43.7599H405.373V49.0156H403.278V45.5H394.876V34.5909H396.957V43.6676H401.701V34.5909H403.775ZM407.508 45.5V34.5909H409.631V45.5H407.508ZM408.58 32.9077C408.211 32.9077 407.894 32.7846 407.628 32.5384C407.368 32.2874 407.238 31.9891 407.238 31.6435C407.238 31.2931 407.368 30.9948 407.628 30.7486C407.894 30.4976 408.211 30.3722 408.58 30.3722C408.949 30.3722 409.264 30.4976 409.525 30.7486C409.79 30.9948 409.922 31.2931 409.922 31.6435C409.922 31.9891 409.79 32.2874 409.525 32.5384C409.264 32.7846 408.949 32.9077 408.58 32.9077ZM418.774 45.5V36.402H416.16C415.54 36.402 415.057 36.5464 414.711 36.8352C414.366 37.1241 414.193 37.5028 414.193 37.9716C414.193 38.4356 414.351 38.8097 414.669 39.0938C414.991 39.3731 415.44 39.5128 416.018 39.5128H419.392V41.2315H416.018C415.213 41.2315 414.517 41.099 413.93 40.8338C413.348 40.5639 412.898 40.1828 412.581 39.6903C412.268 39.1979 412.112 38.6155 412.112 37.9432C412.112 37.2566 412.273 36.6648 412.595 36.1676C412.922 35.6657 413.388 35.2775 413.994 35.0028C414.605 34.7282 415.327 34.5909 416.16 34.5909H420.77V45.5H418.774ZM411.615 45.5L414.69 39.9886H416.863L413.788 45.5H411.615ZM427.59 45.5L427.583 43.6605H427.973C428.276 43.6605 428.53 43.5966 428.733 43.4688C428.942 43.3362 429.112 43.1136 429.245 42.8011C429.377 42.4886 429.479 42.0578 429.55 41.5085C429.621 40.9545 429.673 40.2585 429.706 39.4205L429.898 34.5909H437.512V45.5H435.431V36.4233H431.865L431.695 40.1307C431.652 41.0303 431.56 41.8163 431.418 42.4886C431.281 43.161 431.079 43.7221 430.814 44.1719C430.549 44.617 430.208 44.9508 429.792 45.1733C429.375 45.3911 428.868 45.5 428.272 45.5H427.59ZM440.124 45.5V34.5909H442.247V45.5H440.124ZM441.196 32.9077C440.827 32.9077 440.51 32.7846 440.244 32.5384C439.984 32.2874 439.854 31.9891 439.854 31.6435C439.854 31.2931 439.984 30.9948 440.244 30.7486C440.51 30.4976 440.827 30.3722 441.196 30.3722C441.565 30.3722 441.88 30.4976 442.141 30.7486C442.406 30.9948 442.539 31.2931 442.539 31.6435C442.539 31.9891 442.406 32.2874 442.141 32.5384C441.88 32.7846 441.565 32.9077 441.196 32.9077ZM443.819 48.6463V43.6605H444.707C444.934 43.4522 445.126 43.2036 445.282 42.9148C445.443 42.6259 445.578 42.2827 445.687 41.8849C445.8 41.4872 445.895 41.0232 445.971 40.4929C446.047 39.9579 446.113 39.3471 446.17 38.6605L446.511 34.5909H453.925V43.6605H455.602V48.6463H453.528V45.5H445.921V48.6463H443.819ZM446.979 43.6605H451.852V36.4091H448.414L448.187 38.6605C448.078 39.8063 447.941 40.8007 447.775 41.6435C447.609 42.4815 447.344 43.1539 446.979 43.6605ZM457.457 45.5V34.5909H459.581V45.5H457.457ZM458.53 32.9077C458.16 32.9077 457.843 32.7846 457.578 32.5384C457.317 32.2874 457.187 31.9891 457.187 31.6435C457.187 31.2931 457.317 30.9948 457.578 30.7486C457.843 30.4976 458.16 30.3722 458.53 30.3722C458.899 30.3722 459.214 30.4976 459.474 30.7486C459.739 30.9948 459.872 31.2931 459.872 31.6435C459.872 31.9891 459.739 32.2874 459.474 32.5384C459.214 32.7846 458.899 32.9077 458.53 32.9077ZM462.218 45.5V34.5909H466.742C467.973 34.5909 468.948 34.8537 469.668 35.3793C470.388 35.9001 470.747 36.608 470.747 37.5028C470.747 38.142 470.544 38.6487 470.137 39.0227C469.729 39.3968 469.19 39.6477 468.517 39.7756C469.005 39.8324 469.452 39.9792 469.86 40.2159C470.267 40.4479 470.594 40.7604 470.84 41.1534C471.091 41.5464 471.216 42.0152 471.216 42.5597C471.216 43.1373 471.067 43.6487 470.769 44.0938C470.47 44.5341 470.037 44.8797 469.469 45.1307C468.906 45.3769 468.226 45.5 467.431 45.5H462.218ZM464.213 43.7244H467.431C467.956 43.7244 468.368 43.599 468.666 43.348C468.965 43.0971 469.114 42.7562 469.114 42.3253C469.114 41.8187 468.965 41.4209 468.666 41.1321C468.368 40.8385 467.956 40.6918 467.431 40.6918H464.213V43.7244ZM464.213 39.1364H466.763C467.161 39.1364 467.502 39.0795 467.786 38.9659C468.075 38.8523 468.295 38.6913 468.446 38.483C468.603 38.2699 468.681 38.0189 468.681 37.7301C468.681 37.3087 468.508 36.9796 468.162 36.7429C467.817 36.5062 467.343 36.3878 466.742 36.3878H464.213V39.1364Z" fill="black" fill-opacity="0.8"/>
<rect x="305.5" y="222.5" width="187" height="76" rx="6" fill="#BDE3FF" fill-opacity="0.7"/>
<path d="M349.828 252.955H352.491L357.122 264.261H357.292L361.923 252.955H364.586V267.5H362.498V256.974H362.363L358.073 267.479H356.34L352.051 256.967H351.916V267.5H349.828V252.955ZM370.561 267.741C369.87 267.741 369.245 267.614 368.686 267.358C368.127 267.098 367.685 266.721 367.358 266.229C367.036 265.736 366.875 265.133 366.875 264.418C366.875 263.802 366.993 263.295 367.23 262.898C367.467 262.5 367.786 262.185 368.189 261.953C368.591 261.721 369.041 261.546 369.538 261.428C370.036 261.309 370.542 261.219 371.058 261.158C371.712 261.082 372.242 261.02 372.649 260.973C373.056 260.921 373.352 260.838 373.537 260.724C373.722 260.611 373.814 260.426 373.814 260.17V260.121C373.814 259.5 373.639 259.02 373.288 258.679C372.943 258.338 372.427 258.168 371.74 258.168C371.025 258.168 370.462 258.326 370.05 258.643C369.643 258.956 369.361 259.304 369.205 259.688L367.209 259.233C367.446 258.57 367.791 258.035 368.246 257.628C368.705 257.216 369.233 256.918 369.83 256.733C370.426 256.544 371.054 256.449 371.712 256.449C372.147 256.449 372.609 256.501 373.097 256.605C373.589 256.705 374.048 256.889 374.474 257.159C374.905 257.429 375.258 257.815 375.533 258.317C375.807 258.814 375.945 259.46 375.945 260.256V267.5H373.871V266.009H373.786C373.648 266.283 373.442 266.553 373.168 266.818C372.893 267.083 372.54 267.304 372.109 267.479C371.679 267.654 371.162 267.741 370.561 267.741ZM371.023 266.037C371.61 266.037 372.112 265.921 372.528 265.689C372.95 265.457 373.269 265.154 373.487 264.78C373.71 264.401 373.821 263.996 373.821 263.565V262.159C373.745 262.235 373.599 262.306 373.381 262.372C373.168 262.434 372.924 262.488 372.649 262.536C372.375 262.578 372.107 262.618 371.847 262.656C371.586 262.689 371.368 262.718 371.193 262.741C370.781 262.794 370.405 262.881 370.064 263.004C369.728 263.127 369.458 263.305 369.254 263.537C369.055 263.764 368.956 264.067 368.956 264.446C368.956 264.972 369.15 265.369 369.538 265.639C369.927 265.904 370.421 266.037 371.023 266.037ZM377.2 258.423V256.591H386.405V258.423H382.846V267.5H380.773V258.423H377.2ZM392.625 267.72C391.55 267.72 390.624 267.491 389.848 267.031C389.076 266.567 388.479 265.916 388.058 265.078C387.641 264.235 387.433 263.248 387.433 262.116C387.433 260.999 387.641 260.014 388.058 259.162C388.479 258.31 389.066 257.644 389.819 257.166C390.577 256.688 391.462 256.449 392.476 256.449C393.091 256.449 393.688 256.551 394.265 256.754C394.843 256.958 395.361 257.277 395.821 257.713C396.28 258.149 396.642 258.714 396.907 259.411C397.172 260.102 397.305 260.942 397.305 261.932V262.685H388.633V261.094H395.224C395.224 260.535 395.11 260.04 394.883 259.609C394.656 259.174 394.336 258.83 393.924 258.58C393.517 258.329 393.039 258.203 392.49 258.203C391.893 258.203 391.372 258.35 390.927 258.643C390.487 258.932 390.146 259.311 389.904 259.78C389.668 260.244 389.549 260.748 389.549 261.293V262.536C389.549 263.265 389.677 263.885 389.933 264.396C390.193 264.908 390.556 265.298 391.02 265.568C391.484 265.833 392.026 265.966 392.646 265.966C393.048 265.966 393.415 265.909 393.747 265.795C394.078 265.677 394.365 265.502 394.606 265.27C394.848 265.038 395.032 264.751 395.16 264.411L397.17 264.773C397.009 265.365 396.72 265.883 396.304 266.328C395.892 266.768 395.373 267.112 394.748 267.358C394.128 267.599 393.42 267.72 392.625 267.72ZM399.441 271.591V256.591H401.515V258.359H401.693C401.816 258.132 401.993 257.869 402.225 257.571C402.457 257.273 402.779 257.012 403.191 256.79C403.603 256.562 404.148 256.449 404.825 256.449C405.705 256.449 406.491 256.671 407.183 257.116C407.874 257.562 408.416 258.203 408.809 259.041C409.207 259.879 409.406 260.888 409.406 262.067C409.406 263.246 409.209 264.257 408.816 265.099C408.423 265.937 407.883 266.584 407.197 267.038C406.51 267.488 405.727 267.713 404.846 267.713C404.183 267.713 403.641 267.602 403.22 267.379C402.803 267.157 402.476 266.896 402.24 266.598C402.003 266.3 401.82 266.035 401.693 265.803H401.565V271.591H399.441ZM401.522 262.045C401.522 262.812 401.633 263.485 401.856 264.062C402.079 264.64 402.401 265.092 402.822 265.419C403.243 265.741 403.759 265.902 404.37 265.902C405.005 265.902 405.535 265.734 405.961 265.398C406.387 265.057 406.709 264.595 406.927 264.013C407.15 263.43 407.261 262.775 407.261 262.045C407.261 261.326 407.152 260.679 406.934 260.107C406.721 259.534 406.399 259.081 405.968 258.75C405.542 258.419 405.009 258.253 404.37 258.253C403.755 258.253 403.234 258.411 402.808 258.729C402.386 259.046 402.067 259.489 401.849 260.057C401.631 260.625 401.522 261.288 401.522 262.045ZM411.565 267.5V256.591H413.689V267.5H411.565ZM412.637 254.908C412.268 254.908 411.951 254.785 411.686 254.538C411.425 254.287 411.295 253.989 411.295 253.643C411.295 253.293 411.425 252.995 411.686 252.749C411.951 252.498 412.268 252.372 412.637 252.372C413.007 252.372 413.322 252.498 413.582 252.749C413.847 252.995 413.98 253.293 413.98 253.643C413.98 253.989 413.847 254.287 413.582 254.538C413.322 254.785 413.007 254.908 412.637 254.908ZM419.5 267.741C418.809 267.741 418.184 267.614 417.625 267.358C417.066 267.098 416.624 266.721 416.297 266.229C415.975 265.736 415.814 265.133 415.814 264.418C415.814 263.802 415.932 263.295 416.169 262.898C416.406 262.5 416.726 262.185 417.128 261.953C417.53 261.721 417.98 261.546 418.477 261.428C418.975 261.309 419.481 261.219 419.997 261.158C420.651 261.082 421.181 261.02 421.588 260.973C421.995 260.921 422.291 260.838 422.476 260.724C422.661 260.611 422.753 260.426 422.753 260.17V260.121C422.753 259.5 422.578 259.02 422.227 258.679C421.882 258.338 421.366 258.168 420.679 258.168C419.964 258.168 419.401 258.326 418.989 258.643C418.582 258.956 418.3 259.304 418.144 259.688L416.148 259.233C416.385 258.57 416.73 258.035 417.185 257.628C417.644 257.216 418.172 256.918 418.769 256.733C419.365 256.544 419.993 256.449 420.651 256.449C421.086 256.449 421.548 256.501 422.036 256.605C422.528 256.705 422.987 256.889 423.414 257.159C423.844 257.429 424.197 257.815 424.472 258.317C424.746 258.814 424.884 259.46 424.884 260.256V267.5H422.81V266.009H422.725C422.587 266.283 422.381 266.553 422.107 266.818C421.832 267.083 421.479 267.304 421.048 267.479C420.618 267.654 420.101 267.741 419.5 267.741ZM419.962 266.037C420.549 266.037 421.051 265.921 421.467 265.689C421.889 265.457 422.208 265.154 422.426 264.78C422.649 264.401 422.76 263.996 422.76 263.565V262.159C422.684 262.235 422.538 262.306 422.32 262.372C422.107 262.434 421.863 262.488 421.588 262.536C421.314 262.578 421.046 262.618 420.786 262.656C420.525 262.689 420.307 262.718 420.132 262.741C419.72 262.794 419.344 262.881 419.003 263.004C418.667 263.127 418.397 263.305 418.193 263.537C417.994 263.764 417.895 264.067 417.895 264.446C417.895 264.972 418.089 265.369 418.477 265.639C418.866 265.904 419.36 266.037 419.962 266.037ZM426.633 267.5L426.626 265.661H427.016C427.319 265.661 427.573 265.597 427.776 265.469C427.985 265.336 428.155 265.114 428.288 264.801C428.42 264.489 428.522 264.058 428.593 263.509C428.664 262.955 428.716 262.259 428.749 261.42L428.941 256.591H436.555V267.5H434.474V258.423H430.908L430.738 262.131C430.695 263.03 430.603 263.816 430.461 264.489C430.324 265.161 430.122 265.722 429.857 266.172C429.592 266.617 429.251 266.951 428.834 267.173C428.418 267.391 427.911 267.5 427.315 267.5H426.633ZM441.248 264.524L446.056 256.591H448.343V267.5H446.262V259.56L441.475 267.5H439.167V256.591H441.248V264.524Z" fill="black" fill-opacity="0.8"/>
<rect x="305.5" y="336.5" width="187" height="75" rx="6" fill="#BDE3FF" fill-opacity="0.7"/>
<path d="M372.204 359.727C372.204 361.28 371.919 362.616 371.351 363.733C370.783 364.846 370.004 365.703 369.015 366.304C368.03 366.901 366.91 367.199 365.655 367.199C364.396 367.199 363.271 366.901 362.282 366.304C361.297 365.703 360.52 364.843 359.952 363.726C359.384 362.608 359.1 361.276 359.1 359.727C359.1 358.174 359.384 356.841 359.952 355.729C360.52 354.611 361.297 353.754 362.282 353.158C363.271 352.556 364.396 352.256 365.655 352.256C366.91 352.256 368.03 352.556 369.015 353.158C370.004 353.754 370.783 354.611 371.351 355.729C371.919 356.841 372.204 358.174 372.204 359.727ZM370.03 359.727C370.03 358.544 369.838 357.547 369.455 356.737C369.076 355.923 368.555 355.307 367.892 354.891C367.234 354.469 366.489 354.259 365.655 354.259C364.817 354.259 364.069 354.469 363.411 354.891C362.753 355.307 362.232 355.923 361.848 356.737C361.47 357.547 361.28 358.544 361.28 359.727C361.28 360.911 361.47 361.91 361.848 362.724C362.232 363.534 362.753 364.15 363.411 364.571C364.069 364.988 364.817 365.196 365.655 365.196C366.489 365.196 367.234 364.988 367.892 364.571C368.555 364.15 369.076 363.534 369.455 362.724C369.838 361.91 370.03 360.911 370.03 359.727ZM381.943 360.629V362.469H376.034V360.629H381.943ZM376.63 356.091V367H374.549V356.091H376.63ZM383.427 356.091V367H381.353V356.091H383.427ZM385.189 367L385.181 365.161H385.572C385.875 365.161 386.128 365.097 386.332 364.969C386.54 364.836 386.711 364.614 386.843 364.301C386.976 363.989 387.078 363.558 387.149 363.009C387.22 362.455 387.272 361.759 387.305 360.92L387.497 356.091H395.11V367H393.029V357.923H389.464L389.294 361.631C389.251 362.53 389.159 363.316 389.017 363.989C388.879 364.661 388.678 365.222 388.413 365.672C388.148 366.117 387.807 366.451 387.39 366.673C386.974 366.891 386.467 367 385.87 367H385.189ZM400.897 367.241C400.206 367.241 399.581 367.114 399.022 366.858C398.463 366.598 398.021 366.221 397.694 365.729C397.372 365.236 397.211 364.633 397.211 363.918C397.211 363.302 397.329 362.795 397.566 362.398C397.803 362 398.123 361.685 398.525 361.453C398.927 361.221 399.377 361.046 399.874 360.928C400.372 360.809 400.878 360.719 401.394 360.658C402.048 360.582 402.578 360.52 402.985 360.473C403.392 360.421 403.688 360.338 403.873 360.224C404.058 360.111 404.15 359.926 404.15 359.67V359.621C404.15 359 403.975 358.52 403.624 358.179C403.279 357.838 402.763 357.668 402.076 357.668C401.361 357.668 400.798 357.826 400.386 358.143C399.979 358.456 399.697 358.804 399.541 359.188L397.545 358.733C397.782 358.07 398.127 357.535 398.582 357.128C399.041 356.716 399.569 356.418 400.166 356.233C400.762 356.044 401.39 355.949 402.048 355.949C402.483 355.949 402.945 356.001 403.433 356.105C403.925 356.205 404.384 356.389 404.811 356.659C405.241 356.929 405.594 357.315 405.869 357.817C406.143 358.314 406.281 358.96 406.281 359.756V367H404.207V365.509H404.122C403.984 365.783 403.778 366.053 403.504 366.318C403.229 366.583 402.876 366.804 402.445 366.979C402.015 367.154 401.499 367.241 400.897 367.241ZM401.359 365.537C401.946 365.537 402.448 365.421 402.865 365.189C403.286 364.957 403.606 364.654 403.823 364.28C404.046 363.901 404.157 363.496 404.157 363.065V361.659C404.081 361.735 403.935 361.806 403.717 361.872C403.504 361.934 403.26 361.988 402.985 362.036C402.711 362.078 402.443 362.118 402.183 362.156C401.922 362.189 401.704 362.218 401.529 362.241C401.117 362.294 400.741 362.381 400.4 362.504C400.064 362.627 399.794 362.805 399.59 363.037C399.392 363.264 399.292 363.567 399.292 363.946C399.292 364.472 399.486 364.869 399.874 365.139C400.263 365.404 400.758 365.537 401.359 365.537ZM410.97 364.024L415.778 356.091H418.065V367H415.984V359.06L411.197 367H408.889V356.091H410.97V364.024ZM414.869 352.398H416.616C416.616 353.198 416.332 353.849 415.764 354.351C415.201 354.848 414.438 355.097 413.477 355.097C412.521 355.097 411.761 354.848 411.197 354.351C410.634 353.849 410.352 353.198 410.352 352.398H412.092C412.092 352.753 412.196 353.068 412.405 353.342C412.613 353.612 412.971 353.747 413.477 353.747C413.974 353.747 414.33 353.612 414.543 353.342C414.76 353.072 414.869 352.758 414.869 352.398ZM428.094 360.629V362.469H422.185V360.629H428.094ZM422.781 356.091V367H420.7V356.091H422.781ZM429.578 356.091V367H427.504V356.091H429.578ZM438.627 359.933V361.773H432.178V359.933H438.627ZM350.155 397V386.091H359.054V397H356.973V387.923H352.222V397H350.155ZM361.673 397V386.091H363.797V397H361.673ZM362.746 384.408C362.377 384.408 362.059 384.285 361.794 384.038C361.534 383.787 361.404 383.489 361.404 383.143C361.404 382.793 361.534 382.495 361.794 382.249C362.059 381.998 362.377 381.872 362.746 381.872C363.115 381.872 363.43 381.998 363.691 382.249C363.956 382.495 364.088 382.793 364.088 383.143C364.088 383.489 363.956 383.787 363.691 384.038C363.43 384.285 363.115 384.408 362.746 384.408ZM365.369 400.146V395.161H366.256C366.484 394.952 366.675 394.704 366.832 394.415C366.993 394.126 367.128 393.783 367.237 393.385C367.35 392.987 367.445 392.523 367.521 391.993C367.596 391.458 367.663 390.847 367.719 390.161L368.06 386.091H375.475V395.161H377.151V400.146H375.077V397H367.471V400.146H365.369ZM368.529 395.161H373.401V387.909H369.964L369.737 390.161C369.628 391.306 369.49 392.301 369.325 393.143C369.159 393.982 368.894 394.654 368.529 395.161ZM378.396 387.923V386.091H387.601V387.923H384.042V397H381.969V387.923H378.396ZM389.627 401.091V386.091H391.701V387.859H391.878C392.001 387.632 392.179 387.369 392.411 387.071C392.643 386.773 392.965 386.512 393.377 386.29C393.789 386.062 394.333 385.949 395.01 385.949C395.891 385.949 396.677 386.171 397.368 386.616C398.06 387.062 398.602 387.703 398.995 388.541C399.392 389.379 399.591 390.388 399.591 391.567C399.591 392.746 399.395 393.757 399.002 394.599C398.609 395.437 398.069 396.084 397.382 396.538C396.696 396.988 395.912 397.213 395.032 397.213C394.369 397.213 393.827 397.102 393.405 396.879C392.989 396.657 392.662 396.396 392.425 396.098C392.188 395.8 392.006 395.535 391.878 395.303H391.75V401.091H389.627ZM391.708 391.545C391.708 392.312 391.819 392.985 392.042 393.562C392.264 394.14 392.586 394.592 393.007 394.919C393.429 395.241 393.945 395.402 394.556 395.402C395.19 395.402 395.721 395.234 396.147 394.898C396.573 394.557 396.895 394.095 397.113 393.513C397.335 392.93 397.446 392.275 397.446 391.545C397.446 390.826 397.337 390.179 397.12 389.607C396.907 389.034 396.585 388.581 396.154 388.25C395.728 387.919 395.195 387.753 394.556 387.753C393.94 387.753 393.419 387.911 392.993 388.229C392.572 388.546 392.252 388.989 392.034 389.557C391.817 390.125 391.708 390.788 391.708 391.545ZM403.831 394.024L408.64 386.091H410.927V397H408.846V389.06L404.059 397H401.751V386.091H403.831V394.024ZM419.684 394.372L423.207 386.091H425.039L420.472 397H418.896L414.421 386.091H416.232L419.684 394.372ZM415.643 386.091V397H413.562V386.091H415.643ZM423.782 397V386.091H425.849V397H423.782ZM428.459 397V386.091H430.583V390.665H431.605L435.206 386.091H437.834L433.608 391.396L437.884 397H435.249L431.96 392.639H430.583V397H428.459ZM442.488 397.241C441.797 397.241 441.172 397.114 440.613 396.858C440.054 396.598 439.611 396.221 439.285 395.729C438.963 395.236 438.802 394.633 438.802 393.918C438.802 393.302 438.92 392.795 439.157 392.398C439.394 392 439.713 391.685 440.116 391.453C440.518 391.221 440.968 391.046 441.465 390.928C441.962 390.809 442.469 390.719 442.985 390.658C443.638 390.582 444.169 390.52 444.576 390.473C444.983 390.421 445.279 390.338 445.464 390.224C445.648 390.111 445.741 389.926 445.741 389.67V389.621C445.741 389 445.566 388.52 445.215 388.179C444.87 387.838 444.353 387.668 443.667 387.668C442.952 387.668 442.388 387.826 441.977 388.143C441.569 388.456 441.288 388.804 441.131 389.188L439.136 388.733C439.372 388.07 439.718 387.535 440.173 387.128C440.632 386.716 441.16 386.418 441.756 386.233C442.353 386.044 442.98 385.949 443.638 385.949C444.074 385.949 444.536 386.001 445.023 386.105C445.516 386.205 445.975 386.389 446.401 386.659C446.832 386.929 447.185 387.315 447.459 387.817C447.734 388.314 447.871 388.96 447.871 389.756V397H445.798V395.509H445.712C445.575 395.783 445.369 396.053 445.094 396.318C444.82 396.583 444.467 396.804 444.036 396.979C443.605 397.154 443.089 397.241 442.488 397.241ZM442.95 395.537C443.537 395.537 444.039 395.421 444.455 395.189C444.877 394.957 445.196 394.654 445.414 394.28C445.637 393.901 445.748 393.496 445.748 393.065V391.659C445.672 391.735 445.525 391.806 445.307 391.872C445.094 391.934 444.851 391.988 444.576 392.036C444.301 392.078 444.034 392.118 443.773 392.156C443.513 392.189 443.295 392.218 443.12 392.241C442.708 392.294 442.332 392.381 441.991 392.504C441.655 392.627 441.385 392.805 441.181 393.037C440.982 393.264 440.883 393.567 440.883 393.946C440.883 394.472 441.077 394.869 441.465 395.139C441.853 395.404 442.348 395.537 442.95 395.537Z" fill="black" fill-opacity="0.8"/>
<rect x="305.5" y="449.5" width="187" height="62" rx="6" fill="#BDE3FF" fill-opacity="0.7"/>
<path d="M331.563 477.685H329.347C329.262 477.211 329.103 476.795 328.871 476.435C328.639 476.075 328.355 475.769 328.019 475.518C327.683 475.268 327.306 475.078 326.889 474.95C326.478 474.822 326.04 474.759 325.576 474.759C324.737 474.759 323.987 474.969 323.324 475.391C322.666 475.812 322.145 476.43 321.762 477.244C321.383 478.059 321.193 479.053 321.193 480.227C321.193 481.411 321.383 482.41 321.762 483.224C322.145 484.039 322.668 484.654 323.331 485.071C323.994 485.488 324.74 485.696 325.568 485.696C326.028 485.696 326.463 485.634 326.875 485.511C327.292 485.384 327.668 485.196 328.004 484.95C328.341 484.704 328.625 484.403 328.857 484.048C329.094 483.688 329.257 483.277 329.347 482.812L331.563 482.82C331.444 483.535 331.215 484.193 330.874 484.794C330.538 485.391 330.104 485.907 329.574 486.342C329.049 486.773 328.447 487.107 327.77 487.344C327.093 487.58 326.354 487.699 325.554 487.699C324.295 487.699 323.173 487.401 322.188 486.804C321.203 486.203 320.426 485.343 319.858 484.226C319.295 483.108 319.013 481.776 319.013 480.227C319.013 478.674 319.297 477.341 319.865 476.229C320.433 475.111 321.21 474.254 322.195 473.658C323.18 473.056 324.299 472.756 325.554 472.756C326.326 472.756 327.046 472.867 327.713 473.089C328.386 473.307 328.989 473.629 329.524 474.055C330.059 474.477 330.502 474.993 330.853 475.604C331.203 476.21 331.44 476.903 331.563 477.685ZM333.969 487.5V472.955H339.153C340.28 472.955 341.215 473.149 341.959 473.537C342.707 473.925 343.266 474.463 343.635 475.149C344.004 475.831 344.189 476.619 344.189 477.514C344.189 478.404 344.002 479.188 343.628 479.865C343.259 480.537 342.7 481.061 341.952 481.435C341.208 481.809 340.273 481.996 339.146 481.996H335.219V480.107H338.947C339.658 480.107 340.235 480.005 340.68 479.801C341.13 479.598 341.459 479.302 341.668 478.913C341.876 478.525 341.98 478.059 341.98 477.514C341.98 476.965 341.874 476.489 341.661 476.087C341.452 475.684 341.123 475.376 340.673 475.163C340.228 474.946 339.644 474.837 338.919 474.837H336.163V487.5H333.969ZM341.149 480.938L344.743 487.5H342.243L338.72 480.938H341.149ZM346.639 472.955H349.303L353.933 484.261H354.104L358.735 472.955H361.398V487.5H359.31V476.974H359.175L354.885 487.479H353.152L348.862 476.967H348.727V487.5H346.639V472.955ZM368.206 490.646V485.661H369.094C369.321 485.452 369.513 485.204 369.669 484.915C369.83 484.626 369.965 484.283 370.074 483.885C370.187 483.487 370.282 483.023 370.358 482.493C370.434 481.958 370.5 481.347 370.557 480.661L370.898 476.591H378.312V485.661H379.988V490.646H377.915V487.5H370.308V490.646H368.206ZM371.366 485.661H376.238V478.409H372.801L372.574 480.661C372.465 481.806 372.327 482.801 372.162 483.643C371.996 484.482 371.731 485.154 371.366 485.661ZM380.985 487.5L380.978 485.661H381.368C381.671 485.661 381.925 485.597 382.128 485.469C382.337 485.336 382.507 485.114 382.64 484.801C382.772 484.489 382.874 484.058 382.945 483.509C383.016 482.955 383.068 482.259 383.101 481.42L383.293 476.591H390.907V487.5H388.826V478.423H385.26L385.09 482.131C385.047 483.03 384.955 483.816 384.813 484.489C384.676 485.161 384.474 485.722 384.209 486.172C383.944 486.617 383.603 486.951 383.186 487.173C382.77 487.391 382.263 487.5 381.667 487.5H380.985ZM400.024 487.5V478.402H397.411C396.79 478.402 396.307 478.546 395.962 478.835C395.616 479.124 395.443 479.503 395.443 479.972C395.443 480.436 395.602 480.81 395.919 481.094C396.241 481.373 396.691 481.513 397.269 481.513H400.642V483.232H397.269C396.464 483.232 395.768 483.099 395.181 482.834C394.598 482.564 394.148 482.183 393.831 481.69C393.519 481.198 393.362 480.616 393.362 479.943C393.362 479.257 393.523 478.665 393.845 478.168C394.172 477.666 394.638 477.277 395.245 477.003C395.855 476.728 396.577 476.591 397.411 476.591H402.02V487.5H400.024ZM392.865 487.5L395.941 481.989H398.114L395.039 487.5H392.865ZM418.116 472.528L418.997 473.871C418.67 474.169 418.298 474.382 417.882 474.51C417.47 474.633 416.994 474.711 416.454 474.744C415.914 474.773 415.296 474.799 414.6 474.822C413.814 474.846 413.168 475.017 412.661 475.334C412.155 475.646 411.764 476.11 411.49 476.726C411.22 477.337 411.044 478.104 410.964 479.027H411.099C411.454 478.35 411.946 477.843 412.576 477.507C413.211 477.171 413.923 477.003 414.714 477.003C415.595 477.003 416.378 477.204 417.065 477.607C417.751 478.009 418.291 478.598 418.684 479.375C419.082 480.147 419.281 481.091 419.281 482.209C419.281 483.34 419.072 484.318 418.656 485.142C418.244 485.966 417.661 486.603 416.909 487.053C416.16 487.498 415.277 487.72 414.259 487.72C413.241 487.72 412.354 487.491 411.596 487.031C410.843 486.567 410.258 485.881 409.842 484.972C409.43 484.062 409.224 482.94 409.224 481.605V480.526C409.224 478.03 409.669 476.153 410.559 474.893C411.449 473.634 412.78 472.988 414.551 472.955C415.124 472.94 415.635 472.938 416.085 472.947C416.534 472.952 416.927 472.931 417.264 472.884C417.605 472.831 417.889 472.713 418.116 472.528ZM414.267 485.938C414.858 485.938 415.367 485.788 415.793 485.49C416.224 485.187 416.556 484.759 416.788 484.205C417.02 483.651 417.136 482.997 417.136 482.244C417.136 481.506 417.02 480.878 416.788 480.362C416.556 479.846 416.224 479.453 415.793 479.183C415.363 478.909 414.847 478.771 414.245 478.771C413.8 478.771 413.402 478.849 413.052 479.006C412.702 479.157 412.401 479.382 412.15 479.68C411.904 479.979 411.712 480.343 411.575 480.774C411.442 481.2 411.371 481.69 411.362 482.244C411.362 483.371 411.62 484.268 412.136 484.936C412.657 485.604 413.367 485.938 414.267 485.938ZM421.433 487.5V476.591H423.556V487.5H421.433ZM422.505 474.908C422.136 474.908 421.819 474.785 421.554 474.538C421.293 474.287 421.163 473.989 421.163 473.643C421.163 473.293 421.293 472.995 421.554 472.749C421.819 472.498 422.136 472.372 422.505 472.372C422.875 472.372 423.189 472.498 423.45 472.749C423.715 472.995 423.848 473.293 423.848 473.643C423.848 473.989 423.715 474.287 423.45 474.538C423.189 474.785 422.875 474.908 422.505 474.908ZM425.547 484.616H427.72C427.749 485.062 427.95 485.405 428.324 485.646C428.703 485.888 429.193 486.009 429.794 486.009C430.405 486.009 430.926 485.878 431.357 485.618C431.788 485.353 432.003 484.943 432.003 484.389C432.003 484.058 431.92 483.769 431.754 483.523C431.593 483.272 431.364 483.078 431.066 482.94C430.772 482.803 430.424 482.734 430.021 482.734H428.246V481.065H430.021C430.623 481.065 431.073 480.928 431.371 480.653C431.669 480.379 431.818 480.036 431.818 479.624C431.818 479.179 431.657 478.821 431.335 478.551C431.018 478.277 430.575 478.139 430.007 478.139C429.43 478.139 428.949 478.269 428.566 478.53C428.182 478.786 427.981 479.117 427.962 479.524H425.817C425.831 478.913 426.016 478.378 426.371 477.919C426.731 477.455 427.214 477.095 427.82 476.839C428.431 476.579 429.124 476.449 429.901 476.449C430.71 476.449 431.411 476.579 432.003 476.839C432.595 477.1 433.052 477.46 433.374 477.919C433.7 478.378 433.864 478.906 433.864 479.503C433.864 480.104 433.684 480.597 433.324 480.98C432.969 481.359 432.505 481.631 431.932 481.797V481.911C432.353 481.939 432.727 482.067 433.054 482.294C433.381 482.521 433.637 482.822 433.821 483.196C434.006 483.57 434.098 483.994 434.098 484.467C434.098 485.135 433.914 485.713 433.544 486.2C433.18 486.688 432.673 487.064 432.024 487.33C431.38 487.59 430.644 487.72 429.816 487.72C429.011 487.72 428.289 487.595 427.649 487.344C427.015 487.088 426.511 486.728 426.137 486.264C425.767 485.8 425.571 485.251 425.547 484.616ZM443.464 481.129V482.969H437.555V481.129H443.464ZM438.152 476.591V487.5H436.071V476.591H438.152ZM444.949 476.591V487.5H442.875V476.591H444.949ZM452.271 487.72C451.197 487.72 450.271 487.491 449.494 487.031C448.723 486.567 448.126 485.916 447.705 485.078C447.288 484.235 447.08 483.248 447.08 482.116C447.08 480.999 447.288 480.014 447.705 479.162C448.126 478.31 448.713 477.644 449.466 477.166C450.224 476.688 451.109 476.449 452.122 476.449C452.738 476.449 453.334 476.551 453.912 476.754C454.49 476.958 455.008 477.277 455.467 477.713C455.927 478.149 456.289 478.714 456.554 479.411C456.819 480.102 456.952 480.942 456.952 481.932V482.685H448.28V481.094H454.871C454.871 480.535 454.757 480.04 454.53 479.609C454.303 479.174 453.983 478.83 453.571 478.58C453.164 478.329 452.686 478.203 452.136 478.203C451.54 478.203 451.019 478.35 450.574 478.643C450.134 478.932 449.793 479.311 449.551 479.78C449.315 480.244 449.196 480.748 449.196 481.293V482.536C449.196 483.265 449.324 483.885 449.58 484.396C449.84 484.908 450.202 485.298 450.666 485.568C451.13 485.833 451.672 485.966 452.293 485.966C452.695 485.966 453.062 485.909 453.394 485.795C453.725 485.677 454.011 485.502 454.253 485.27C454.494 485.038 454.679 484.751 454.807 484.411L456.817 484.773C456.656 485.365 456.367 485.883 455.95 486.328C455.538 486.768 455.02 487.112 454.395 487.358C453.775 487.599 453.067 487.72 452.271 487.72ZM463.683 487.72C462.627 487.72 461.718 487.481 460.956 487.003C460.198 486.52 459.616 485.855 459.209 485.007C458.802 484.16 458.598 483.189 458.598 482.095C458.598 480.987 458.806 480.009 459.223 479.162C459.64 478.31 460.227 477.644 460.984 477.166C461.742 476.688 462.634 476.449 463.662 476.449C464.49 476.449 465.229 476.603 465.878 476.911C466.526 477.214 467.05 477.64 467.447 478.189C467.85 478.738 468.089 479.38 468.165 480.114H466.098C465.984 479.602 465.724 479.162 465.317 478.793C464.914 478.423 464.374 478.239 463.697 478.239C463.106 478.239 462.587 478.395 462.142 478.707C461.702 479.015 461.358 479.455 461.112 480.028C460.866 480.597 460.743 481.269 460.743 482.045C460.743 482.841 460.864 483.527 461.105 484.105C461.347 484.683 461.687 485.13 462.128 485.447C462.573 485.765 463.096 485.923 463.697 485.923C464.1 485.923 464.464 485.85 464.791 485.703C465.123 485.552 465.4 485.336 465.622 485.057C465.849 484.777 466.008 484.441 466.098 484.048H468.165C468.089 484.754 467.859 485.384 467.476 485.938C467.092 486.491 466.579 486.927 465.935 487.244C465.295 487.562 464.545 487.72 463.683 487.72ZM471.558 491.591C471.241 491.591 470.952 491.565 470.692 491.513C470.431 491.465 470.237 491.413 470.109 491.357L470.621 489.616C471.009 489.721 471.354 489.766 471.657 489.751C471.96 489.737 472.228 489.624 472.46 489.411C472.697 489.197 472.905 488.849 473.085 488.366L473.348 487.642L469.356 476.591H471.629L474.392 485.057H474.505L477.268 476.591H479.548L475.052 488.956C474.844 489.524 474.579 490.005 474.257 490.398C473.935 490.795 473.551 491.094 473.106 491.293C472.661 491.491 472.145 491.591 471.558 491.591Z" fill="black" fill-opacity="0.8"/>
<rect x="305.5" y="546.5" width="187" height="63" rx="6" fill="#BDE3FF" fill-opacity="0.7"/>
<path d="M355.669 572.631H358.29C359.398 572.631 360.38 572.875 361.238 573.362C362.099 573.845 362.774 574.525 363.262 575.401C363.754 576.272 364 577.285 364 578.44C364 579.586 363.754 580.592 363.262 581.459C362.774 582.325 362.099 583.002 361.238 583.49C360.38 583.973 359.398 584.214 358.29 584.214H355.669C354.561 584.214 353.577 583.975 352.715 583.497C351.853 583.014 351.176 582.342 350.684 581.48C350.196 580.618 349.952 579.612 349.952 578.462C349.952 577.302 350.198 576.284 350.691 575.408C351.183 574.532 351.858 573.85 352.715 573.362C353.577 572.875 354.561 572.631 355.669 572.631ZM355.669 574.527C354.912 574.527 354.265 574.686 353.73 575.003C353.195 575.315 352.786 575.765 352.502 576.352C352.218 576.939 352.076 577.643 352.076 578.462C352.076 579.262 352.218 579.951 352.502 580.528C352.791 581.101 353.202 581.544 353.738 581.857C354.273 582.164 354.916 582.318 355.669 582.318H358.297C359.05 582.318 359.692 582.164 360.222 581.857C360.757 581.544 361.164 581.099 361.443 580.521C361.728 579.939 361.87 579.245 361.87 578.44C361.87 577.631 361.728 576.935 361.443 576.352C361.164 575.765 360.757 575.315 360.222 575.003C359.692 574.686 359.05 574.527 358.297 574.527H355.669ZM358.063 570.699V586.097H355.911V570.699H358.063ZM366.339 589.591V574.591H368.413V576.359H368.59C368.713 576.132 368.891 575.869 369.123 575.571C369.355 575.273 369.677 575.012 370.089 574.79C370.501 574.562 371.045 574.449 371.722 574.449C372.603 574.449 373.389 574.671 374.08 575.116C374.772 575.562 375.314 576.203 375.707 577.041C376.105 577.879 376.303 578.888 376.303 580.067C376.303 581.246 376.107 582.257 375.714 583.099C375.321 583.937 374.781 584.584 374.095 585.038C373.408 585.488 372.624 585.713 371.744 585.713C371.081 585.713 370.539 585.602 370.117 585.379C369.701 585.157 369.374 584.896 369.137 584.598C368.9 584.3 368.718 584.035 368.59 583.803H368.462V589.591H366.339ZM368.42 580.045C368.42 580.812 368.531 581.485 368.754 582.062C368.976 582.64 369.298 583.092 369.72 583.419C370.141 583.741 370.657 583.902 371.268 583.902C371.902 583.902 372.433 583.734 372.859 583.398C373.285 583.057 373.607 582.595 373.825 582.013C374.047 581.43 374.158 580.775 374.158 580.045C374.158 579.326 374.05 578.679 373.832 578.107C373.619 577.534 373.297 577.081 372.866 576.75C372.44 576.419 371.907 576.253 371.268 576.253C370.652 576.253 370.132 576.411 369.705 576.729C369.284 577.046 368.964 577.489 368.747 578.057C368.529 578.625 368.42 579.288 368.42 580.045ZM381.637 585.741C380.946 585.741 380.321 585.614 379.762 585.358C379.204 585.098 378.761 584.721 378.434 584.229C378.112 583.736 377.951 583.133 377.951 582.418C377.951 581.802 378.07 581.295 378.306 580.898C378.543 580.5 378.863 580.185 379.265 579.953C379.668 579.721 380.117 579.546 380.615 579.428C381.112 579.309 381.618 579.219 382.135 579.158C382.788 579.082 383.318 579.02 383.725 578.973C384.133 578.921 384.429 578.838 384.613 578.724C384.798 578.611 384.89 578.426 384.89 578.17V578.121C384.89 577.5 384.715 577.02 384.365 576.679C384.019 576.338 383.503 576.168 382.816 576.168C382.101 576.168 381.538 576.326 381.126 576.643C380.719 576.956 380.437 577.304 380.281 577.688L378.285 577.233C378.522 576.57 378.867 576.035 379.322 575.628C379.781 575.216 380.309 574.918 380.906 574.733C381.502 574.544 382.13 574.449 382.788 574.449C383.224 574.449 383.685 574.501 384.173 574.605C384.665 574.705 385.125 574.889 385.551 575.159C385.982 575.429 386.334 575.815 386.609 576.317C386.884 576.814 387.021 577.46 387.021 578.256V585.5H384.947V584.009H384.862C384.724 584.283 384.519 584.553 384.244 584.818C383.969 585.083 383.617 585.304 383.186 585.479C382.755 585.654 382.239 585.741 381.637 585.741ZM382.099 584.037C382.686 584.037 383.188 583.921 383.605 583.689C384.026 583.457 384.346 583.154 384.563 582.78C384.786 582.401 384.897 581.996 384.897 581.565V580.159C384.822 580.235 384.675 580.306 384.457 580.372C384.244 580.434 384 580.488 383.725 580.536C383.451 580.578 383.183 580.618 382.923 580.656C382.662 580.689 382.445 580.718 382.269 580.741C381.858 580.794 381.481 580.881 381.14 581.004C380.804 581.127 380.534 581.305 380.331 581.537C380.132 581.764 380.032 582.067 380.032 582.446C380.032 582.972 380.226 583.369 380.615 583.639C381.003 583.904 381.498 584.037 382.099 584.037ZM397.023 579.129V580.969H391.114V579.129H397.023ZM391.71 574.591V585.5H389.629V574.591H391.71ZM398.507 574.591V585.5H396.433V574.591H398.507ZM401.128 574.591H403.209V583.661H406.98V574.591H409.061V583.661H412.833V574.591H414.914V585.5H401.128V574.591ZM419.61 582.524L424.418 574.591H426.705V585.5H424.624V577.56L419.837 585.5H417.529V574.591H419.61V582.524ZM428.694 582.616H430.867C430.896 583.062 431.097 583.405 431.471 583.646C431.85 583.888 432.34 584.009 432.941 584.009C433.552 584.009 434.073 583.878 434.504 583.618C434.935 583.353 435.15 582.943 435.15 582.389C435.15 582.058 435.067 581.769 434.902 581.523C434.741 581.272 434.511 581.078 434.213 580.94C433.919 580.803 433.571 580.734 433.169 580.734H431.393V579.065H433.169C433.77 579.065 434.22 578.928 434.518 578.653C434.816 578.379 434.965 578.036 434.965 577.624C434.965 577.179 434.804 576.821 434.482 576.551C434.165 576.277 433.723 576.139 433.154 576.139C432.577 576.139 432.096 576.269 431.713 576.53C431.329 576.786 431.128 577.117 431.109 577.524H428.964C428.978 576.913 429.163 576.378 429.518 575.919C429.878 575.455 430.361 575.095 430.967 574.839C431.578 574.579 432.271 574.449 433.048 574.449C433.857 574.449 434.558 574.579 435.15 574.839C435.742 575.1 436.199 575.46 436.521 575.919C436.848 576.378 437.011 576.906 437.011 577.503C437.011 578.104 436.831 578.597 436.471 578.98C436.116 579.359 435.652 579.631 435.079 579.797V579.911C435.5 579.939 435.875 580.067 436.201 580.294C436.528 580.521 436.784 580.822 436.968 581.196C437.153 581.57 437.245 581.994 437.245 582.467C437.245 583.135 437.061 583.713 436.691 584.2C436.327 584.688 435.82 585.064 435.171 585.33C434.527 585.59 433.791 585.72 432.963 585.72C432.158 585.72 431.436 585.595 430.796 585.344C430.162 585.088 429.658 584.728 429.284 584.264C428.914 583.8 428.718 583.251 428.694 582.616ZM442.393 585.741C441.702 585.741 441.077 585.614 440.518 585.358C439.959 585.098 439.516 584.721 439.19 584.229C438.868 583.736 438.707 583.133 438.707 582.418C438.707 581.802 438.825 581.295 439.062 580.898C439.299 580.5 439.618 580.185 440.021 579.953C440.423 579.721 440.873 579.546 441.37 579.428C441.867 579.309 442.374 579.219 442.89 579.158C443.543 579.082 444.074 579.02 444.481 578.973C444.888 578.921 445.184 578.838 445.369 578.724C445.553 578.611 445.646 578.426 445.646 578.17V578.121C445.646 577.5 445.47 577.02 445.12 576.679C444.774 576.338 444.258 576.168 443.572 576.168C442.857 576.168 442.293 576.326 441.881 576.643C441.474 576.956 441.193 577.304 441.036 577.688L439.041 577.233C439.277 576.57 439.623 576.035 440.077 575.628C440.537 575.216 441.065 574.918 441.661 574.733C442.258 574.544 442.885 574.449 443.543 574.449C443.979 574.449 444.441 574.501 444.928 574.605C445.421 574.705 445.88 574.889 446.306 575.159C446.737 575.429 447.09 575.815 447.364 576.317C447.639 576.814 447.776 577.46 447.776 578.256V585.5H445.702V584.009H445.617C445.48 584.283 445.274 584.553 444.999 584.818C444.725 585.083 444.372 585.304 443.941 585.479C443.51 585.654 442.994 585.741 442.393 585.741ZM442.854 584.037C443.442 584.037 443.943 583.921 444.36 583.689C444.782 583.457 445.101 583.154 445.319 582.78C445.541 582.401 445.653 581.996 445.653 581.565V580.159C445.577 580.235 445.43 580.306 445.212 580.372C444.999 580.434 444.756 580.488 444.481 580.536C444.206 580.578 443.939 580.618 443.678 580.656C443.418 580.689 443.2 580.718 443.025 580.741C442.613 580.794 442.237 580.881 441.896 581.004C441.559 581.127 441.29 581.305 441.086 581.537C440.887 581.764 440.788 582.067 440.788 582.446C440.788 582.972 440.982 583.369 441.37 583.639C441.758 583.904 442.253 584.037 442.854 584.037Z" fill="black" fill-opacity="0.8"/>
<ellipse cx="110" cy="311.5" rx="109.5" ry="38" fill="#78BCEB"/>
<path d="M69.9708 303.359V319H67.8868L60.0128 306.937V319H57.9396V303.359H60.0128L67.9191 315.455V303.359H69.9708ZM77.7491 319.215C76.9399 319.215 76.2058 319.079 75.547 318.807C74.8953 318.527 74.3331 318.137 73.8604 317.636C73.395 317.134 73.0369 316.54 72.7862 315.853C72.5356 315.165 72.4103 314.413 72.4103 313.597V313.146C72.4103 312.2 72.5499 311.359 72.8292 310.621C73.1085 309.876 73.4881 309.246 73.9679 308.73C74.4477 308.215 74.992 307.825 75.6007 307.56C76.2094 307.295 76.8396 307.162 77.4913 307.162C78.322 307.162 79.0382 307.305 79.6397 307.592C80.2485 307.878 80.7462 308.279 81.1329 308.795C81.5196 309.303 81.8061 309.905 81.9923 310.6C82.1785 311.287 82.2716 312.039 82.2716 312.855V313.747H73.5919V312.125H80.2843V311.975C80.2556 311.459 80.1482 310.958 79.962 310.471C79.783 309.984 79.4965 309.583 79.1026 309.268C78.7088 308.952 78.1716 308.795 77.4913 308.795C77.0401 308.795 76.6248 308.892 76.2452 309.085C75.8657 309.271 75.5398 309.55 75.2677 309.923C74.9955 310.295 74.7843 310.75 74.6339 311.287C74.4835 311.824 74.4083 312.444 74.4083 313.146V313.597C74.4083 314.148 74.4835 314.667 74.6339 315.154C74.7914 315.634 75.017 316.057 75.3106 316.422C75.6114 316.787 75.9731 317.074 76.3956 317.281C76.8253 317.489 77.3123 317.593 77.8565 317.593C78.5584 317.593 79.1528 317.45 79.6397 317.163C80.1267 316.877 80.5528 316.493 80.9181 316.014L82.1212 316.97C81.8705 317.349 81.5519 317.711 81.1651 318.055C80.7784 318.398 80.3022 318.678 79.7364 318.893C79.1778 319.107 78.5154 319.215 77.7491 319.215ZM86.1612 309.203V319H84.1739V307.377H86.1075L86.1612 309.203ZM89.7921 307.312L89.7813 309.16C89.6166 309.124 89.459 309.103 89.3087 309.096C89.1654 309.081 89.0007 309.074 88.8145 309.074C88.3562 309.074 87.9516 309.146 87.6006 309.289C87.2497 309.432 86.9525 309.633 86.709 309.891C86.4656 310.148 86.2722 310.456 86.129 310.814C85.9929 311.165 85.9034 311.552 85.8604 311.975L85.3018 312.297C85.3018 311.595 85.3699 310.936 85.5059 310.32C85.6491 309.704 85.8676 309.16 86.1612 308.688C86.4548 308.208 86.8272 307.835 87.2784 307.57C87.7367 307.298 88.281 307.162 88.9112 307.162C89.0544 307.162 89.2191 307.18 89.4053 307.216C89.5915 307.244 89.7204 307.277 89.7921 307.312ZM94.67 317.797L97.9034 307.377H100.03L95.3682 320.794C95.2608 321.08 95.1175 321.388 94.9385 321.718C94.7666 322.054 94.5446 322.373 94.2725 322.674C94.0004 322.975 93.6709 323.218 93.2842 323.404C92.9047 323.598 92.4499 323.694 91.92 323.694C91.7624 323.694 91.5619 323.673 91.3184 323.63C91.0749 323.587 90.903 323.551 90.8028 323.522L90.792 321.911C90.8493 321.918 90.9388 321.925 91.0606 321.933C91.1895 321.947 91.279 321.954 91.3291 321.954C91.7803 321.954 92.1634 321.893 92.4785 321.771C92.7937 321.657 93.0586 321.46 93.2735 321.181C93.4955 320.909 93.6853 320.533 93.8428 320.053L94.67 317.797ZM92.2959 307.377L95.3145 316.4L95.8301 318.495L94.4014 319.226L90.126 307.377H92.2959ZM102.749 307.377L105.295 311.609L107.873 307.377H110.204L106.401 313.113L110.322 319H108.023L105.338 314.639L102.652 319H100.343L104.253 313.113L100.461 307.377H102.749ZM111.161 313.317V313.07C111.161 312.232 111.283 311.455 111.526 310.739C111.77 310.016 112.121 309.389 112.579 308.859C113.037 308.322 113.592 307.907 114.244 307.613C114.896 307.312 115.626 307.162 116.436 307.162C117.252 307.162 117.986 307.312 118.638 307.613C119.297 307.907 119.855 308.322 120.313 308.859C120.779 309.389 121.133 310.016 121.377 310.739C121.62 311.455 121.742 312.232 121.742 313.07V313.317C121.742 314.155 121.62 314.932 121.377 315.648C121.133 316.365 120.779 316.991 120.313 317.528C119.855 318.058 119.3 318.474 118.648 318.774C118.004 319.068 117.273 319.215 116.457 319.215C115.641 319.215 114.907 319.068 114.255 318.774C113.603 318.474 113.045 318.058 112.579 317.528C112.121 316.991 111.77 316.365 111.526 315.648C111.283 314.932 111.161 314.155 111.161 313.317ZM113.148 313.07V313.317C113.148 313.897 113.216 314.445 113.353 314.961C113.489 315.469 113.693 315.921 113.965 316.314C114.244 316.708 114.591 317.02 115.007 317.249C115.422 317.471 115.906 317.582 116.457 317.582C117.001 317.582 117.478 317.471 117.886 317.249C118.301 317.02 118.645 316.708 118.917 316.314C119.189 315.921 119.393 315.469 119.529 314.961C119.672 314.445 119.744 313.897 119.744 313.317V313.07C119.744 312.497 119.672 311.957 119.529 311.448C119.393 310.933 119.186 310.478 118.906 310.084C118.634 309.683 118.29 309.368 117.875 309.139C117.467 308.91 116.987 308.795 116.436 308.795C115.891 308.795 115.411 308.91 114.996 309.139C114.588 309.368 114.244 309.683 113.965 310.084C113.693 310.478 113.489 310.933 113.353 311.448C113.216 311.957 113.148 312.497 113.148 313.07ZM125.793 309.687V319H123.795V307.377H125.685L125.793 309.687ZM125.385 312.748L124.461 312.716C124.468 311.921 124.572 311.187 124.772 310.514C124.973 309.833 125.27 309.243 125.664 308.741C126.058 308.24 126.548 307.853 127.136 307.581C127.723 307.302 128.403 307.162 129.177 307.162C129.721 307.162 130.222 307.241 130.681 307.398C131.139 307.549 131.536 307.789 131.873 308.118C132.21 308.448 132.471 308.87 132.657 309.386C132.843 309.901 132.936 310.524 132.936 311.255V319H130.949V311.352C130.949 310.743 130.845 310.256 130.638 309.891C130.437 309.525 130.151 309.26 129.778 309.096C129.406 308.924 128.969 308.838 128.468 308.838C127.88 308.838 127.39 308.942 126.996 309.149C126.602 309.357 126.287 309.644 126.051 310.009C125.814 310.374 125.643 310.793 125.535 311.266C125.435 311.731 125.385 312.225 125.385 312.748ZM132.915 311.652L131.583 312.061C131.59 311.423 131.694 310.811 131.894 310.224C132.102 309.636 132.399 309.114 132.786 308.655C133.18 308.197 133.663 307.835 134.236 307.57C134.809 307.298 135.464 307.162 136.202 307.162C136.825 307.162 137.377 307.244 137.856 307.409C138.343 307.574 138.752 307.828 139.081 308.172C139.418 308.508 139.672 308.942 139.844 309.472C140.016 310.002 140.102 310.632 140.102 311.362V319H138.103V311.341C138.103 310.689 138 310.184 137.792 309.826C137.591 309.461 137.305 309.207 136.933 309.063C136.567 308.913 136.13 308.838 135.622 308.838C135.185 308.838 134.798 308.913 134.462 309.063C134.125 309.214 133.842 309.422 133.613 309.687C133.384 309.944 133.209 310.242 133.087 310.578C132.972 310.915 132.915 311.273 132.915 311.652ZM144.689 302.5V319H142.691V302.5H144.689ZM151.79 307.377L146.72 312.802L143.884 315.745L143.723 313.629L145.753 311.201L149.362 307.377H151.79ZM149.975 319L145.828 313.457L146.859 311.685L152.316 319H149.975ZM160.277 317.013V311.029C160.277 310.571 160.184 310.174 159.998 309.837C159.819 309.493 159.547 309.228 159.182 309.042C158.816 308.856 158.365 308.763 157.828 308.763C157.327 308.763 156.886 308.849 156.507 309.021C156.134 309.192 155.841 309.418 155.626 309.697C155.418 309.977 155.314 310.277 155.314 310.6H153.327C153.327 310.184 153.434 309.772 153.649 309.364C153.864 308.956 154.172 308.587 154.573 308.258C154.981 307.921 155.468 307.656 156.034 307.463C156.607 307.262 157.244 307.162 157.946 307.162C158.791 307.162 159.536 307.305 160.181 307.592C160.832 307.878 161.341 308.312 161.706 308.892C162.078 309.465 162.265 310.184 162.265 311.051V316.465C162.265 316.852 162.297 317.263 162.361 317.7C162.433 318.137 162.537 318.513 162.673 318.828V319H160.599C160.499 318.771 160.42 318.466 160.363 318.087C160.306 317.7 160.277 317.342 160.277 317.013ZM160.621 311.953L160.642 313.35H158.634C158.068 313.35 157.563 313.396 157.119 313.489C156.675 313.575 156.303 313.708 156.002 313.887C155.701 314.066 155.472 314.291 155.314 314.563C155.157 314.828 155.078 315.14 155.078 315.498C155.078 315.863 155.16 316.196 155.325 316.497C155.49 316.798 155.737 317.038 156.066 317.217C156.403 317.389 156.815 317.475 157.302 317.475C157.91 317.475 158.447 317.346 158.913 317.088C159.378 316.83 159.747 316.515 160.019 316.143C160.299 315.77 160.449 315.409 160.471 315.058L161.319 316.014C161.269 316.314 161.133 316.647 160.911 317.013C160.689 317.378 160.392 317.729 160.019 318.065C159.654 318.395 159.217 318.671 158.709 318.893C158.208 319.107 157.642 319.215 157.012 319.215C156.224 319.215 155.533 319.061 154.938 318.753C154.351 318.445 153.893 318.033 153.563 317.518C153.241 316.995 153.08 316.411 153.08 315.767C153.08 315.144 153.202 314.596 153.445 314.123C153.689 313.643 154.04 313.246 154.498 312.931C154.956 312.608 155.508 312.365 156.152 312.2C156.797 312.035 157.516 311.953 158.311 311.953H160.621Z" fill="black" fill-opacity="0.8"/>
<ellipse cx="688" cy="311.5" rx="109.5" ry="38" fill="#78BCEB"/>
<path d="M666.82 303.359V305.057H659.279V319H657.216V303.359H666.82ZM658.795 309.729H663.06C664.206 309.729 665.173 309.923 665.96 310.31C666.748 310.689 667.346 311.223 667.754 311.91C668.163 312.598 668.367 313.403 668.367 314.327C668.367 315.015 668.252 315.645 668.023 316.218C667.794 316.784 667.454 317.278 667.002 317.7C666.551 318.116 665.996 318.438 665.337 318.667C664.679 318.889 663.919 319 663.06 319H657.216V303.359H659.29V317.313H663.06C663.826 317.313 664.446 317.174 664.918 316.895C665.398 316.608 665.749 316.236 665.971 315.777C666.193 315.319 666.304 314.828 666.304 314.306C666.304 313.783 666.193 313.303 665.971 312.866C665.749 312.429 665.398 312.082 664.918 311.824C664.446 311.559 663.826 311.427 663.06 311.427H658.795V309.729ZM672.776 307.377V319H670.778V307.377H672.776ZM670.628 304.294C670.628 303.972 670.724 303.7 670.918 303.478C671.118 303.256 671.412 303.145 671.799 303.145C672.178 303.145 672.468 303.256 672.669 303.478C672.876 303.7 672.98 303.972 672.98 304.294C672.98 304.602 672.876 304.867 672.669 305.089C672.468 305.304 672.178 305.411 671.799 305.411C671.412 305.411 671.118 305.304 670.918 305.089C670.724 304.867 670.628 304.602 670.628 304.294ZM680.064 313.446H677.927V312.222H679.903C680.455 312.222 680.892 312.154 681.214 312.018C681.536 311.874 681.765 311.677 681.901 311.427C682.037 311.176 682.105 310.882 682.105 310.546C682.105 310.245 682.027 309.962 681.869 309.697C681.719 309.425 681.475 309.207 681.139 309.042C680.802 308.87 680.351 308.784 679.785 308.784C679.327 308.784 678.911 308.867 678.539 309.031C678.167 309.189 677.869 309.407 677.647 309.687C677.433 309.959 677.325 310.267 677.325 310.61H675.338C675.338 309.901 675.538 309.293 675.939 308.784C676.348 308.269 676.888 307.871 677.561 307.592C678.242 307.312 678.983 307.173 679.785 307.173C680.458 307.173 681.06 307.248 681.59 307.398C682.127 307.542 682.582 307.757 682.954 308.043C683.326 308.322 683.609 308.673 683.803 309.096C684.003 309.511 684.103 309.994 684.103 310.546C684.103 310.94 684.01 311.312 683.824 311.663C683.638 312.014 683.369 312.326 683.018 312.598C682.668 312.863 682.241 313.07 681.74 313.221C681.246 313.371 680.687 313.446 680.064 313.446ZM677.927 312.694H680.064C680.759 312.694 681.371 312.762 681.901 312.898C682.431 313.027 682.875 313.221 683.233 313.479C683.591 313.736 683.86 314.055 684.039 314.435C684.225 314.807 684.318 315.237 684.318 315.724C684.318 316.268 684.207 316.758 683.985 317.195C683.77 317.625 683.462 317.99 683.061 318.291C682.66 318.592 682.181 318.821 681.622 318.979C681.071 319.136 680.458 319.215 679.785 319.215C679.033 319.215 678.303 319.086 677.594 318.828C676.885 318.57 676.301 318.173 675.843 317.636C675.384 317.091 675.155 316.4 675.155 315.562H677.142C677.142 315.913 677.253 316.246 677.475 316.562C677.697 316.877 678.005 317.131 678.399 317.324C678.8 317.518 679.262 317.614 679.785 317.614C680.344 317.614 680.809 317.528 681.182 317.356C681.554 317.185 681.833 316.955 682.019 316.669C682.213 316.382 682.309 316.071 682.309 315.734C682.309 315.298 682.224 314.947 682.052 314.682C681.88 314.417 681.615 314.223 681.257 314.102C680.906 313.973 680.455 313.908 679.903 313.908H677.927V312.694ZM694.539 312.415V314.026H688.395V312.415H694.539ZM688.814 307.377V319H686.826V307.377H688.814ZM696.15 307.377V319H694.152V307.377H696.15ZM703.933 319.215C703.124 319.215 702.39 319.079 701.731 318.807C701.079 318.527 700.517 318.137 700.044 317.636C699.579 317.134 699.221 316.54 698.97 315.853C698.719 315.165 698.594 314.413 698.594 313.597V313.146C698.594 312.2 698.734 311.359 699.013 310.621C699.292 309.876 699.672 309.246 700.152 308.73C700.631 308.215 701.176 307.825 701.784 307.56C702.393 307.295 703.023 307.162 703.675 307.162C704.506 307.162 705.222 307.305 705.824 307.592C706.432 307.878 706.93 308.279 707.317 308.795C707.703 309.303 707.99 309.905 708.176 310.6C708.362 311.287 708.455 312.039 708.455 312.855V313.747H699.776V312.125H706.468V311.975C706.439 311.459 706.332 310.958 706.146 310.471C705.967 309.984 705.68 309.583 705.286 309.268C704.893 308.952 704.355 308.795 703.675 308.795C703.224 308.795 702.809 308.892 702.429 309.085C702.049 309.271 701.724 309.55 701.451 309.923C701.179 310.295 700.968 310.75 700.818 311.287C700.667 311.824 700.592 312.444 700.592 313.146V313.597C700.592 314.148 700.667 314.667 700.818 315.154C700.975 315.634 701.201 316.057 701.494 316.422C701.795 316.787 702.157 317.074 702.579 317.281C703.009 317.489 703.496 317.593 704.04 317.593C704.742 317.593 705.337 317.45 705.824 317.163C706.311 316.877 706.737 316.493 707.102 316.014L708.305 316.97C708.054 317.349 707.736 317.711 707.349 318.055C706.962 318.398 706.486 318.678 705.92 318.893C705.362 319.107 704.699 319.215 703.933 319.215ZM715.185 317.582C715.658 317.582 716.095 317.485 716.496 317.292C716.897 317.099 717.226 316.834 717.484 316.497C717.742 316.153 717.888 315.763 717.924 315.326H719.815C719.779 316.014 719.546 316.655 719.117 317.249C718.694 317.836 718.139 318.312 717.452 318.678C716.764 319.036 716.009 319.215 715.185 319.215C714.311 319.215 713.549 319.061 712.897 318.753C712.252 318.445 711.715 318.022 711.286 317.485C710.863 316.948 710.544 316.332 710.33 315.638C710.122 314.936 710.018 314.195 710.018 313.414V312.963C710.018 312.182 710.122 311.445 710.33 310.75C710.544 310.048 710.863 309.429 711.286 308.892C711.715 308.354 712.252 307.932 712.897 307.624C713.549 307.316 714.311 307.162 715.185 307.162C716.095 307.162 716.889 307.348 717.57 307.721C718.25 308.086 718.784 308.587 719.17 309.225C719.564 309.855 719.779 310.571 719.815 311.373H717.924C717.888 310.893 717.752 310.46 717.516 310.073C717.287 309.687 716.972 309.379 716.571 309.149C716.177 308.913 715.715 308.795 715.185 308.795C714.576 308.795 714.064 308.917 713.649 309.16C713.241 309.396 712.915 309.719 712.671 310.127C712.435 310.528 712.263 310.976 712.156 311.47C712.055 311.957 712.005 312.454 712.005 312.963V313.414C712.005 313.923 712.055 314.424 712.156 314.918C712.256 315.412 712.424 315.86 712.661 316.261C712.904 316.662 713.23 316.984 713.638 317.228C714.054 317.464 714.569 317.582 715.185 317.582Z" fill="black" fill-opacity="0.8"/>
<path d="M223.5 310C222.672 310 222 310.672 222 311.5C222 312.328 222.672 313 223.5 313V310ZM302.561 375.061C303.146 374.475 303.146 373.525 302.561 372.939L293.015 363.393C292.429 362.808 291.479 362.808 290.893 363.393C290.308 363.979 290.308 364.929 290.893 365.515L299.379 374L290.893 382.485C290.308 383.071 290.308 384.021 290.893 384.607C291.479 385.192 292.429 385.192 293.015 384.607L302.561 375.061ZM223.5 313H238.5V310H223.5V313ZM261 335.5V350H264V335.5H261ZM286.5 375.5H301.5V372.5H286.5V375.5ZM261 350C261 364.083 272.417 375.5 286.5 375.5V372.5C274.074 372.5 264 362.426 264 350H261ZM238.5 313C250.926 313 261 323.074 261 335.5H264C264 321.417 252.583 310 238.5 310V313Z" fill="#85B7DD"/>
<path d="M223.5 310C222.672 310 222 310.672 222 311.5C222 312.328 222.672 313 223.5 313V310ZM302.561 481.561C303.146 480.975 303.146 480.025 302.561 479.439L293.015 469.893C292.429 469.308 291.479 469.308 290.893 469.893C290.308 470.479 290.308 471.429 290.893 472.015L299.379 480.5L290.893 488.985C290.308 489.571 290.308 490.521 290.893 491.107C291.479 491.692 292.429 491.692 293.015 491.107L302.561 481.561ZM223.5 313H238.5V310H223.5V313ZM261 335.5V456.5H264V335.5H261ZM286.5 482H301.5V479H286.5V482ZM261 456.5C261 470.583 272.417 482 286.5 482V479C274.074 479 264 468.926 264 456.5H261ZM238.5 313C250.926 313 261 323.074 261 335.5H264C264 321.417 252.583 310 238.5 310V313Z" fill="#85B7DD"/>
<path d="M223.5 310C222.672 310 222 310.672 222 311.5C222 312.328 222.672 313 223.5 313V310ZM302.561 579.061C303.146 578.475 303.146 577.525 302.561 576.939L293.015 567.393C292.429 566.808 291.479 566.808 290.893 567.393C290.308 567.979 290.308 568.929 290.893 569.515L299.379 578L290.893 586.485C290.308 587.071 290.308 588.021 290.893 588.607C291.479 589.192 292.429 589.192 293.015 588.607L302.561 579.061ZM223.5 313H238.5V310H223.5V313ZM261 335.5V554H264V335.5H261ZM286.5 579.5H301.5V576.5H286.5V579.5ZM261 554C261 568.083 272.417 579.5 286.5 579.5V576.5C274.074 576.5 264 566.426 264 554H261ZM238.5 313C250.926 313 261 323.074 261 335.5H264C264 321.417 252.583 310 238.5 310V313Z" fill="#85B7DD"/>
<path d="M223.5 310C222.672 310 222 310.672 222 311.5C222 312.328 222.672 313 223.5 313V310ZM302.561 261.561C303.146 260.975 303.146 260.025 302.561 259.439L293.015 249.893C292.429 249.308 291.479 249.308 290.893 249.893C290.308 250.479 290.308 251.429 290.893 252.015L299.379 260.5L290.893 268.985C290.308 269.571 290.308 270.521 290.893 271.107C291.479 271.692 292.429 271.692 293.015 271.107L302.561 261.561ZM223.5 313H238.5V310H223.5V313ZM264 287.5V284.5H261V287.5H264ZM286.5 262H301.5V259H286.5V262ZM264 284.5C264 272.074 274.074 262 286.5 262V259C272.417 259 261 270.417 261 284.5H264ZM238.5 313C252.583 313 264 301.583 264 287.5H261C261 299.926 250.926 310 238.5 310V313Z" fill="#85B7DD"/>
<path d="M223.5 310C222.672 310 222 310.672 222 311.5C222 312.328 222.672 313 223.5 313V310ZM302.561 150.561C303.146 149.975 303.146 149.025 302.561 148.439L293.015 138.893C292.429 138.308 291.479 138.308 290.893 138.893C290.308 139.479 290.308 140.429 290.893 141.015L299.379 149.5L290.893 157.985C290.308 158.571 290.308 159.521 290.893 160.107C291.479 160.692 292.429 160.692 293.015 160.107L302.561 150.561ZM223.5 313H238.5V310H223.5V313ZM264 287.5V173.5H261V287.5H264ZM286.5 151H301.5V148H286.5V151ZM264 173.5C264 161.074 274.074 151 286.5 151V148C272.417 148 261 159.417 261 173.5H264ZM238.5 313C252.583 313 264 301.583 264 287.5H261C261 299.926 250.926 310 238.5 310V313Z" fill="#85B7DD"/>
<path d="M223.5 310C222.672 310 222 310.672 222 311.5C222 312.328 222.672 313 223.5 313V310ZM302.561 39.5607C303.146 38.9749 303.146 38.0251 302.561 37.4393L293.015 27.8934C292.429 27.3076 291.479 27.3076 290.893 27.8934C290.308 28.4792 290.308 29.4289 290.893 30.0147L299.379 38.5L290.893 46.9853C290.308 47.5711 290.308 48.5208 290.893 49.1066C291.479 49.6924 292.429 49.6924 293.015 49.1066L302.561 39.5607ZM223.5 313H238.5V310H223.5V313ZM264 287.5V62.5H261V287.5H264ZM286.5 40H301.5V37H286.5V40ZM264 62.5C264 50.0736 274.074 40 286.5 40V37C272.417 37 261 48.4167 261 62.5H264ZM238.5 313C252.583 313 264 301.583 264 287.5H261C261 299.926 250.926 310 238.5 310V313Z" fill="#85B7DD"/>
<path d="M574.5 313C575.328 313 576 312.328 576 311.5C576 310.672 575.328 310 574.5 310V313ZM495.439 372.939C494.854 373.525 494.854 374.475 495.439 375.061L504.985 384.607C505.571 385.192 506.521 385.192 507.107 384.607C507.692 384.021 507.692 383.071 507.107 382.485L498.621 374L507.107 365.515C507.692 364.929 507.692 363.979 507.107 363.393C506.521 362.808 505.571 362.808 504.985 363.393L495.439 372.939ZM574.5 310H559.5V313H574.5V310ZM534 335.5V350H537V335.5H534ZM511.5 372.5H496.5V375.5H511.5V372.5ZM534 350C534 362.426 523.926 372.5 511.5 372.5V375.5C525.583 375.5 537 364.083 537 350H534ZM559.5 310C545.417 310 534 321.417 534 335.5H537C537 323.074 547.074 313 559.5 313V310Z" fill="#85B7DD"/>
<path d="M574.5 313C575.328 313 576 312.328 576 311.5C576 310.672 575.328 310 574.5 310V313ZM495.439 479.439C494.854 480.025 494.854 480.975 495.439 481.561L504.985 491.107C505.571 491.692 506.521 491.692 507.107 491.107C507.692 490.521 507.692 489.571 507.107 488.985L498.621 480.5L507.107 472.015C507.692 471.429 507.692 470.479 507.107 469.893C506.521 469.308 505.571 469.308 504.985 469.893L495.439 479.439ZM574.5 310H559.5V313H574.5V310ZM534 335.5V456.5H537V335.5H534ZM511.5 479H496.5V482H511.5V479ZM534 456.5C534 468.926 523.926 479 511.5 479V482C525.583 482 537 470.583 537 456.5H534ZM559.5 310C545.417 310 534 321.417 534 335.5H537C537 323.074 547.074 313 559.5 313V310Z" fill="#85B7DD"/>
<path d="M574.5 313C575.328 313 576 312.328 576 311.5C576 310.672 575.328 310 574.5 310V313ZM495.439 576.939C494.854 577.525 494.854 578.475 495.439 579.061L504.985 588.607C505.571 589.192 506.521 589.192 507.107 588.607C507.692 588.021 507.692 587.071 507.107 586.485L498.621 578L507.107 569.515C507.692 568.929 507.692 567.979 507.107 567.393C506.521 566.808 505.571 566.808 504.985 567.393L495.439 576.939ZM574.5 310H559.5V313H574.5V310ZM534 335.5V554H537V335.5H534ZM511.5 576.5H496.5V579.5H511.5V576.5ZM534 554C534 566.426 523.926 576.5 511.5 576.5V579.5C525.583 579.5 537 568.083 537 554H534ZM559.5 310C545.417 310 534 321.417 534 335.5H537C537 323.074 547.074 313 559.5 313V310Z" fill="#85B7DD"/>
<path d="M574.5 313C575.328 313 576 312.328 576 311.5C576 310.672 575.328 310 574.5 310V313ZM495.439 259.439C494.854 260.025 494.854 260.975 495.439 261.561L504.985 271.107C505.571 271.692 506.521 271.692 507.107 271.107C507.692 270.521 507.692 269.571 507.107 268.985L498.621 260.5L507.107 252.015C507.692 251.429 507.692 250.479 507.107 249.893C506.521 249.308 505.571 249.308 504.985 249.893L495.439 259.439ZM574.5 310H559.5V313H574.5V310ZM537 287.5V284.5H534V287.5H537ZM511.5 259H496.5V262H511.5V259ZM537 284.5C537 270.417 525.583 259 511.5 259V262C523.926 262 534 272.074 534 284.5H537ZM559.5 310C547.074 310 537 299.926 537 287.5H534C534 301.583 545.417 313 559.5 313V310Z" fill="#85B7DD"/>
<path d="M574.5 313C575.328 313 576 312.328 576 311.5C576 310.672 575.328 310 574.5 310V313ZM495.439 148.439C494.854 149.025 494.854 149.975 495.439 150.561L504.985 160.107C505.571 160.692 506.521 160.692 507.107 160.107C507.692 159.521 507.692 158.571 507.107 157.985L498.621 149.5L507.107 141.015C507.692 140.429 507.692 139.479 507.107 138.893C506.521 138.308 505.571 138.308 504.985 138.893L495.439 148.439ZM574.5 310H559.5V313H574.5V310ZM537 287.5V173.5H534V287.5H537ZM511.5 148H496.5V151H511.5V148ZM537 173.5C537 159.417 525.583 148 511.5 148V151C523.926 151 534 161.074 534 173.5H537ZM559.5 310C547.074 310 537 299.926 537 287.5H534C534 301.583 545.417 313 559.5 313V310Z" fill="#85B7DD"/>
<path d="M574.5 313C575.328 313 576 312.328 576 311.5C576 310.672 575.328 310 574.5 310V313ZM495.439 37.4393C494.854 38.0251 494.854 38.9749 495.439 39.5607L504.985 49.1066C505.571 49.6924 506.521 49.6924 507.107 49.1066C507.692 48.5208 507.692 47.5711 507.107 46.9853L498.621 38.5L507.107 30.0147C507.692 29.4289 507.692 28.4792 507.107 27.8934C506.521 27.3076 505.571 27.3076 504.985 27.8934L495.439 37.4393ZM574.5 310H559.5V313H574.5V310ZM537 287.5V62.5H534V287.5H537ZM511.5 37H496.5V40H511.5V37ZM537 62.5C537 48.4167 525.583 37 511.5 37V40C523.926 40 534 50.0736 534 62.5H537ZM559.5 310C547.074 310 537 299.926 537 287.5H534C534 301.583 545.417 313 559.5 313V310Z" fill="#85B7DD"/>
</svg>
